<?xml version="1.0" standalone="no"?>
<!DOCTYPE svg PUBLIC "-//W3C//DTD SVG 1.1//EN" "http://www.w3.org/Graphics/SVG/1.1/DTD/svg11.dtd" >
<svg xmlns="http://www.w3.org/2000/svg" xmlns:xlink="http://www.w3.org/1999/xlink" version="1.1">
<metadata>
Created by FontForge 20170731 at Fri Jan 20 14:36:28 2023
 By Aleksey,,,
Copyright (c) 2018 by TypeTogether. All rights reserved.
</metadata>
<defs>
<font id="AdelleOetztal-Bold" horiz-adv-x="1167" >
  <font-face 
    font-family="Adelle O:tztal"
    font-weight="700"
    font-stretch="normal"
    units-per-em="2048"
    panose-1="0 0 8 0 0 0 0 0 0 0"
    ascent="1546"
    descent="-502"
    x-height="1067"
    cap-height="1483"
    bbox="-332 -598 2824 2034"
    underline-thickness="139"
    underline-position="-509"
    unicode-range="U+000D-FB06"
  />
<missing-glyph horiz-adv-x="1024" 
 />
    <glyph glyph-name="fi" unicode="fi" horiz-adv-x="1327" 
d="M858 0v838q0 24 -20 24h-326v-637q0 -30 7 -34q7 -5 30 -9l143 -20v-162h-637v162l111 14q28 5 32 12q5 8 5 37v617q0 9 -2 15q-2 5 -15 5h-137v205h154v102q0 115 33 192t97 123q61 44 160 66q95 21 220 21q102 0 175 -11q80 -12 136 -46q58 -35 89 -98q33 -67 34 -169
l-291 -35q0 48 -6 78q-6 29 -25 48q-17 17 -49 25q-28 7 -80 7q-103 0 -144 -35q-40 -34 -40 -123v-125q0 -11 3 -16q3 -4 20 -4h632v-850q0 -24 5 -31q4 -5 28 -10l105 -14v-162h-447z" />
    <glyph glyph-name="fl" unicode="fl" horiz-adv-x="1327" 
d="M858 0v1212q0 51 -4 78q-5 31 -19 48t-45 25q-28 7 -79 7q-105 0 -152 -35t-47 -123v-125q0 -11 3 -16q3 -4 20 -4h235v-205h-258v-637q0 -30 7 -34q7 -5 30 -9l143 -20v-162h-637v162l111 14q28 5 32 12q5 8 5 37v617q0 9 -2 15q-2 5 -15 5h-137v205h154v92
q0 229 130 320q131 92 380 92q124 0 202 -11q87 -12 143 -46t83 -98q26 -62 26 -169v-1030q0 -24 5 -31q4 -5 28 -10l100 -14v-162h-442z" />
    <glyph glyph-name="f_b" unicode="fb" horiz-adv-x="1941" 
d="M770 862h-258v-637q0 -30 7 -34q7 -5 30 -9l143 -20v-162h-637v162l111 14q28 5 32 12q5 8 5 37v617q0 9 -2 15q-2 5 -15 5h-137v205h154v92q0 229 130 320q131 92 380 92q124 0 202 -11q86 -12 142 -47t83 -98t27 -168v-268l9 -2q69 54 138 82q71 28 167 28
q84 0 155 -28q73 -29 125 -91q55 -66 84 -162q31 -102 31 -243q0 -156 -32 -269q-31 -111 -89 -182q-58 -72 -136 -104q-79 -33 -173 -33q-100 0 -178 38q-75 37 -123 91l-10 -2l-15 -102h-293q10 64 21 146q10 73 10 153v913q0 51 -4 78q-5 31 -19 48t-45 25q-28 7 -79 7
q-105 0 -152 -35t-47 -123v-125q0 -11 3 -16q3 -4 20 -4h235v-205zM1165 295q31 -30 85 -56q50 -24 104 -24q102 0 150 89t48 243q0 62 -10 113q-11 56 -33 96q-23 42 -58 65q-37 25 -87 25q-56 0 -109 -24t-90 -48v-479z" />
    <glyph glyph-name="f_f" unicode="ff" horiz-adv-x="1552" 
d="M203 1139q0 219 125 309t368 90q175 0 283 -57q113 90 321 90q78 0 137 -11q66 -12 115 -44q50 -32 81 -91q30 -57 30 -149l-287 -35q2 80 -20 104q-22 25 -74 25q-76 0 -95 -42q-20 -43 -20 -111v-130q0 -9 2 -15q2 -5 15 -5h323v-205h-340v-637q0 -23 8 -31
q9 -9 29 -10l250 -22v-162h-596v842q0 9 -2 15q-2 5 -14 5h-330v-639q0 -21 5 -29t24 -10l172 -22v-162h-658v164l115 12q24 5 28 12q5 8 5 31v623q0 9 -2 15q-2 5 -15 5h-137v205h154v72zM512 1087q0 -9 2 -15q2 -5 14 -5h330v125q0 85 -34 112t-128 27q-104 0 -144 -34
t-40 -121v-89z" />
    <glyph glyph-name="f_f_b" unicode="ffb" horiz-adv-x="2596" 
d="M1425 862h-258v-637q0 -29 8 -34t29 -9l144 -20v-162h-490v842q0 9 -2 15q-2 5 -14 5h-330v-639q0 -21 5 -29t24 -10l172 -22v-162h-658v164l115 12q24 5 28 12q5 8 5 31v623q0 9 -2 15q-2 5 -15 5h-137v205h154v72q0 219 125 309t368 90q95 0 162 -14q75 -16 129 -47
q64 48 160 71q97 23 221 23q125 0 203 -11q87 -12 141 -46q55 -34 82 -98q28 -66 29 -169v-268l8 -2q69 54 138 82q71 28 167 28q85 0 156 -28q73 -29 125 -91q55 -66 84 -162q30 -99 30 -243q0 -160 -31 -269q-31 -111 -89 -182q-57 -71 -137 -104t-173 -33q-100 0 -178 38
q-75 37 -123 91l-10 -2l-14 -102h-293q3 20 6.5 44t7.5 54t6 48q10 73 10 153v913q0 51 -4 78q-5 31 -19 48t-45 25q-28 7 -79 7q-105 0 -152 -35t-47 -123v-125q0 -11 3 -16q3 -4 20 -4h235v-205zM512 1087q0 -9 2 -15q2 -5 14 -5h330v115q0 90 -33 120q-32 29 -129 29
q-104 0 -144 -34t-40 -121v-89zM1821 295q31 -30 85 -56q49 -24 103 -24q103 0 151 89t48 243q0 62 -10 113q-11 56 -33 96q-23 41 -59 65q-38 25 -87 25q-55 0 -108 -24t-90 -48v-479z" />
    <glyph glyph-name="f_f_h" unicode="ffh" horiz-adv-x="2613" 
d="M1425 862h-258v-637q0 -29 8 -34t29 -9l144 -20v-162h-490v842q0 9 -2 15q-2 5 -14 5h-330v-639q0 -21 5 -29t24 -10l172 -22v-162h-658v164l115 12q24 5 28 12q5 8 5 31v623q0 9 -2 15q-2 5 -15 5h-137v205h154v72q0 219 125 309t368 90q95 0 162 -14q75 -16 129 -47
q64 48 160 71q97 23 221 23t202 -11q85 -12 140 -46q57 -35 83 -96q29 -67 30 -167v-284l10 -2q69 57 147 90q76 32 177 32q164 0 230 -86q67 -87 67 -245v-539q0 -24 5 -31q4 -5 27 -10l103 -14v-162h-445v668q0 13 -2 53q-2 31 -13 57q-12 27 -33 45q-22 19 -60 19
q-58 0 -116 -24q-59 -24 -97 -52v-549q0 -24 5 -31q4 -5 27 -10l99 -14v-162h-441v1212q0 51 -4 78q-5 31 -19 48t-45 25q-28 7 -79 7q-105 0 -152 -35t-47 -123v-125q0 -11 3 -16q3 -4 20 -4h235v-205zM512 1087q0 -9 2 -15q2 -5 14 -5h330v115q0 90 -33 120
q-32 29 -129 29q-104 0 -144 -34t-40 -121v-89z" />
    <glyph glyph-name="f_f_i" unicode="ffi" horiz-adv-x="1982" 
d="M1513 0v838q0 24 -20 24h-326v-637q0 -29 8 -34t29 -9l144 -20v-162h-490v842q0 9 -2 15q-2 5 -14 5h-330v-639q0 -21 5 -29t24 -10l172 -22v-162h-658v164l115 12q24 5 28 12q5 8 5 31v623q0 9 -2 15q-2 5 -15 5h-137v205h154v72q0 219 125 309t368 90q179 0 287 -57
q63 47 161 69q94 21 224 21q102 0 175 -11q80 -12 136 -46q58 -35 89 -98q33 -67 34 -169l-291 -35q0 48 -6 78t-24 48q-17 17 -49 25q-28 7 -80 7q-104 0 -145 -35q-40 -34 -40 -123v-125q0 -11 3 -16q3 -4 20 -4h633v-850q0 -24 5 -31q4 -5 27 -10l105 -14v-162h-447z
M858 1067v125q0 85 -34 112t-128 27q-104 0 -144 -34t-40 -121v-89q0 -9 2 -15q2 -5 14 -5h330z" />
    <glyph glyph-name="f_f_j" unicode="ffj" horiz-adv-x="1972" 
d="M1513 838q0 24 -20 24h-326v-637q0 -29 8 -34t29 -9l144 -20v-162h-490v842q0 9 -2 15q-2 5 -14 5h-330v-639q0 -21 5 -29t24 -10l172 -22v-162h-658v164l115 12q24 5 28 12q5 8 5 31v623q0 9 -2 15q-2 5 -15 5h-137v205h154v72q0 219 125 309t368 90q179 0 287 -57
q63 47 161 69q94 21 224 21q102 0 175 -11q80 -12 136 -46q58 -35 89 -98q33 -67 34 -169l-291 -35q0 48 -6 78t-24 48q-17 17 -49 25q-28 7 -80 7q-104 0 -145 -35q-40 -34 -40 -123v-125q0 -11 3 -16q3 -4 20 -4h633v-1176q0 -186 -92 -267q-91 -81 -265 -81
q-62 0 -118 12q-67 14 -100 27q-49 19 -76 34q-34 20 -48 32l88 170q25 -17 74 -35q52 -19 105 -19q63 0 93 36q29 35 29 143v895zM512 1087q0 -9 2 -15q2 -5 14 -5h330v107q0 49 -7 77q-8 31 -25 48q-18 17 -49 25q-29 7 -81 7q-104 0 -144 -34t-40 -121v-89z" />
    <glyph glyph-name="f_f_k" unicode="ffk" horiz-adv-x="2605" 
d="M1425 862h-258v-637q0 -29 8 -34t29 -9l144 -20v-162h-490v842q0 9 -2 15q-2 5 -14 5h-330v-639q0 -21 5 -29t24 -10l172 -22v-162h-658v164l115 12q24 5 28 12q5 8 5 31v623q0 9 -2 15q-2 5 -15 5h-137v205h154v72q0 219 125 309t368 90q95 0 162 -14q75 -16 129 -47
q64 48 160 71q97 23 221 23t202 -11q85 -12 140 -46q56 -35 83 -97q29 -67 30 -168v-577l375 395h282v-162l-106 -20q-22 -5 -29 -9t-23 -22l-145 -154l262 -489q11 -24 24 -28t38 -9l90 -14v-160h-398l-260 522l-110 -121v-184q0 -24 5 -31q4 -5 27 -10l123 -14v-162h-465
v1221q0 45 -6 73t-21 46t-44 24q-28 6 -76 6q-105 0 -152 -35t-47 -123v-125q0 -11 3 -16q3 -4 20 -4h235v-205zM512 1087q0 -9 2 -15q2 -5 14 -5h330v107q0 49 -7 77q-8 31 -25 48q-18 17 -49 25q-29 7 -81 7q-104 0 -144 -34t-40 -121v-89z" />
    <glyph glyph-name="f_f_l" unicode="ffl" horiz-adv-x="1982" 
d="M1425 862h-258v-637q0 -29 8 -34t29 -9l144 -20v-162h-490v842q0 9 -2 15q-2 5 -14 5h-330v-639q0 -21 5 -29t24 -10l172 -22v-162h-658v164l115 12q24 5 28 12q5 8 5 31v623q0 9 -2 15q-2 5 -15 5h-137v205h154v72q0 219 125 309t368 90q95 0 162 -14q75 -16 129 -47
q64 48 160 71q97 23 221 23q125 0 203 -11q87 -12 141 -46q55 -34 82 -98q28 -66 29 -169v-1030q0 -24 5 -31q4 -5 27 -10l101 -14v-162h-443v1212q0 51 -4 78q-5 31 -19 48t-45 25q-28 7 -79 7q-105 0 -152 -35t-47 -123v-125q0 -11 3 -16q3 -4 20 -4h235v-205zM858 1067
v115q0 90 -33 120q-32 29 -129 29q-104 0 -144 -34t-40 -121v-89q0 -9 2 -15q2 -5 14 -5h330z" />
    <glyph glyph-name="f_f_t" unicode="fft" horiz-adv-x="2230" 
d="M2183 57q-67 -34 -155 -57q-94 -25 -179 -25q-183 0 -260 78q-76 77 -76 252v537q0 9 -2 15q-2 5 -14 5h-330v-637q0 -29 8 -34t29 -9l144 -20v-162h-490v842q0 9 -2 15q-2 5 -14 5h-330v-639q0 -21 5 -29t24 -10l172 -22v-162h-658v164l115 12q24 5 28 12q5 8 5 31v623
q0 9 -2 15q-2 5 -15 5h-137v205h154v72q0 219 125 309t368 90q179 0 287 -57q63 47 161 69q94 21 224 21q102 0 175 -11q80 -12 136 -46q58 -35 89 -98q33 -67 34 -169l-291 -35q0 48 -6 78t-24 48q-17 17 -49 25q-28 7 -80 7q-104 0 -145 -35q-40 -34 -40 -123v-125
q0 -11 3 -16q3 -4 20 -4h938v-205h-305v-489q0 -93 27 -130q27 -38 112 -38q42 0 86 9q41 9 80 24zM512 1087q0 -9 2 -15q2 -5 14 -5h330v102q0 52 -7 81q-7 32 -25 49t-49 25q-29 7 -81 7q-104 0 -144 -34t-40 -121v-89z" />
    <glyph glyph-name="f_h" unicode="fh" horiz-adv-x="1957" 
d="M770 862h-258v-637q0 -30 7 -34q7 -5 30 -9l143 -20v-162h-637v162l111 14q28 5 32 12q5 8 5 37v617q0 9 -2 15q-2 5 -15 5h-137v205h154v92q0 229 130 320q131 92 380 92q124 0 202 -11q88 -12 142 -46q57 -35 83 -96q27 -63 27 -167v-284l11 -2q69 57 147 90
q76 32 176 32q165 0 231 -86t66 -245v-539q0 -24 5 -31q4 -5 28 -10l102 -14v-162h-444v668q0 13 -2 53q-2 31 -13 57q-12 27 -33 45q-22 19 -61 19q-56 0 -115 -24q-61 -25 -98 -52v-549q0 -24 5 -31q4 -5 28 -10l98 -14v-162h-440v1214q0 44 -5 77q-4 28 -20 47
q-14 17 -45 25q-27 7 -77 7q-105 0 -152 -35t-47 -123v-125q0 -11 3 -16q3 -4 20 -4h235v-205z" />
    <glyph glyph-name="f_iacute" unicode="f&#xed;" horiz-adv-x="1308" 
d="M946 1149l-115 102l314 357l168 -160zM55 0v164l115 12q24 5 28 12q5 8 5 31v623q0 9 -2 15q-2 5 -15 5h-137v205h154v113q0 208 108 299q109 92 291 92q85 0 159 -22q71 -21 99 -42l-84 -180q-34 19 -73 32q-33 11 -76 11q-79 0 -97 -40t-18 -113v-130q0 -9 2 -15
q2 -5 14 -5h639v-850q0 -24 5 -31q4 -5 28 -10l105 -14v-162h-447v862h-346v-637q0 -25 7 -32q10 -10 30 -11l143 -20v-162h-637z" />
    <glyph glyph-name="f_j" unicode="fj" horiz-adv-x="1316" 
d="M858 838q0 24 -20 24h-326v-637q0 -30 7 -34q7 -5 30 -9l143 -20v-162h-637v162l111 14q28 5 32 12q5 8 5 37v617q0 9 -2 15q-2 5 -15 5h-137v205h154v102q0 115 33 192t97 123q61 44 160 66q95 21 220 21q102 0 175 -11q80 -12 136 -46q58 -35 89 -98q33 -67 34 -169
l-291 -35q0 48 -6 78q-6 29 -25 48q-17 17 -49 25q-28 7 -80 7q-103 0 -144 -35q-40 -34 -40 -123v-125q0 -11 3 -16q3 -4 20 -4h632v-1176q0 -186 -92 -267q-91 -81 -264 -81q-63 0 -119 12q-65 14 -99 27q-49 19 -76 34q-34 20 -48 32l88 170q25 -17 74 -35
q52 -19 104 -19q63 0 93 36t30 143v895z" />
    <glyph glyph-name="f_k" unicode="fk" horiz-adv-x="1951" 
d="M770 862h-258v-637q0 -30 7 -34q7 -5 30 -9l143 -20v-162h-637v162l111 14q28 5 32 12q5 8 5 37v617q0 9 -2 15q-2 5 -15 5h-137v205h154v92q0 229 130 320q131 92 380 92q124 0 202 -11q88 -12 142 -46q56 -35 83 -97q27 -63 27 -168v-577l375 395h283v-162l-107 -20
q-20 -4 -28 -9q-7 -4 -23 -22l-145 -154l262 -489q11 -24 23 -28q13 -4 38 -9l90 -14v-160h-397l-260 522l-111 -121v-184q0 -24 5 -31q4 -5 28 -10l123 -14v-162h-465v1221q0 41 -5 73q-4 27 -20 46q-15 18 -46 24q-30 6 -76 6q-105 0 -152 -35t-47 -123v-125q0 -11 3 -16
q3 -4 20 -4h235v-205z" />
    <glyph glyph-name="f_t" unicode="ft" horiz-adv-x="1574" 
d="M1528 57q-66 -33 -156 -57q-94 -25 -178 -25q-184 0 -260 78q-76 77 -76 252v537q0 9 -2 15q-2 5 -14 5h-330v-637q0 -30 7 -34q7 -5 30 -9l143 -20v-162h-637v162l111 14q28 5 32 12q5 8 5 37v617q0 9 -2 15q-2 5 -15 5h-137v205h154v102q0 115 33 192t97 123
q61 44 160 66q95 21 220 21q102 0 175 -11q80 -12 136 -46q58 -35 89 -98q33 -67 34 -169l-291 -35q0 48 -6 78q-6 29 -25 48q-17 17 -49 25q-28 7 -80 7q-103 0 -144 -35q-40 -34 -40 -123v-125q0 -11 3 -16q3 -4 20 -4h938v-205h-306v-489q0 -91 28 -130q27 -38 112 -38
q43 0 86 9q41 9 80 24z" />
    <glyph glyph-name="t_t" unicode="tt" horiz-adv-x="1554" 
d="M1507 57q-67 -34 -155 -57q-94 -25 -178 -25q-184 0 -261 78q-75 76 -75 252v537q0 9 -2 15q-2 5 -15 5h-329v-489q0 -92 21 -131t99 -39q35 0 77 9q41 9 79 24l55 -185q-59 -28 -140 -52t-183 -24q-170 0 -244 78q-74 79 -74 252v537q0 9 -2 15q-2 5 -14 5h-143v182
q134 16 196 92q62 75 78 242h195v-291q0 -9 2 -15q2 -5 14 -5h215q98 0 157 89q57 86 72 222h195v-291q0 -9 2 -15q2 -5 14 -5h289v-205h-305v-489q0 -91 28 -130q27 -38 111 -38q42 0 86 9q41 9 80 24z" />
    <glyph glyph-name=".notdef" horiz-adv-x="1024" 
 />
    <glyph glyph-name=".null" horiz-adv-x="0" 
 />
    <glyph glyph-name="nonmarkingreturn" unicode="&#xd;" horiz-adv-x="1024" 
 />
    <glyph glyph-name="space" unicode=" " horiz-adv-x="413" 
 />
    <glyph glyph-name="exclam" unicode="!" horiz-adv-x="569" 
d="M156 401l-37 719v363h330v-363l-35 -719h-258zM131 0v285h309v-285h-309z" />
    <glyph glyph-name="quotedbl" unicode="&#x22;" horiz-adv-x="825" 
d="M82 915v531h276v-531h-276zM467 915v531h276v-531h-276z" />
    <glyph glyph-name="numbersign" unicode="#" horiz-adv-x="1243" 
d="M621 0l34 248h-176l-37 -248h-213l37 248h-205l45 207h193l35 231h-205l43 209h193l32 217h213l-32 -217h176l32 217h213l-32 -217h207l-41 -209h-197l-35 -231h207l-41 -207h-199l-37 -248h-210zM723 686h-176l-37 -231h178z" />
    <glyph glyph-name="dollar" unicode="$" horiz-adv-x="1083" 
d="M999 399q0 -167 -88 -259q-90 -95 -231 -124v-180h-254v166q-95 4 -195 23q-94 18 -161 51v327h223l26 -143q5 -24 12 -31q9 -9 27 -14q27 -9 62 -13q43 -5 90 -5q207 0 207 145q0 65 -47 101q-46 35 -118 60q-70 24 -153 45q-79 20 -152 62q-71 41 -118 109t-47 184
q0 83 26 149t71 111q48 48 110 79q61 30 137 46v160h256v-150q86 -6 158 -21q69 -14 135 -38v-350l-225 22l-25 136q-5 23 -12 30q-9 9 -29 15q-26 7 -55 8q-40 2 -62 2q-89 0 -146 -33q-56 -32 -56 -104q0 -62 47 -97q48 -35 117 -59q71 -24 153 -48t153 -66t117 -111
q47 -70 47 -185z" />
    <glyph glyph-name="percent" unicode="%" horiz-adv-x="1818" 
d="M377 -35l772 1307h283l-770 -1307h-285zM768 913q0 -175 -89 -281t-269 -106q-96 0 -163 29t-107 78q-38 47 -57 115q-17 62 -17 139q0 173 87 278t273 105q184 0 263 -96q79 -95 79 -261zM301 901q0 -105 27 -156t92 -51q63 0 90 51t27 160q0 98 -26 147q-25 48 -89 48
t-92 -51q-29 -52 -29 -148zM1753 362q0 -175 -89 -281t-269 -106q-97 0 -164 29q-65 28 -106 78q-38 47 -57 115q-17 62 -17 139q0 173 87 278t273 105q183 0 263 -96q79 -95 79 -261zM1286 350q0 -103 26 -155t91 -52t91 52t26 159q0 97 -25 147q-24 48 -90 48
q-64 0 -91 -51q-28 -53 -28 -148z" />
    <glyph glyph-name="ampersand" unicode="&#x26;" horiz-adv-x="1470" 
d="M1063 0l-113 131q-84 -79 -183 -117q-102 -39 -230 -39q-100 0 -189 28q-84 26 -147 82q-62 54 -96 133q-33 76 -33 179q0 144 73 250t222 168q-29 47 -53 106q-23 56 -23 132q0 79 30 142t81 105t125 67q72 24 159 24q45 0 110 -9q49 -7 102 -20q44 -11 88 -29
q42 -17 65 -33v-321l-220 8l-24 137q-5 17 -9 23q-4 5 -20 10q-16 4 -35 6q-24 2 -38 2q-62 0 -92 -31q-29 -30 -29 -81q0 -56 26 -102q28 -50 86 -115l230 -271q15 48 29 119q12 60 18 109h352v-158l-94 -19q-19 -5 -25 -9t-10 -25q-9 -47 -31 -119q-18 -61 -45 -113
l129 -147q6 -8 17 -17q8 -7 22 -8l121 -18v-160h-346zM514 625q-64 -28 -105 -81q-40 -52 -40 -132q0 -75 44 -133t148 -58q57 0 118 22q58 21 105 74z" />
    <glyph glyph-name="quotesingle" unicode="'" horiz-adv-x="442" 
d="M82 915v531h276v-531h-276z" />
    <glyph glyph-name="parenleft" unicode="(" horiz-adv-x="729" 
d="M420 -354q-66 86 -126 189q-63 108 -107 221q-45 116 -73 249q-28 135 -28 268q0 138 28 273q27 133 75 250q46 114 113 226q65 109 136 202l232 -138q-128 -191 -192 -385q-62 -189 -62 -428q0 -134 17 -235q19 -112 49 -202t76 -182q37 -73 97 -175z" />
    <glyph glyph-name="parenright" unicode=")" horiz-adv-x="729" 
d="M66 -219q55 82 105 181q46 90 79 190q32 97 49 206q16 105 16 232q0 125 -16 227q-17 106 -48 200q-30 91 -77 186q-48 98 -104 186l233 135q62 -79 127 -190q64 -110 109 -225q46 -119 75 -251q29 -133 29 -268q0 -139 -28 -273q-26 -123 -74 -246q-46 -116 -110 -225
q-64 -108 -134 -200z" />
    <glyph glyph-name="asterisk" unicode="*" horiz-adv-x="974" 
d="M168 911l88 115l178 115l-213 -8l-137 45l70 204l137 -45l162 -133l-74 199v143h215v-143l-72 -199h-69l-19 -63l53 -41l-59 -201l-86 -117zM635 782l-86 117l-62 201l56 41l-21 63l164 133l137 45l68 -204l-137 -45l-211 8l178 -115l88 -115z" />
    <glyph glyph-name="plus" unicode="+" 
d="M459 248v295h-273v237h273v287h246v-287h274v-237h-274v-295h-246z" />
    <glyph glyph-name="comma" unicode="," horiz-adv-x="481" 
d="M86 0v332h297q19 -26 28 -62q8 -35 10 -80q1 -44 -6 -87q-8 -44 -24 -83l-133 -313l-129 41l55 211q5 17 -3 29q-7 12 -21 12h-74z" />
    <glyph glyph-name="hyphen" unicode="-" horiz-adv-x="636" 
d="M41 465v260h555v-260h-555z" />
    <glyph glyph-name="period" unicode="." horiz-adv-x="534" 
d="M115 0v332h309v-332h-309z" />
    <glyph glyph-name="slash" unicode="/" horiz-adv-x="929" 
d="M23 -188l575 1734h291l-574 -1734h-292z" />
    <glyph glyph-name="zero" unicode="0" horiz-adv-x="1232" 
d="M1155 610q0 -138 -28 -261q-27 -118 -92 -201t-170 -128t-259 -45q-153 0 -255 45q-101 45 -163 126q-62 82 -86 196t-24 252q0 139 30 253t95 194q67 82 171 125q106 44 257 44q150 0 253 -44q102 -44 162 -123q60 -80 84 -189q25 -116 25 -244zM408 590q0 -209 45 -302
t165 -93q116 0 162 93q47 94 47 310q0 210 -44 300q-44 89 -158 89q-115 0 -166 -91q-51 -92 -51 -306z" />
    <glyph glyph-name="one" unicode="1" horiz-adv-x="831" 
d="M72 0v162l176 14q22 1 27 10q6 10 6 31v715q0 36 -27 43l-178 37l22 168h492v-963q0 -24 5 -32q4 -7 28 -9l168 -14v-162h-719z" />
    <glyph glyph-name="two" unicode="2" horiz-adv-x="1073" 
d="M66 0v190l274 269q104 102 133 131q55 55 91 100q34 43 53 85q18 41 18 83q0 56 -32 94q-31 37 -114 37q-85 0 -122 -36t-37 -146l-279 24q0 124 43 197q44 75 110 115t149 54q79 13 163 13q118 0 201 -24q81 -24 133 -68t74 -103t22 -132q0 -74 -23 -133
q-24 -62 -63 -117t-90 -108q-57 -58 -106 -105l-232 -221h301q18 0 23 4q6 4 10 20l29 162h217v-385h-946z" />
    <glyph glyph-name="three" unicode="3" horiz-adv-x="1062" 
d="M723 543q132 -21 201 -99t69 -217q0 -99 -36 -176q-36 -76 -101 -125q-63 -47 -157 -72q-91 -24 -201 -24q-156 0 -287 51t-209 137l164 181q63 -59 129 -97q69 -39 178 -39q35 0 82 9q39 7 68 29q27 20 46 58q17 34 17 89q0 94 -54 135q-55 41 -151 41q-38 0 -71 -3
q-27 -2 -80 -11v204l100 13q112 15 169 68q58 54 58 153q0 60 -31 100q-32 41 -118 41q-84 0 -124 -36t-40 -146l-281 24q0 120 41 196q40 74 108 116q66 41 148 54q79 13 162 13q239 0 337 -88q99 -88 99 -252q0 -130 -68 -210q-69 -81 -167 -109v-8z" />
    <glyph glyph-name="four" unicode="4" horiz-adv-x="1140" 
d="M651 -137v264h-598v211l420 879l268 -123l-387 -727h297v329l283 43v-372h170v-240h-170v-264h-283z" />
    <glyph glyph-name="five" unicode="5" horiz-adv-x="1110" 
d="M399 922l-28 -281q41 27 105 48q68 22 155 22q179 0 288 -104q107 -103 107 -314q0 -94 -33 -178q-34 -86 -96 -148t-158 -100q-93 -37 -217 -37q-169 0 -302 50q-131 49 -214 138l164 187q60 -60 137 -100q75 -39 189 -39q91 0 156 53t65 164q0 61 -19 102
q-18 38 -47 60q-30 22 -62 29t-63 7q-61 0 -110 -24q-46 -22 -86 -64l-203 84l45 703h535q14 0 18 7q2 4 8 17l27 113l182 12v-407h-543z" />
    <glyph glyph-name="six" unicode="6" horiz-adv-x="1157" 
d="M778 969q0 93 -33 128q-32 33 -112 33q-65 0 -109 -30q-40 -28 -69 -84q-25 -49 -38 -122q-13 -72 -14 -146q56 32 125 55q72 24 162 24q179 0 289 -97q111 -98 111 -298q0 -120 -37 -206q-37 -87 -103 -142t-155 -82q-90 -27 -197 -27q-148 0 -248 53q-97 52 -156 142
q-58 89 -82 213q-24 123 -24 266q0 109 24 231q25 125 86 224q64 103 169 170q106 67 272 67q71 0 147 -12q77 -12 139 -49t102 -102t40 -174zM610 608q-55 0 -109 -20q-58 -21 -98 -45q1 -41 11 -123q8 -63 28 -111q21 -49 60 -79q38 -29 102 -29q97 0 134 64q38 65 38 153
q0 104 -37 147t-129 43z" />
    <glyph glyph-name="seven" unicode="7" horiz-adv-x="1089" 
d="M299 -137q18 208 71 379q54 173 118 302q61 122 137 226q71 97 120 152h-391q-16 0 -19 -7q-2 -5 -7 -20l-33 -172l-215 -16v473h989v-232q-90 -95 -169 -218q-77 -120 -138 -264q-56 -133 -96 -294q-36 -148 -41 -309h-326z" />
    <glyph glyph-name="eight" unicode="8" horiz-adv-x="1105" 
d="M985 1014q0 -98 -49 -180t-113 -138q93 -53 154 -128q61 -74 61 -197q0 -101 -39 -174q-39 -74 -106 -123q-68 -50 -160 -74q-95 -25 -201 -25q-222 0 -343 88t-121 267q0 120 57 202q56 80 137 148q-63 44 -107 113q-44 70 -44 168q0 97 33 164q35 71 95 119
q62 50 142 73q82 24 178 24q203 0 314 -87q112 -88 112 -240zM406 1006q0 -40 16 -69q16 -30 45 -54q28 -23 68 -45q39 -21 83 -43q48 51 77 99q30 50 30 105q0 71 -44 106q-43 34 -120 34q-79 0 -117 -37t-38 -96zM727 336q0 46 -24 81t-62 61q-40 28 -86 50
q-16 8 -48 23.5t-48 23.5q-67 -63 -102 -117q-33 -52 -33 -112q0 -78 53 -122t160 -44q97 0 144 45q46 45 46 111z" />
    <glyph glyph-name="nine" unicode="9" 
d="M240 170q60 -49 132 -79q76 -32 152 -32q74 0 120 27q45 26 73 74q26 44 38 109q11 60 13 132q-45 -29 -117 -54q-66 -23 -170 -23q-84 0 -156 27q-73 27 -127 83q-56 57 -85 135q-31 82 -31 185q0 223 130 340q129 116 355 116q152 0 251 -51q98 -51 159 -140
q60 -88 84 -209q24 -120 24 -259q0 -134 -22 -260q-23 -129 -83 -232q-59 -100 -167 -164q-107 -63 -274 -63q-121 0 -240 39q-118 39 -190 111zM559 549q61 0 111 19q49 19 98 55q-1 63 -11 132q-8 59 -31 116q-21 52 -59 84t-102 32q-49 0 -82 -18q-32 -18 -52 -48
q-21 -32 -28 -69q-8 -42 -8 -82q0 -110 36 -166q36 -55 128 -55z" />
    <glyph glyph-name="colon" unicode=":" horiz-adv-x="534" 
d="M115 735v332h309v-332h-309zM115 0v332h309v-332h-309z" />
    <glyph glyph-name="semicolon" unicode=";" horiz-adv-x="481" 
d="M92 735v332h309v-332h-309zM86 0v332h297q19 -26 28 -62q8 -35 10 -80q1 -44 -6 -87q-8 -44 -24 -83l-133 -313l-129 41l55 211q5 17 -3 29q-7 12 -21 12h-74z" />
    <glyph glyph-name="less" unicode="&#x3c;" 
d="M141 453v286l795 291l70 -231l-598 -201l602 -201l-70 -225z" />
    <glyph glyph-name="equal" unicode="=" 
d="M188 647v240h791v-240h-791zM188 266v240h791v-240h-791z" />
    <glyph glyph-name="greater" unicode="&#x3e;" 
d="M211 172l-70 225l602 201l-596 201l68 231l795 -291v-286z" />
    <glyph glyph-name="question" unicode="?" horiz-adv-x="1067" 
d="M276 406v368q60 5 150 19q73 12 137 41q62 29 101 81q38 51 38 142q0 105 -51 139q-52 35 -129 35q-48 0 -79 -6q-29 -5 -60 -17q-16 -6 -19 -13q-4 -10 -8 -30l-18 -129l-248 -20v373q102 39 214 67q110 27 231 27q100 0 192 -20t158 -67q67 -47 106 -129
q39 -81 39 -204q0 -200 -110 -323t-334 -150v-184h-310zM268 0v285h328v-285h-328z" />
    <glyph glyph-name="at" unicode="@" horiz-adv-x="1722" 
d="M1268 -311q-59 -26 -161 -49q-104 -23 -255 -23q-167 0 -302 46q-139 47 -233 137q-95 91 -148 228q-52 135 -52 316q0 186 58 336q59 152 163 259q105 108 251 166t322 58q159 0 288 -43q130 -43 223 -126q95 -84 146 -203q52 -120 52 -279q0 -141 -30 -243
q-30 -100 -84 -167q-54 -66 -128 -96q-76 -31 -161 -31q-185 0 -236 142q-67 -63 -119 -100q-60 -42 -131 -42q-106 0 -170 73q-63 72 -63 216q0 111 30 210q29 97 88 174q56 74 142 120q84 45 190 45q88 0 158 -19q73 -20 127 -46l-47 -302q-13 -63 -19 -115
q-8 -69 -8 -102q0 -37 18 -58t58 -21q56 0 90 37q32 35 55 92q20 51 28 112q7 56 7 105q0 223 -121 353t-389 130q-148 0 -259 -53q-107 -51 -181 -142q-73 -90 -107 -202t-34 -238q0 -273 145 -412t408 -139q91 0 177 18q89 19 165 46zM1022 639q-16 12 -41 18q-28 7 -49 7
q-44 0 -84 -27q-42 -28 -73 -74q-31 -47 -51 -114q-19 -66 -19 -152q0 -79 22 -111t59 -32q42 0 88 30q48 31 89 78z" />
    <glyph glyph-name="A" unicode="A" horiz-adv-x="1581" 
d="M989 391h-502l-71 -213l162 -18v-160h-572v160l90 22q44 11 56 49l356 998l-252 10l16 244h686l385 -1123q28 -85 57 -124q26 -35 73 -35q37 0 88 18l38 -194q-33 -20 -98 -34t-135 -14q-136 0 -205 64q-68 63 -114 190zM760 1178h-19l-190 -566h381z" />
    <glyph glyph-name="B" unicode="B" horiz-adv-x="1376" 
d="M78 0v160l129 14q23 5 27 11q6 10 6 30v1049q0 20 -6 30t-27 11l-129 14v164h690q128 0 218 -28q86 -27 138 -77q51 -50 72 -115q21 -66 21 -143q0 -70 -22 -130q-20 -53 -56 -99q-35 -44 -80 -71q-46 -28 -92 -44v-6q177 -21 259 -115q83 -95 83 -247q0 -112 -42 -192
t-117 -126q-76 -47 -177 -68q-107 -22 -223 -22h-672zM637 860q52 0 105 8q48 7 89 31q39 22 62 64q22 40 22 106q0 63 -18 101q-19 39 -52 58t-79 25q-53 7 -98 7h-113v-400h82zM696 221q66 0 118 9q49 8 89 34q36 23 58 67q20 40 20 109q0 66 -20 106q-21 43 -55 66
q-37 26 -80 34q-46 9 -99 9h-172v-434h141z" />
    <glyph glyph-name="C" unicode="C" horiz-adv-x="1386" 
d="M1294 88q-97 -54 -233 -83q-139 -30 -279 -30q-187 0 -326 55q-137 54 -224 153q-88 100 -128 243q-41 146 -41 322q0 159 48 303q46 137 142 241q96 103 239 160q144 57 333 57q129 0 254 -30t211 -86v-402l-225 19l-33 200q-6 30 -33 37q-34 10 -83 18q-45 7 -99 7
q-197 0 -311 -131q-115 -132 -115 -393q0 -274 110 -407q109 -132 302 -132q54 0 107 7q55 7 98 20q17 4 25 12q6 6 11 31l31 190h219v-381z" />
    <glyph glyph-name="D" unicode="D" horiz-adv-x="1540" 
d="M78 0v164l129 14q22 1 27 10q6 10 6 31v1047q0 19 -6 29q-4 7 -27 12l-129 14v162h663q191 0 332 -50q139 -49 229 -144q89 -93 132 -226q43 -132 43 -299q0 -172 -46 -311q-47 -142 -141 -242q-95 -101 -239 -156t-344 -55h-629zM674 221q134 0 227 38q90 37 149 108
q56 67 80 165q25 100 25 213q0 137 -28 240q-26 97 -85 160q-58 62 -145 89q-92 28 -211 28h-129v-1041h117z" />
    <glyph glyph-name="E" unicode="E" horiz-adv-x="1284" 
d="M78 0v160l129 14q23 5 27 11q6 10 6 30v1051q0 20 -6 30t-27 11l-129 14v162h1089v-414l-225 10l-29 156q-6 27 -34 27h-322v-404h479v-227h-479v-412h367q16 0 22 3q5 3 10 20l33 180h223v-422h-1134z" />
    <glyph glyph-name="F" unicode="F" horiz-adv-x="1234" 
d="M78 0v160l129 14q23 5 27 11q6 10 6 30v1051q0 20 -6 30t-27 11l-129 14v162h1081v-414l-225 10l-29 156q-6 27 -35 27h-313v-402h471v-227h-471v-414q0 -24 5 -31q4 -5 28 -10l301 -16v-162h-813z" />
    <glyph glyph-name="G" unicode="G" horiz-adv-x="1478" 
d="M1376 543q-33 -1 -33 -29v-440q-119 -56 -259 -77q-149 -22 -271 -22q-208 0 -353 59t-233 162t-127 243q-39 141 -39 306q0 159 48 305q46 139 143 242t241 160t336 57q60 0 117 -7q74 -9 123 -21q66 -16 119 -37q56 -22 104 -53v-387l-227 16l-31 184q-5 24 -11 30
t-22 11q-47 13 -90 19q-54 8 -98 8q-99 0 -177 -37q-79 -37 -133 -105q-55 -69 -83 -163q-29 -98 -29 -217q0 -257 108 -398t328 -141q47 0 88 4q55 5 82 10q17 5 25 11t8 26v268h-227l28 185h629v-164z" />
    <glyph glyph-name="H" unicode="H" horiz-adv-x="1675" 
d="M956 0v160l129 14q24 5 28 11q5 8 5 30v432h-561v-430q0 -24 5 -31q4 -5 28 -10l137 -16v-160h-649v160l129 14q23 5 27 11q6 10 6 30v1049q0 20 -6 30t-27 11l-129 14v164h649v-164l-137 -16q-23 -5 -28 -11q-5 -7 -5 -28v-387h561v387q0 22 -5 30q-6 10 -28 11l-129 14
v164h648v-164l-138 -16q-22 -4 -27 -11t-5 -28v-1047q0 -24 5 -31q4 -5 27 -10l138 -16v-160h-648z" />
    <glyph glyph-name="I" unicode="I" horiz-adv-x="827" 
d="M74 0v160l149 14q23 2 28 10t5 31v1049q0 22 -5 30q-6 10 -28 11l-149 14v164h688v-164l-158 -16q-22 -4 -27 -11q-6 -8 -6 -28v-1047q0 -23 6 -31q4 -5 27 -10l158 -16v-160h-688z" />
    <glyph glyph-name="J" unicode="J" horiz-adv-x="1056" 
d="M526 1266q0 22 -6 29q-7 9 -26 10l-185 14v164h705v-164l-137 -16q-23 -5 -28 -10t-5 -27v-932q0 -183 -91 -271t-296 -88q-57 0 -121 8q-73 9 -112 18q-58 13 -91 26q-45 17 -61 28v365l229 -17l21 -147q2 -21 22 -27q6 -3 33 -8q20 -4 49 -4q58 0 79 27t21 92v930z" />
    <glyph glyph-name="K" unicode="K" horiz-adv-x="1540" 
d="M1069 0l-383 592l-129 -154v-219q0 -24 5 -31q4 -5 28 -10l158 -16v-162h-670v162l129 14q22 1 27 10q6 10 6 31v1049q0 19 -6 29q-4 7 -27 12l-129 14v162h649v-162l-137 -16q-23 -5 -28 -11q-5 -7 -5 -28v-512l483 549l-127 16v164h537v-164l-86 -14q-28 -5 -39 -12
q-12 -8 -25 -23l-376 -426l411 -629q15 -21 25 -25q6 -3 35 -8l127 -20v-162h-453z" />
    <glyph glyph-name="L" unicode="L" horiz-adv-x="1277" 
d="M78 0v162l129 14q23 5 27 11q6 10 6 30v1049q0 20 -6 30t-27 11l-129 14v162h682v-162l-170 -16q-23 -2 -28 -10t-5 -29v-1047h365q16 0 22 3q5 3 10 20l33 204h225v-446h-1134z" />
    <glyph glyph-name="M" unicode="M" horiz-adv-x="1970" 
d="M1225 0v160l168 14q23 5 27 11q5 8 5 30v778h-8l-293 -698h-333l-289 700h-10v-778q0 -24 5 -31q4 -5 27 -10l176 -16v-160h-622v160l129 14q23 5 27 11q6 10 6 30v1051q0 19 -6 29q-4 7 -27 12l-129 14v162h549l356 -928h8l375 928h532v-160l-137 -16q-22 -4 -27 -11
t-5 -28v-1053q0 -21 6 -28q5 -7 26 -11l137 -16v-160h-673z" />
    <glyph glyph-name="N" unicode="N" horiz-adv-x="1693" 
d="M1130 0l-653 1069v-852q0 -24 5 -31q4 -5 28 -10l137 -16v-160h-569v160l129 14q23 5 27 11q6 10 6 30v1053q0 20 -6 30t-27 11l-129 14v160h508l643 -1071v852q0 22 -5 30q-6 10 -28 11l-129 14v164h569v-164l-137 -16q-23 -5 -28 -11q-5 -7 -5 -28v-1264h-336z" />
    <glyph glyph-name="O" unicode="O" horiz-adv-x="1554" 
d="M1491 764q0 -179 -44 -326q-43 -145 -134 -249q-88 -102 -227 -158q-138 -56 -318 -56q-186 0 -319 57q-138 59 -220 157q-86 103 -126 242t-40 306q0 162 47 305q47 142 138 245q90 102 229 163q134 59 320 59q184 0 313 -58q131 -59 216 -160t125 -237q40 -135 40 -290
zM391 743q0 -132 28 -235q26 -96 79 -161q50 -62 123 -91t159 -29q84 0 157 28q71 27 122 90q53 65 79 161q27 99 27 239q0 267 -99 387q-98 119 -273 119q-91 0 -162 -29q-75 -31 -127 -93q-54 -64 -83 -157q-30 -94 -30 -229z" />
    <glyph glyph-name="P" unicode="P" horiz-adv-x="1323" 
d="M78 0v162l129 14q23 5 27 11q6 10 6 30v1047q0 20 -6 30t-27 11l-129 14v164h694q141 0 237 -35q95 -35 152 -95t81 -140q24 -79 24 -166q0 -135 -39 -229t-112 -155q-75 -63 -177 -89q-105 -27 -233 -27h-150v-328q0 -24 5 -31q4 -5 28 -10l293 -16v-162h-803zM657 766
q49 0 102 8q48 7 91 36q40 27 66 80q26 54 26 138q0 74 -21 119t-58 71q-36 26 -84 33q-58 9 -103 9h-121v-494h102z" />
    <glyph glyph-name="Q" unicode="Q" horiz-adv-x="1552" 
d="M1241 -356q-66 -36 -137 -55q-77 -21 -154 -21q-94 0 -154 23q-62 23 -100 65q-36 39 -53 96q-16 54 -16 121q0 55 6 111q-152 18 -260 81q-110 64 -179 161q-70 99 -105 230q-34 129 -34 281q0 166 46 305q46 140 139 245q90 102 229 163q134 59 319 59q184 0 315 -58
q133 -59 216 -160q84 -102 124 -237t40 -290q0 -158 -35 -293q-34 -131 -106 -232t-177 -163q-108 -64 -247 -86q-5 -20 -5 -36v-34q0 -60 26 -94q25 -33 95 -33q69 0 148 31zM383 743q0 -132 28 -235q27 -97 78 -161q50 -62 124 -91q73 -29 161 -29q84 0 157 28
q72 28 121 90q50 64 78 161q29 101 29 239q0 268 -100 387t-273 119q-90 0 -162 -29q-76 -30 -128 -93q-54 -64 -83 -157q-30 -94 -30 -229z" />
    <glyph glyph-name="R" unicode="R" horiz-adv-x="1406" 
d="M956 0l-184 514q-18 53 -43 73q-23 19 -78 19h-96v-385q0 -24 5 -31q4 -5 28 -10l143 -16v-164h-653v164l129 14q22 1 27 10q6 10 6 31v1047q0 19 -6 29q-4 7 -27 12l-129 14v162h698q141 0 231 -34q91 -34 146 -91t78 -131q22 -72 22 -154q0 -159 -74 -249
q-75 -92 -196 -144q46 -23 70 -60q26 -40 49 -104l112 -293q11 -22 26 -28q16 -7 36 -11l127 -20v-164h-447zM649 819q53 0 106 8q48 7 89 34q38 25 61 72q23 48 23 122q0 118 -67 162q-65 43 -204 43h-102v-441h94z" />
    <glyph glyph-name="S" unicode="S" horiz-adv-x="1214" 
d="M858 1049l-24 165q-4 18 -10 27q-4 7 -15 12q-34 11 -61 16q-35 7 -89 7q-116 0 -173 -48q-56 -47 -56 -126q0 -49 25 -85q24 -34 64 -58q33 -20 94 -40q36 -12 112 -36q65 -20 146 -52q75 -30 133 -76t96 -123q37 -74 37 -190q0 -126 -46 -214t-124 -145
q-76 -56 -184 -82q-107 -26 -222 -26q-55 0 -140 9q-66 7 -134 20q-66 13 -115 27q-61 18 -80 28v400h230l40 -195q4 -14 10 -25q5 -8 25 -12q4 -1 66 -13q47 -9 106 -9q126 0 192 48t66 142q0 50 -20 83q-21 34 -55 58q-30 21 -81 39q-36 13 -98 31q-30 9 -85.5 26
t-69.5 21q-78 24 -147 72q-65 46 -108 124q-42 77 -42 200q0 118 42 205q42 86 116 144q73 57 174 84t217 27q137 0 241 -26q110 -27 179 -56v-399z" />
    <glyph glyph-name="T" unicode="T" horiz-adv-x="1421" 
d="M309 0v162l211 14q23 2 28 10t5 31v1043h-211q-15 0 -23 -4q-6 -3 -10 -19l-33 -178h-225v424h1319v-424h-223l-33 178q-4 16 -10 19q-8 4 -23 4h-211v-1043q0 -20 6 -30q4 -7 27 -9l225 -16v-162h-819z" />
    <glyph glyph-name="U" unicode="U" horiz-adv-x="1607" 
d="M1112 1266q0 22 -5 30q-6 10 -28 11l-129 14v162h606v-162l-137 -16q-22 -4 -27 -11q-6 -8 -6 -28v-736q0 -146 -40 -250q-41 -107 -116 -174q-75 -68 -183 -99q-110 -32 -244 -32q-305 0 -444 139q-138 138 -138 425v727q0 22 -5 30q-6 10 -28 11l-127 14v162h648v-162
l-138 -16q-22 -4 -27 -11t-5 -28v-670q0 -88 12 -156q11 -64 43 -113q29 -45 84 -70q52 -24 137 -24q165 0 231 81t66 274v678z" />
    <glyph glyph-name="V" unicode="V" horiz-adv-x="1505" 
d="M563 0l-411 1266q-6 17 -19 24q-9 4 -31 10l-92 23l21 160h620v-160l-166 -18l308 -1024h16l297 1024l-164 18l21 160h530v-160l-86 -23q-18 -4 -33 -12q-13 -7 -18 -26l-375 -1262h-418z" />
    <glyph glyph-name="W" unicode="W" horiz-adv-x="2136" 
d="M1274 0l-201 750h-12l-189 -750h-401l-309 1264q-4 20 -16 26q-11 6 -29 10l-105 23l21 160h626v-160l-172 -20l209 -1002h17l235 907h312l233 -913h16l211 1008l-172 20l21 160h553v-160l-97 -23q-20 -4 -30 -10q-11 -7 -17 -26l-290 -1264h-414z" />
    <glyph glyph-name="X" unicode="X" horiz-adv-x="1583" 
d="M877 0v160l161 18l-278 375l-277 -375l158 -18v-160h-586v160l119 22q34 7 53 39l389 504l-409 541q-16 27 -49 34l-107 23l21 160h641v-160l-160 -18l266 -373l279 373l-158 18l21 160h540v-160l-100 -23q-19 -5 -30 -13q-10 -7 -21 -25l-383 -496l419 -545q4 -5 23 -24
q10 -10 29 -15l110 -22v-160h-671z" />
    <glyph glyph-name="Y" unicode="Y" horiz-adv-x="1384" 
d="M317 0v162l205 14q23 2 28 10t5 31v336l-408 713q-11 17 -20 22q-10 6 -29 12l-92 23l21 160h614v-160l-160 -18l248 -484h16l248 484l-157 18l20 160h522v-160l-86 -23q-16 -4 -29 -13q-15 -10 -22 -25l-371 -705v-340q0 -20 6 -30q4 -7 27 -9l217 -16v-162h-803z" />
    <glyph glyph-name="Z" unicode="Z" horiz-adv-x="1376" 
d="M104 0v199l766 1063h-454q-15 0 -23 -4q-6 -3 -10 -19l-39 -192l-221 -7v443h1124v-207l-755 -1057h499q17 0 23 3q5 3 10 20l39 219h221v-461h-1180z" />
    <glyph glyph-name="bracketleft" unicode="[" horiz-adv-x="630" 
d="M98 -293v1776h459v-156l-127 -22q-20 -4 -27 -13q-6 -8 -6 -28v-1336q0 -22 6 -30q7 -9 27 -13l127 -22v-156h-459z" />
    <glyph glyph-name="backslash" unicode="\" horiz-adv-x="921" 
d="M614 -188l-573 1734h281l575 -1734h-283z" />
    <glyph glyph-name="bracketright" unicode="]" horiz-adv-x="630" 
d="M68 -293v156l133 22q19 4 26 13q6 8 6 30v1295q0 32 -4 53q-5 25 -28 29l-133 22v156h464v-1776h-464z" />
    <glyph glyph-name="asciicircum" unicode="^" horiz-adv-x="1247" 
d="M891 612l-273 492l-266 -492h-291l404 748h313l408 -748h-295z" />
    <glyph glyph-name="underscore" unicode="_" horiz-adv-x="1024" 
d="M0 -371v219h1024v-219h-1024z" />
    <glyph glyph-name="grave" unicode="`" horiz-adv-x="1024" 
d="M645 1149l-364 299l168 160l313 -357z" />
    <glyph glyph-name="a" unicode="a" horiz-adv-x="1159" 
d="M709 119q-56 -59 -137 -102q-80 -42 -201 -42q-96 0 -156 30q-58 29 -92 75q-31 43 -44 98q-11 48 -11 101q0 154 98 225q97 71 285 92q64 7 116 8l119 4v111q0 36 -3 66q-3 33 -17 52q-14 20 -42 32q-27 12 -75 12q-74 0 -112 -23t-38 -113l-288 23q0 104 42 167t107 97
t143 46t148 12q117 0 200 -18q85 -19 135 -60q53 -44 77 -115q24 -72 24 -180v-451q0 -90 72 -90q11 0 33 2q11 1 38 10l23 -174q-23 -10 -83 -25q-50 -12 -120 -12q-109 0 -163 45q-50 42 -66 97h-12zM686 432q-67 0 -139 -6q-90 -7 -127 -36q-35 -27 -35 -83q0 -54 34 -78
q35 -24 87 -24q55 0 99 20q47 21 81 54v153z" />
    <glyph glyph-name="b" unicode="b" horiz-adv-x="1247" 
d="M127 0q3 20 6.5 44t7.5 54t6 48q11 80 11 153v999q0 36 -27 43l-113 39l23 166h422v-567l8 -2q69 55 140 82q74 28 169 28q85 0 156 -28q73 -29 125 -91q55 -66 84 -162q31 -102 31 -243q0 -156 -32 -269q-31 -111 -89 -182q-58 -72 -136 -104q-79 -33 -174 -33
q-100 0 -178 38q-75 37 -123 91l-10 -2l-14 -102h-293zM465 295q31 -30 85 -56q50 -24 103 -24q103 0 151 89t48 243q0 62 -10 113q-11 56 -33 96q-23 42 -58 65q-38 25 -87 25q-57 0 -109 -24q-53 -24 -90 -48v-479z" />
    <glyph glyph-name="c" unicode="c" horiz-adv-x="1044" 
d="M981 76q-72 -44 -174 -72q-104 -29 -215 -29q-138 0 -241 41q-98 39 -167 114q-65 71 -97 172t-32 216q0 143 42 251q41 106 116 178t177 106t226 34q121 0 220 -27q93 -25 145 -59v-321l-219 10l-25 135q-2 11 -6 20t-18 13q-14 5 -46 10q-24 4 -59 4q-46 0 -87 -16
q-43 -17 -72 -55q-33 -43 -50 -101q-18 -62 -18 -151q0 -103 20 -166q21 -64 57 -104q37 -40 84 -56t103 -16q79 0 143 19q71 21 113 40z" />
    <glyph glyph-name="d" unicode="d" horiz-adv-x="1251" 
d="M840 0l-21 115l-14 2q-69 -66 -145 -103q-80 -39 -191 -39q-91 0 -164 30q-75 30 -126 95q-53 67 -80 169q-27 103 -27 251q0 154 36 262q36 109 96 176q62 70 138 99q78 30 164 30q91 0 160 -27q68 -26 129 -71v311q0 34 -27 41l-113 39l23 166h412v-1331q0 -22 5 -29
q4 -5 27 -10l99 -14v-162h-381zM782 788q-40 27 -85 45q-44 17 -91 17q-55 0 -97 -25q-40 -24 -66 -68q-23 -39 -36 -104q-12 -60 -12 -127q0 -149 44 -229t143 -80q54 0 106 27q57 29 94 61v483z" />
    <glyph glyph-name="e" unicode="e" horiz-adv-x="1075" 
d="M1026 145q-86 -92 -210 -131t-251 -39q-141 0 -240 44q-95 43 -157 118q-59 73 -85 171q-26 99 -26 204q0 146 41 257q40 107 114 180q74 72 174 106q103 35 224 35q183 0 291 -90q107 -89 107 -246q0 -105 -43 -169q-44 -66 -123 -100t-196 -45q-110 -10 -261 -10
q5 -42 16 -78t37 -67q24 -28 66 -47q43 -19 102 -19q80 0 147 32q63 30 132 85zM594 868q-42 0 -75 -11q-34 -11 -65 -39q-30 -27 -50 -72q-19 -42 -25 -111q102 0 171 3q67 3 108 15q40 12 57 36q16 23 16 63q0 57 -38 87q-36 29 -99 29z" />
    <glyph glyph-name="f" unicode="f" horiz-adv-x="894" 
d="M55 0v164l115 12q24 5 28 12q5 8 5 31v623q0 9 -2 15q-2 5 -15 5h-137v205h154v113q0 209 112 300t326 91q78 0 138 -11q69 -13 117 -43q51 -32 81 -91q31 -60 31 -150l-287 -35q2 78 -21 104q-22 25 -73 25q-79 0 -97 -40t-18 -113v-130q0 -9 2 -15q2 -5 14 -5h324v-205
h-340v-637q0 -24 7 -31q9 -9 30 -10l250 -22v-162h-744z" />
    <glyph glyph-name="g" unicode="g" horiz-adv-x="1165" 
d="M950 879q26 -32 52 -85q24 -50 24 -122q0 -86 -32 -153q-31 -65 -89 -112t-138 -71q-84 -25 -177 -25q-44 0 -91 5q-30 3 -71 14l-68 -109l201 -12q110 -6 238 -19q110 -11 177 -39q72 -30 110 -88t38 -159q0 -180 -147 -274q-148 -95 -416 -95q-277 0 -395 68
q-117 67 -117 188q0 71 30 114q30 44 83 95q-52 23 -71 58t-19 77q0 36 15 66t44 59q9 9 29 28.5t30 29.5q30 31 68 65q-77 38 -126 115q-50 79 -50 192q0 176 117 287q116 110 352 110q61 0 109 -5q45 -5 79 -15h400v-174zM563 526q86 0 139 47q54 48 54 127q0 93 -49 139
t-138 46q-85 0 -141 -44q-55 -43 -55 -145q0 -76 44 -123t146 -47zM344 -55q-19 -22 -37 -51q-16 -26 -16 -58q0 -62 69 -84q67 -22 179 -22q45 0 94 3t91 15t69 36q26 23 26 64q0 49 -51 61q-42 10 -125 15z" />
    <glyph glyph-name="h" unicode="h" horiz-adv-x="1277" 
d="M809 0v668q0 13 -2 53q-2 31 -13 57q-12 27 -33 45q-22 19 -61 19q-56 0 -115 -24q-61 -25 -98 -52v-549q0 -23 6 -31q4 -5 27 -10l98 -14v-162h-565v162l92 14q24 5 28 11q5 8 5 30v1081q0 36 -26 43l-113 39l22 166h422v-579l11 -2q68 57 149 90q77 32 178 32
q165 0 231 -86t66 -245v-539q0 -24 5 -31q4 -5 28 -10l102 -14v-162h-444z" />
    <glyph glyph-name="i" unicode="i" horiz-adv-x="647" 
d="M172 1237v418h274v-418h-274zM41 0v164l104 12q24 5 28 11q5 8 5 30v602q0 36 -26 43l-111 39l22 166h424v-850q0 -23 6 -31q4 -5 27 -10l105 -14v-162h-584z" />
    <glyph glyph-name="j" unicode="j" horiz-adv-x="632" 
d="M172 1237v418h274v-418h-274zM127 -457q-63 0 -119 12q-65 14 -99 27q-49 19 -76 34q-34 20 -48 32l88 170q25 -17 74 -35q52 -19 104 -19q63 0 93 36t30 143v876q0 35 -27 43l-116 39l24 166h428v-1176q0 -186 -91 -267t-265 -81z" />
    <glyph glyph-name="k" unicode="k" horiz-adv-x="1290" 
d="M43 0v164l102 12q24 5 28 11q5 8 5 30v1083q0 33 -26 43l-113 39l22 164h426v-581q71 58 164 92q90 33 191 33q153 0 238 -85t85 -217q0 -47 -7 -90q-8 -49 -31 -91q-26 -48 -65 -85q-41 -40 -114 -73l58 -115q33 -66 65 -98q33 -34 80 -35q37 0 88 18l39 -194
q-33 -20 -87 -34t-112 -14q-68 0 -124 16q-50 14 -92 44q-36 26 -69 73q-29 42 -57 101l-75 164l-91 -8q-61 -6 -84 -7v-143q0 -23 6 -31q4 -5 27 -10l94 -14v-162h-571zM723 850q-55 0 -113 -26q-57 -26 -123 -72v-170q120 0 189 15q68 15 106 39q36 23 48 52t12 55
q0 49 -32 78t-87 29z" />
    <glyph glyph-name="l" unicode="l" horiz-adv-x="647" 
d="M43 0v162l102 14q24 5 28 11q5 8 5 30v1081q0 36 -26 43l-113 39l22 166h426v-1329q0 -23 6 -31q4 -5 27 -10l101 -14v-162h-578z" />
    <glyph glyph-name="m" unicode="m" horiz-adv-x="1820" 
d="M1350 0v662q0 31 -3 61q-3 31 -15 56q-12 26 -34 42q-23 17 -63 17q-81 0 -166 -56q6 -50 6 -100v-465q0 -26 5 -33q4 -5 28 -10l82 -12v-162h-424v672q0 18 -2 58q-2 30 -13 53q-12 24 -33 39q-22 16 -61 16q-45 0 -93 -20t-77 -46v-555q0 -26 6 -32q5 -5 27 -9l101 -14
v-162h-568v162l92 14q24 5 28 11q5 8 5 30v602q0 36 -26 43l-111 39l22 166h361l16 -106l11 -3q71 59 149 94q77 35 178 35q77 0 142 -25q64 -25 108 -97q55 44 136 82q84 40 194 40q166 0 233 -82q68 -83 68 -264v-524q0 -24 5 -32q4 -6 28 -11l102 -12v-162h-444z" />
    <glyph glyph-name="n" unicode="n" horiz-adv-x="1277" 
d="M809 0v662q0 25 -2 69q-2 34 -13 57q-12 24 -33 39t-61 15q-55 0 -118 -26q-61 -25 -95 -50v-549q0 -23 6 -31q4 -5 27 -10l98 -14v-162h-565v164l92 12q24 5 28 11q5 8 5 30v602q0 36 -26 43l-111 39l25 166h358l16 -106l9 -5q80 59 166 95q85 36 194 36q168 0 239 -89
q70 -88 70 -259v-522q0 -24 5 -31q4 -5 28 -10l102 -14v-162h-444z" />
    <glyph glyph-name="o" unicode="o" horiz-adv-x="1189" 
d="M1135 549q0 -134 -34 -237q-35 -105 -102 -180q-68 -76 -172 -116q-106 -41 -245 -41q-141 0 -241 41q-99 40 -163 114q-63 72 -93 174t-30 222q0 129 34 231q35 106 102 177q69 73 173 114q100 39 244 39q145 0 242 -39q102 -41 164 -112q64 -73 92 -171
q29 -101 29 -216zM379 537q0 -189 56 -267q57 -80 161 -80q101 0 158 78t57 271q0 182 -53 255q-52 72 -154 72q-100 0 -163 -72q-62 -71 -62 -257z" />
    <glyph glyph-name="p" unicode="p" horiz-adv-x="1259" 
d="M51 -434v164l82 12q23 4 30 12q7 7 7 31v1034q0 35 -27 43l-108 39l22 166h361l18 -104l10 -5q74 61 167 95q92 34 182 34q87 0 158 -28q73 -29 125 -91q52 -63 81 -162q29 -101 29 -243q0 -86 -19 -195q-18 -103 -65 -191q-46 -87 -129 -144q-84 -58 -209 -58
q-164 0 -293 105v-293q0 -24 5 -32q4 -7 28 -9l213 -18v-162h-668zM477 293q35 -29 85 -53q52 -25 108 -25q104 0 149 90t45 242q0 159 -48 228t-126 69q-64 0 -122 -26q-55 -25 -91 -48v-477z" />
    <glyph glyph-name="q" unicode="q" horiz-adv-x="1220" 
d="M596 -434v164l176 14q26 2 33 9q8 8 8 28v321l-10 4q-64 -55 -137 -92q-76 -39 -187 -39q-90 0 -165 30q-76 30 -129 94q-54 64 -84 167q-29 99 -29 246q0 159 37 267q38 111 98 178q63 71 140 100q79 30 163 30q95 0 165 -32q72 -33 132 -84l31 96h268q-10 -80 -13 -170
q-3 -84 -3 -162v-954q0 -22 5 -29q4 -5 27 -10l97 -14v-162h-623zM780 784q-36 25 -86 46q-48 20 -94 20q-53 0 -94 -25q-39 -24 -65 -68q-25 -42 -37 -104q-11 -55 -11 -127q0 -149 44 -229t149 -80q51 0 103 25q50 24 91 59v483z" />
    <glyph glyph-name="r" unicode="r" horiz-adv-x="968" 
d="M53 0v166l92 12q24 5 28 11q5 8 5 30v600q0 36 -26 43l-111 39l22 166h361l25 -164h12q51 77 121 131q70 53 168 53q27 0 43 -1q34 -2 50 -4q25 -3 48 -6q25 -3 37 -7v-373l-246 9l-20 108q-5 23 -27 23q-40 0 -83 -26q-45 -27 -65 -46v-543q0 -22 6 -32q5 -7 27 -9
l203 -16v-164h-670z" />
    <glyph glyph-name="s" unicode="s" horiz-adv-x="997" 
d="M692 745l-20 107q-2 24 -21 29q-25 7 -55 11q-38 5 -76 5q-77 0 -119 -28q-41 -27 -41 -76q0 -30 20 -52q17 -18 52 -34q31 -14 76 -25q17 -4 48.5 -11t41.5 -9q68 -17 123 -34q60 -19 110 -57q51 -39 80 -95q31 -60 31 -148q0 -95 -36 -161q-37 -68 -98 -110t-146 -62
q-86 -20 -183 -20q-57 0 -136 9q-72 8 -122 19q-58 13 -94 25t-53 21v297l219 -16l20 -117q1 -14 6 -20q5 -7 19 -11q15 -5 58 -13q38 -7 100 -7q82 0 126 24t44 82q0 62 -55 86q-54 24 -132 39q-23 4 -134 28q-71 15 -129 51t-96 96q-38 61 -38 161q0 96 38 164t100 111
q60 41 145 63q79 20 170 20q61 0 119 -6q61 -6 109 -15q57 -10 89 -19q24 -6 59 -19v-297z" />
    <glyph glyph-name="t" unicode="t" horiz-adv-x="892" 
d="M846 57q-66 -33 -156 -57q-94 -25 -178 -25q-184 0 -260 78q-76 77 -76 252v537q0 9 -2 15q-2 5 -14 5h-144v182q135 17 197 92t78 242h194v-291q0 -9 2 -15q2 -5 15 -5h289v-205h-306v-489q0 -91 28 -130q27 -38 112 -38q43 0 86 9q41 9 80 24z" />
    <glyph glyph-name="u" unicode="u" horiz-adv-x="1275" 
d="M860 0l-16 111l-10 2q-28 -22 -68 -48q-38 -24 -81 -45q-39 -19 -97 -32q-57 -13 -119 -13q-161 0 -229 91t-68 270v500q0 23 -5 31q-4 7 -28 12l-98 20l20 168h420v-678q0 -92 22 -133q21 -39 87 -39t122 31q55 31 89 63v527q0 23 -5 30q-5 6 -28 11l-88 20l22 168h408
v-850q0 -22 4 -29q5 -9 25 -10l102 -14v-164h-381z" />
    <glyph glyph-name="v" unicode="v" horiz-adv-x="1275" 
d="M461 0l-326 848q-7 17 -16 24q-8 6 -27 11l-86 18l33 166h555v-166l-131 -16l209 -584h14l217 584l-133 16l27 166h473v-166l-74 -12q-21 -5 -32 -10t-19 -25l-326 -854h-358z" />
    <glyph glyph-name="w" unicode="w" horiz-adv-x="1800" 
d="M1096 0l-160 686h-12l-162 -686h-369l-258 848q-6 18 -15 24q-10 6 -28 11l-86 18l33 166h518v-170l-115 -12l164 -576h15l182 731h309l176 -731h12l154 576l-117 12l27 170h430v-166l-74 -14q-38 -6 -49 -41l-252 -846h-323z" />
    <glyph glyph-name="x" unicode="x" horiz-adv-x="1234" 
d="M633 0v160l96 18l-156 205l-170 -203l115 -18v-162h-491v160l92 18q19 5 28 11t25 24l270 299l-278 332q-12 13 -23 22q-9 7 -26 13l-82 22l20 166h545v-166l-100 -16l151 -191l168 191l-112 16l20 166h453v-166l-95 -20q-18 -6 -26 -16q-1 -1 -25 -23l-250 -277
l287 -350q20 -20 26 -25q9 -8 27 -12l92 -16v-162h-581z" />
    <glyph glyph-name="y" unicode="y" horiz-adv-x="1267" 
d="M225 -434v166l160 18q20 1 31 12q9 9 20 33l88 195l-391 856q-6 18 -15 24q-10 6 -28 11l-84 20l33 166h543v-166l-129 -16l227 -541h14l217 541l-133 16l27 166h457v-166l-66 -12q-22 -5 -31 -10q-12 -6 -20 -25l-451 -1102l213 -22v-164h-682z" />
    <glyph glyph-name="z" unicode="z" horiz-adv-x="1058" 
d="M72 0v172l549 702h-287q-15 0 -18 -8q-4 -9 -5 -18l-24 -115l-217 -12v346h899v-176l-539 -701h301q14 0 18 9t5 18l24 141l223 11v-369h-929z" />
    <glyph glyph-name="braceleft" unicode="{" horiz-adv-x="677" 
d="M590 -305q-124 2 -205 16q-86 15 -136 47q-52 33 -76 87q-23 52 -23 135q0 92 14 177t14 201q0 88 -36 118q-35 30 -107 34v162q72 4 107 34q36 30 36 117q0 118 -14 203t-14 178q0 82 23 134q24 54 76 87q53 33 136 48q81 14 205 16l20 -164q-78 -18 -112 -44
q-33 -25 -33 -103q0 -83 16 -170q17 -93 17 -185q0 -103 -35 -156t-94 -77q58 -23 94 -76q35 -52 35 -156q0 -91 -17 -182q-16 -86 -16 -170q0 -78 33 -103q34 -26 112 -44z" />
    <glyph glyph-name="bar" unicode="|" horiz-adv-x="573" 
d="M145 -293v1839h281v-1839h-281z" />
    <glyph glyph-name="braceright" unicode="}" horiz-adv-x="677" 
d="M68 -141q78 18 112 44q33 26 33 103q0 84 -16 170q-17 91 -17 182q0 104 35 156q36 53 94 76q-59 24 -94 77t-35 156q0 92 17 185q16 87 16 170q0 78 -33 103q-34 26 -112 44l20 164q124 -2 205 -16q83 -15 136 -48q52 -33 76 -87q23 -52 23 -134q0 -93 -14 -178
t-14 -203q0 -87 36 -117q35 -30 107 -34v-162q-72 -4 -107 -34q-36 -30 -36 -118q0 -116 14 -201t14 -177q0 -83 -23 -135q-24 -54 -76 -87q-50 -32 -136 -47q-81 -14 -205 -16z" />
    <glyph glyph-name="asciitilde" unicode="~" horiz-adv-x="1073" 
d="M1028 883q-24 -146 -79 -218q-54 -71 -152 -71q-60 0 -117 14q-59 14 -121 33q-65 19 -115 33q-52 14 -100 14q-50 0 -81 -19t-64 -79l-152 74q29 112 97 193q66 79 167 79q64 0 117 -14q63 -17 115 -33t110 -33q49 -14 103 -14q46 0 69 21q21 20 43 79z" />
    <glyph glyph-name="uni00A0" unicode="&#xa0;" horiz-adv-x="413" 
 />
    <glyph glyph-name="exclamdown" unicode="&#xa1;" horiz-adv-x="569" 
d="M438 1067v-285h-309v285h309zM414 666l37 -719v-363h-330v363l35 719h258z" />
    <glyph glyph-name="cent" unicode="&#xa2;" horiz-adv-x="1060" 
d="M459 80q-86 17 -153 52q-68 36 -118 96q-47 56 -75 148q-27 87 -27 206q0 212 102 343t285 165v217h258v-209q148 -18 260 -80v-307l-211 10l-20 121q-5 18 -8 23q-5 8 -19 12q-14 5 -43 10q-24 4 -59 4q-99 0 -156 -69t-57 -228q0 -166 51 -241q50 -74 162 -74
q35 0 62 4q35 5 44 8q14 5 15 9q0 1 1 4t2.5 8.5t2.5 9.5l24 129l211 8v-307q-60 -36 -128 -55t-150 -25v-209h-256v217z" />
    <glyph glyph-name="sterling" unicode="&#xa3;" horiz-adv-x="1153" 
d="M92 0l-33 184q48 29 76 56q29 28 45 66q18 44 22 98q5 65 5 151v16h-144v226h144v84q0 91 19 171q19 82 74 147q54 65 149 104q92 38 241 38q76 0 150 -12q75 -12 132 -49q59 -38 94 -102q36 -66 36 -174l-281 -37q0 71 -24 112t-103 41q-86 0 -133 -47t-47 -158v-118
h299v-226h-299q0 -119 -24 -209t-97 -163h428q17 0 20 7q4 10 5 17l33 162h217v-385h-1004z" />
    <glyph glyph-name="currency" unicode="&#xa4;" 
d="M989 -6l-178 176q-51 -28 -111 -45q-58 -16 -129 -16q-150 0 -249 59l-175 -174l-163 164l180 182q-28 52 -39 110q-10 54 -10 121q0 120 53 215q-5 5 -19 19.5t-23 23.5q-7 7 -15 15.5t-18 19t-15 16.5q-16 17 -48 49q-18 18 -40 38l168 170l168 -170q52 34 115 52
q59 17 143 17q80 0 138 -16q64 -18 114 -49l163 164l162 -166l-172 -172q18 -39 35 -105q14 -53 14 -112q0 -61 -15 -124q-15 -62 -44 -116l180 -180zM371 571q0 -101 49 -171t160 -70q100 0 152 70t52 171q0 113 -52 175q-52 63 -157 63q-104 0 -154 -67t-50 -171z" />
    <glyph glyph-name="yen" unicode="&#xa5;" horiz-adv-x="1239" 
d="M784 440v-223q0 -20 6 -30q4 -7 27 -9l217 -16v-162h-803v162l205 14q25 5 29 21q4 15 4 43v200h-254v240h197l-281 405q-11 18 -20 24q-8 6 -29 11l-92 23l20 160h584v-160l-133 -19l196 -317h13l207 317l-140 19l21 160h491v-160l-86 -23q-29 -7 -51 -39l-272 -401h209
v-240h-265z" />
    <glyph glyph-name="brokenbar" unicode="&#xa6;" horiz-adv-x="573" 
d="M145 836v710h281v-710h-281zM145 -293v795h281v-795h-281z" />
    <glyph glyph-name="section" unicode="&#xa7;" horiz-adv-x="1165" 
d="M139 74l219 -17l21 -118q2 -11 6 -17q5 -7 18 -12q22 -9 58 -16q47 -9 96 -9q77 0 120 26q42 25 42 85q0 54 -43 79q-44 26 -109 42q-40 10 -140 34q-78 19 -140 51q-66 35 -109 92q-43 58 -43 161q0 96 45 165q44 68 105 115q-49 40 -75 91q-28 56 -28 135q0 85 35 149
t94 104q62 42 139 62q76 20 166 20q61 0 121 -6q59 -6 109 -15q42 -8 88 -20q41 -11 59 -20v-297l-219 12l-20 115q-1 8 -5 16q-3 7 -18 11q-28 9 -52 13q-33 5 -77 5q-75 0 -116 -32q-40 -31 -40 -81q0 -47 43 -72q42 -25 109 -43q47 -13 140 -37q77 -20 141 -55t108 -96
q43 -59 43 -159q0 -99 -45 -168q-47 -72 -94 -105q41 -33 66 -81q26 -49 26 -124q0 -91 -33 -157t-92 -109q-58 -42 -140 -62q-83 -20 -177 -20q-64 0 -134 8q-63 7 -121 20q-66 15 -93 23q-38 12 -54 23v291zM459 651q-37 -24 -55 -56q-19 -34 -19 -71q0 -60 55 -87
q59 -29 133 -50l123 -35q40 23 61 58q21 34 21 75q0 32 -16 52q-14 18 -45 34q-24 12 -66 26q-44 14 -80 24z" />
    <glyph glyph-name="dieresis" unicode="&#xa8;" horiz-adv-x="1024" 
d="M164 1231v418h272v-418h-272zM588 1231v418h272v-418h-272z" />
    <glyph glyph-name="copyright" unicode="&#xa9;" horiz-adv-x="1576" 
d="M793 1309q158 0 284 -46q124 -45 215 -133q89 -86 135 -206q48 -125 48 -271q0 -149 -51 -280q-49 -126 -140 -217t-217 -140t-279 -49q-169 0 -299 50q-128 49 -215 139q-86 89 -129 209t-43 260q0 158 55 288q53 126 147 215q93 88 219 135q125 46 270 46zM268 627
q0 -241 139 -377q138 -135 386 -135q122 0 217 37q98 38 164 104q67 67 103 165t36 220q0 127 -39 224t-108 163q-66 63 -164 99q-93 34 -209 34q-113 0 -209 -36q-99 -37 -166 -104q-70 -70 -110 -168t-40 -226zM1047 295q-43 -25 -107 -37q-66 -12 -127 -12
q-107 0 -177 29q-72 30 -119 83q-45 51 -67 127q-22 77 -22 160q0 86 25 161q25 74 73 125t122 82q70 29 171 29q66 0 128 -13q67 -14 102 -28v-227l-111 8l-16 84l-8 20q-3 7 -13 11q-20 8 -38 11q-19 3 -54 3q-88 0 -143 -59q-56 -61 -56 -211q0 -53 11 -103
q11 -48 34 -85q23 -36 66 -58q39 -20 100 -20q14 0 42 2q20 1 38 8q14 6 19 23l24 104h103v-217z" />
    <glyph glyph-name="ordfeminine" unicode="&#xaa;" horiz-adv-x="813" 
d="M522 575l-12 72l-8 2q-35 -35 -90 -62q-58 -28 -142 -28q-65 0 -108 19q-42 19 -64 48q-21 28 -29 64q-8 37 -8 68q0 104 69 151q71 48 204 58l145 12v72q0 39 -13 65q-14 27 -69 27q-41 0 -63 -16q-21 -15 -21 -68l-225 16q0 69 31 112q29 40 77 65q46 24 101 31
q52 7 106 7q165 0 238 -51q74 -51 74 -192v-316q0 -15 3 -20t19 -6l66 -11v-119h-281zM479 860l-69 -6q-56 -5 -78 -21q-25 -19 -25 -57q0 -31 19 -44q16 -11 49 -11q34 0 58 10t46 27v102z" />
    <glyph glyph-name="guillemotleft" unicode="&#xab;" horiz-adv-x="966" 
d="M248 211l-176 315l182 310h250l-164 -285q-8 -13 -8 -20t6 -19l156 -301h-246zM639 211l-176 315l182 310h250l-164 -285q-8 -13 -8 -20t6 -19l156 -301h-246z" />
    <glyph glyph-name="logicalnot" unicode="&#xac;" 
d="M739 352v193h-565v239h793v-432h-228z" />
    <glyph glyph-name="uni00AD" unicode="&#xad;" horiz-adv-x="636" 
d="M41 465v260h555v-260h-555z" />
    <glyph glyph-name="registered" unicode="&#xae;" horiz-adv-x="927" 
d="M465 1352q176 0 278 -102q103 -103 103 -267q0 -82 -28 -155q-26 -69 -79 -120q-53 -52 -122 -78q-73 -28 -154 -28q-93 0 -165 29q-71 29 -119 78q-50 51 -73 115q-24 66 -24 145q0 87 30 158q31 73 82 121q54 51 121 77q69 27 150 27zM465 694q131 0 206 76
q74 75 74 207q0 140 -78 211q-79 72 -202 72q-59 0 -111 -20q-53 -20 -90 -56q-39 -38 -60 -91q-22 -57 -22 -122q0 -130 76 -203q77 -74 207 -74zM537 786l-41 109q-6 17 -17 33q-7 10 -26 10h-25v-84q0 -11 10 -12l31 -6v-50h-174v50l29 4q10 1 10 14v252q0 13 -10 14
l-29 4v54h182q85 0 113 -34t28 -77q0 -42 -20 -68q-19 -25 -51 -36q26 -7 39 -39l28 -70q4 -10 17 -12l31 -6v-50h-125zM457 1006q29 0 48 10t19 45q0 29 -18 38t-43 9h-35v-102h29z" />
    <glyph glyph-name="macron" unicode="&#xaf;" horiz-adv-x="1024" 
d="M186 1227v205h650v-205h-650z" />
    <glyph glyph-name="degree" unicode="&#xb0;" horiz-adv-x="618" 
d="M311 1599q99 0 166 -61q68 -62 68 -170q0 -106 -65 -171q-64 -64 -169 -64q-107 0 -172 62t-65 167q0 57 19 99q21 46 51 75q32 31 75 47q42 16 92 16zM213 1362q0 -42 27 -70t71 -28q42 0 68 29q27 30 27 75q0 46 -27 73t-68 27t-69 -28q-29 -29 -29 -78z" />
    <glyph glyph-name="plusminus" unicode="&#xb1;" 
d="M459 279v264h-273v237h273v287h246v-287h274v-237h-274v-264h-246zM186 0v238h793v-238h-793z" />
    <glyph glyph-name="uni00B2" unicode="&#xb2;" horiz-adv-x="811" 
d="M53 717v147l273 314q42 49 70 85q34 43 43 58q17 27 22 44q6 19 6 40q0 31 -18 49q-19 19 -66 19q-44 0 -68 -26q-24 -25 -24 -89l-236 22q0 87 33 141t83 83q47 27 113 38t122 11q169 0 247 -64q76 -63 76 -168q0 -82 -40 -146q-42 -67 -93 -128l-240 -275h189q9 0 11 7
q2 8 5 12l17 98h182v-272h-707z" />
    <glyph glyph-name="uni00B3" unicode="&#xb3;" horiz-adv-x="827" 
d="M584 1194q186 -34 186 -215q0 -67 -29 -119t-79 -87q-50 -36 -121 -54q-73 -19 -150 -19q-115 0 -208 34q-95 35 -150 91l125 152q41 -36 94 -62t119 -26q54 0 90 23q37 24 37 85q0 57 -34 78t-91 21q-12 0 -44 -2q-15 -1 -55 -9v168l62 7q66 7 108 32q41 24 41 97
q0 35 -18 59q-19 25 -66 25q-43 0 -65 -25q-21 -25 -23 -82l-241 23q0 84 30 135t80 80q47 27 111 38t125 11q167 0 248 -58q79 -57 79 -178q0 -81 -45 -140q-45 -58 -116 -79v-4z" />
    <glyph glyph-name="acute" unicode="&#xb4;" horiz-adv-x="1024" 
d="M395 1149l-114 102l313 357l168 -160z" />
    <glyph glyph-name="uni00B5" unicode="&#xb5;" horiz-adv-x="1288" 
d="M856 0l-16 111h-13q-49 -58 -109 -95q-65 -41 -155 -41q-26 0 -58 8q-34 8 -52 17l-7 -8l39 -352h-319v1427h309v-678q0 -16 2 -56q2 -31 13 -54q13 -26 35 -41q25 -17 65 -17q109 0 205 90v756h309v-850q0 -21 5 -29t24 -10l102 -14v-164h-379z" />
    <glyph glyph-name="paragraph" unicode="&#xb6;" horiz-adv-x="1302" 
d="M834 -272v1405h-115v-1405h-371v149l133 17q22 5 26 12q5 8 5 26v406q-228 15 -335 138t-107 335q0 141 45 239q45 97 123 157t183 87t226 27h563v-162l-137 -16q-23 -5 -27 -10q-6 -8 -6 -29v-1172q0 -21 7 -28q6 -6 26 -10l137 -17v-149h-376z" />
    <glyph glyph-name="periodcentered" unicode="&#xb7;" horiz-adv-x="487" 
d="M90 477v332h309v-332h-309z" />
    <glyph glyph-name="cedilla" unicode="&#xb8;" horiz-adv-x="1024" 
d="M293 -379l24 -3q8 -1 27 -1q78 0 110 30q31 30 31 72q0 49 -35 66q-37 19 -100 20l33 256l147 -16l-18 -137q22 -5 58 -19q32 -13 53 -34q19 -19 36 -56q15 -33 15 -75q0 -50 -18 -95q-19 -46 -54 -79t-95 -54q-56 -20 -142 -20q-19 0 -53 2q-20 1 -31 4z" />
    <glyph glyph-name="uni00B9" unicode="&#xb9;" horiz-adv-x="630" 
d="M66 717v131l102 12q14 1 20 6q7 5 7 21v553q0 22 -19 28l-115 25l21 139h387v-745q0 -17 3 -21t20 -6l108 -12v-131h-534z" />
    <glyph glyph-name="ordmasculine" unicode="&#xba;" horiz-adv-x="843" 
d="M811 936q0 -169 -92 -273t-293 -104q-98 0 -169 27q-73 28 -116 74q-45 48 -66 114q-22 69 -22 141q0 175 99 275t290 100q104 0 170 -26q71 -28 114 -74q44 -47 65 -112q20 -61 20 -142zM305 928q0 -119 35 -163t94 -44t93 43t34 166q0 114 -33 157t-90 43
q-59 0 -96 -41t-37 -161z" />
    <glyph glyph-name="guillemotright" unicode="&#xbb;" horiz-adv-x="966" 
d="M80 211l158 295q6 15 6 20q0 6 -8 19l-164 291h250l182 -312l-176 -313h-248zM471 211l158 295q6 15 6 20q0 6 -8 19l-164 291h250l182 -312l-176 -313h-248z" />
    <glyph glyph-name="onequarter" unicode="&#xbc;" horiz-adv-x="2004" 
d="M121 575v132l102 12q15 1 21 6t6 20v553q0 23 -19 29l-114 25l20 139h387v-746q0 -15 3 -20q3 -4 20 -6l108 -12v-132h-534zM471 -35l733 1518h271l-732 -1518h-272zM1528 0v176h-412v166l397 571h263v-561h110v-174h-110v-178h-248zM1528 659h-6l-199 -307h205v307z" />
    <glyph glyph-name="onehalf" unicode="&#xbd;" horiz-adv-x="2009" 
d="M121 575v132l102 12q15 1 21 6t6 20v553q0 23 -19 29l-114 25l20 139h387v-746q0 -15 3 -20q3 -4 20 -6l108 -12v-132h-534zM436 -35l733 1518h271l-731 -1518h-273zM1186 0v147l272 314q54 64 71 85q34 43 43 58q15 24 21 44t6 40q0 31 -18 49q-19 19 -65 19
q-44 0 -68 -26q-25 -27 -25 -89l-235 23q0 86 33 140t83 83t112 39q60 10 122 10q170 0 248 -64q76 -63 76 -167q0 -83 -40 -147q-42 -67 -93 -128l-240 -274h188q11 0 12 6q2 8 5 12l16 98h182v-272h-706z" />
    <glyph glyph-name="threequarters" unicode="&#xbe;" horiz-adv-x="2007" 
d="M635 1053q186 -34 186 -215q0 -69 -28 -119t-80 -87q-50 -36 -121 -54q-73 -19 -150 -19q-114 0 -207 34q-97 35 -151 91l125 152q41 -36 94 -62t119 -26q54 0 90 23q37 24 37 85q0 57 -34 78q-33 20 -91 20q-12 0 -44 -2q-20 -1 -54 -8v168l61 6q66 7 109 33
q41 24 41 96q0 35 -19 60q-18 24 -65 24q-45 0 -66 -24q-20 -23 -22 -82l-242 22q0 82 31 135q31 52 79 80q49 28 111 39q59 10 125 10q168 0 248 -57t80 -178q0 -82 -45 -140t-117 -79v-4zM539 -35l733 1518h270l-731 -1518h-272zM1565 0v176h-412v166l397 571h262v-561
h111v-174h-111v-178h-247zM1565 659h-6l-199 -307h205v307z" />
    <glyph glyph-name="questiondown" unicode="&#xbf;" horiz-adv-x="1067" 
d="M834 1067v-285h-328v285h328zM825 662v-369q-58 -5 -149 -19q-73 -12 -137 -41q-62 -29 -101 -81q-39 -53 -39 -142q0 -104 52 -139t129 -35q46 0 78 6q31 6 61 17q16 6 19 13q2 5 7 30l19 129l248 20v-373q-102 -39 -214 -67q-110 -27 -231 -27q-100 0 -192 20t-158 67
q-67 47 -106 129q-39 81 -39 204q0 200 110 323t334 150v185h309z" />
    <glyph glyph-name="Agrave" unicode="&#xc0;" horiz-adv-x="1581" 
d="M375 1753l104 203l422 -250l-72 -137zM989 391h-502l-71 -213l162 -18v-160h-572v160l90 22q44 11 56 49l356 998l-252 10l16 244h686l385 -1123q28 -85 57 -124q26 -35 73 -35q37 0 88 18l38 -194q-33 -20 -98 -34t-135 -14q-136 0 -205 64q-68 63 -114 190zM760 1178
h-19l-190 -566h381z" />
    <glyph glyph-name="Aacute" unicode="&#xc1;" horiz-adv-x="1581" 
d="M543 1571l-72 135l422 250l104 -203zM989 391h-502l-71 -213l162 -18v-160h-572v160l90 22q44 11 56 49l356 998l-252 10l16 244h686l385 -1123q28 -85 57 -124q26 -35 73 -35q37 0 88 18l38 -194q-33 -20 -98 -34t-135 -14q-136 0 -205 64q-68 63 -114 190zM760 1178
h-19l-190 -566h381z" />
    <glyph glyph-name="Acircumflex" unicode="&#xc2;" horiz-adv-x="1581" 
d="M696 1737l-241 -166l-113 115l248 229h213l248 -229l-113 -115zM989 391h-502l-71 -213l162 -18v-160h-572v160l90 22q44 11 56 49l356 998l-252 10l16 244h686l385 -1123q28 -85 57 -124q26 -35 73 -35q37 0 88 18l38 -194q-33 -20 -98 -34t-135 -14q-136 0 -205 64
q-68 63 -114 190zM760 1178h-19l-190 -566h381z" />
    <glyph glyph-name="Atilde" unicode="&#xc3;" horiz-adv-x="1581" 
d="M1004 1716q-32 -58 -62 -88q-29 -29 -74 -29q-23 0 -63 9q-12 3 -40.5 10t-43.5 10q-2 0 -59 16q-13 3 -34 8.5t-28 7.5q-26 7 -50 12q-23 5 -30 5q-16 0 -33 -16l-67 -64l-113 72l62 105q27 47 61 75q33 27 74 27q43 0 129 -25q21 -6 113 -29q77 -19 90 -22q22 -6 32 8
l60 64l121 -74zM989 391h-502l-71 -213l162 -18v-160h-572v160l90 22q44 11 56 49l356 998l-252 10l16 244h686l385 -1123q28 -85 57 -124q26 -35 73 -35q37 0 88 18l38 -194q-33 -20 -98 -34t-135 -14q-136 0 -205 64q-68 63 -114 190zM760 1178h-19l-190 -566h381z" />
    <glyph glyph-name="Adieresis" unicode="&#xc4;" horiz-adv-x="1581" 
d="M752 1597v361h274v-361h-274zM330 1597v361h274v-361h-274zM989 391h-502l-71 -213l162 -18v-160h-572v160l90 22q44 11 56 49l356 998l-252 10l16 244h686l385 -1123q28 -85 57 -124q26 -35 73 -35q37 0 88 18l38 -194q-33 -20 -98 -34t-135 -14q-136 0 -205 64
q-68 63 -114 190zM760 1178h-19l-190 -566h381z" />
    <glyph glyph-name="Aring" unicode="&#xc5;" horiz-adv-x="1581" 
d="M733 1933q89 0 152 -54t63 -146q0 -94 -61 -151q-60 -56 -154 -56q-97 0 -159 55t-62 143q0 98 66 154q65 55 155 55zM649 1729q0 -82 84 -82q37 0 57 19q21 20 21 67q0 40 -21 61t-57 21q-39 0 -61 -21q-23 -21 -23 -65zM989 391h-502l-71 -213l162 -18v-160h-572v160
l90 22q44 11 56 49l356 998l-252 10l16 244h686l385 -1123q28 -85 57 -124q26 -35 73 -35q37 0 88 18l38 -194q-33 -20 -98 -34t-135 -14q-136 0 -205 64q-68 63 -114 190zM760 1178h-19l-190 -566h381z" />
    <glyph glyph-name="AE" unicode="&#xc6;" horiz-adv-x="2031" 
d="M840 0v160l114 12q24 4 36 12q11 7 11 37v397h-389l-204 -440l159 -18v-160h-561v160l86 22q25 6 40 23t30 45l495 1050l-151 21v162h1409v-414l-225 10l-29 150q-4 21 -15 26q-14 7 -34 7h-307v-416h479v-228h-479v-399h366q17 0 23 3q5 3 10 20l33 180h223v-422h-1120z
M1001 1262h-100l-196 -414h296v414z" />
    <glyph glyph-name="Ccedilla" unicode="&#xc7;" horiz-adv-x="1386" 
d="M621 -379l24 -3q8 -1 27 -1q78 0 109 30q32 30 32 72q0 48 -36 66q-37 19 -99 20l22 175q-169 11 -288 68q-120 58 -199 158q-78 99 -114 236q-36 136 -36 306q0 159 48 303q46 137 142 241q96 103 239 160q144 57 333 57q129 0 254 -30t211 -86v-402l-225 19l-33 200
q-6 30 -33 37q-34 10 -83 18q-45 7 -99 7q-197 0 -311 -131q-115 -132 -115 -393q0 -274 110 -407q109 -132 302 -132q54 0 107 7q55 7 98 20q17 4 25 12q6 6 11 31l31 190h219v-381q-81 -50 -199 -77q-126 -28 -247 -34l-8 -69q22 -5 58 -19q30 -12 52 -34q21 -21 37 -56
q14 -31 14 -75q0 -52 -17 -95q-19 -46 -54 -79t-95 -54q-56 -20 -143 -20q-18 0 -52 2q-21 1 -32 4z" />
    <glyph glyph-name="Egrave" unicode="&#xc8;" horiz-adv-x="1284" 
d="M365 1753l104 203l422 -250l-72 -137zM78 0v160l129 14q23 5 27 11q6 10 6 30v1051q0 20 -6 30t-27 11l-129 14v162h1089v-414l-225 10l-29 156q-6 27 -34 27h-322v-404h479v-227h-479v-412h367q16 0 22 3q5 3 10 20l33 180h223v-422h-1134z" />
    <glyph glyph-name="Eacute" unicode="&#xc9;" horiz-adv-x="1284" 
d="M494 1571l-72 135l422 250l104 -203zM78 0v160l129 14q23 5 27 11q6 10 6 30v1051q0 20 -6 30t-27 11l-129 14v162h1089v-414l-225 10l-29 156q-6 27 -34 27h-322v-404h479v-227h-479v-412h367q16 0 22 3q5 3 10 20l33 180h223v-422h-1134z" />
    <glyph glyph-name="Ecircumflex" unicode="&#xca;" horiz-adv-x="1284" 
d="M647 1737l-241 -166l-113 115l248 229h213l247 -229l-112 -115zM78 0v160l129 14q23 5 27 11q6 10 6 30v1051q0 20 -6 30t-27 11l-129 14v162h1089v-414l-225 10l-29 156q-6 27 -34 27h-322v-404h479v-227h-479v-412h367q16 0 22 3q5 3 10 20l33 180h223v-422h-1134z" />
    <glyph glyph-name="Edieresis" unicode="&#xcb;" horiz-adv-x="1284" 
d="M723 1597v361h274v-361h-274zM301 1597v361h274v-361h-274zM78 0v160l129 14q23 5 27 11q6 10 6 30v1051q0 20 -6 30t-27 11l-129 14v162h1089v-414l-225 10l-29 156q-6 27 -34 27h-322v-404h479v-227h-479v-412h367q16 0 22 3q5 3 10 20l33 180h223v-422h-1134z" />
    <glyph glyph-name="Igrave" unicode="&#xcc;" horiz-adv-x="827" 
d="M135 1753l105 203l422 -250l-72 -137zM74 0v160l149 14q23 2 28 10t5 31v1049q0 22 -5 30q-6 10 -28 11l-149 14v164h688v-164l-158 -16q-22 -4 -27 -11q-6 -8 -6 -28v-1047q0 -23 6 -31q4 -5 27 -10l158 -16v-160h-688z" />
    <glyph glyph-name="Iacute" unicode="&#xcd;" horiz-adv-x="827" 
d="M264 1571l-71 135l421 250l105 -203zM74 0v160l149 14q23 2 28 10t5 31v1049q0 22 -5 30q-6 10 -28 11l-149 14v164h688v-164l-158 -16q-22 -4 -27 -11q-6 -8 -6 -28v-1047q0 -23 6 -31q4 -5 27 -10l158 -16v-160h-688z" />
    <glyph glyph-name="Icircumflex" unicode="&#xce;" horiz-adv-x="827" 
d="M418 1737l-242 -166l-113 115l248 229h213l248 -229l-113 -115zM74 0v160l149 14q23 2 28 10t5 31v1049q0 22 -5 30q-6 10 -28 11l-149 14v164h688v-164l-158 -16q-22 -4 -27 -11q-6 -8 -6 -28v-1047q0 -23 6 -31q4 -5 27 -10l158 -16v-160h-688z" />
    <glyph glyph-name="Idieresis" unicode="&#xcf;" horiz-adv-x="829" 
d="M494 1597v361h274v-361h-274zM72 1597v361h274v-361h-274zM74 0v160l149 14q23 2 28 10t5 31v1049q0 22 -5 30q-6 10 -28 11l-149 14v164h688v-164l-158 -16q-22 -4 -27 -11q-6 -8 -6 -28v-1047q0 -23 6 -31q4 -5 27 -10l158 -16v-160h-688z" />
    <glyph glyph-name="Eth" unicode="&#xd0;" horiz-adv-x="1540" 
d="M78 0v164l129 14q22 1 27 10q6 10 6 31v416h-131v219h131v412q0 19 -6 29q-4 7 -27 12l-129 14v162h663q191 0 332 -50q139 -49 229 -144q89 -93 132 -226q43 -132 43 -299q0 -172 -46 -311q-47 -142 -141 -242q-95 -101 -239 -156t-344 -55h-629zM674 221q134 0 227 38
q90 37 149 108q56 67 80 165q25 100 25 213q0 137 -28 240q-26 97 -85 160q-58 62 -145 89q-92 28 -211 28h-129v-408h291v-219h-291v-414h117z" />
    <glyph glyph-name="Ntilde" unicode="&#xd1;" horiz-adv-x="1693" 
d="M1157 1716q-33 -60 -61 -88q-29 -29 -74 -29q-24 0 -64 9q-12 3 -40.5 10t-43.5 10q-2 0 -59 16q-13 4 -36 9.5t-25 6.5q-22 6 -51 12q-23 5 -29 5q-16 0 -33 -16l-68 -64l-112 72l61 105q26 46 62 75q33 27 73 27q43 0 129 -25q14 -4 114 -29q83 -21 89 -22q23 -6 33 8
l59 64l121 -74zM1131 0l-654 1069v-852q0 -24 5 -31q4 -5 28 -10l137 -16v-160h-569v160l129 14q24 5 28 11q5 8 5 30v1053q0 22 -5 30q-6 10 -28 11l-129 14v160h508l643 -1071v852q0 22 -5 30q-6 10 -28 11l-129 14v164h569v-164l-137 -16q-23 -5 -28 -11q-5 -7 -5 -28
v-1264h-335z" />
    <glyph glyph-name="Ograve" unicode="&#xd2;" horiz-adv-x="1554" 
d="M510 1761l104 203l422 -250l-71 -137zM1491 764q0 -179 -44 -326q-43 -145 -134 -249q-88 -102 -227 -158q-138 -56 -318 -56q-186 0 -319 57q-138 59 -220 157q-86 103 -126 242t-40 306q0 162 47 305q47 142 138 245q90 102 229 163q134 59 320 59q184 0 313 -58
q131 -59 216 -160t125 -237q40 -135 40 -290zM391 743q0 -132 28 -235q26 -96 79 -161q50 -62 123 -91t159 -29q84 0 157 28q71 27 122 90q53 65 79 161q27 99 27 239q0 267 -99 387q-98 119 -273 119q-91 0 -162 -29q-75 -31 -127 -93q-54 -64 -83 -157q-30 -94 -30 -229z
" />
    <glyph glyph-name="Oacute" unicode="&#xd3;" horiz-adv-x="1554" 
d="M639 1579l-72 135l422 250l105 -203zM1491 764q0 -179 -44 -326q-43 -145 -134 -249q-88 -102 -227 -158q-138 -56 -318 -56q-186 0 -319 57q-138 59 -220 157q-86 103 -126 242t-40 306q0 162 47 305q47 142 138 245q90 102 229 163q134 59 320 59q184 0 313 -58
q131 -59 216 -160t125 -237q40 -135 40 -290zM391 743q0 -132 28 -235q26 -96 79 -161q50 -62 123 -91t159 -29q84 0 157 28q71 27 122 90q53 65 79 161q27 99 27 239q0 267 -99 387q-98 119 -273 119q-91 0 -162 -29q-75 -31 -127 -93q-54 -64 -83 -157q-30 -94 -30 -229z
" />
    <glyph glyph-name="Ocircumflex" unicode="&#xd4;" horiz-adv-x="1554" 
d="M793 1745l-242 -166l-113 115l248 229h213l248 -229l-113 -115zM1491 764q0 -179 -44 -326q-43 -145 -134 -249q-88 -102 -227 -158q-138 -56 -318 -56q-186 0 -319 57q-138 59 -220 157q-86 103 -126 242t-40 306q0 162 47 305q47 142 138 245q90 102 229 163
q134 59 320 59q184 0 313 -58q131 -59 216 -160t125 -237q40 -135 40 -290zM391 743q0 -132 28 -235q26 -96 79 -161q50 -62 123 -91t159 -29q84 0 157 28q71 27 122 90q53 65 79 161q27 99 27 239q0 267 -99 387q-98 119 -273 119q-91 0 -162 -29q-75 -31 -127 -93
q-54 -64 -83 -157q-30 -94 -30 -229z" />
    <glyph glyph-name="Otilde" unicode="&#xd5;" horiz-adv-x="1554" 
d="M1120 1724q-33 -60 -61 -88t-74 -28q-28 0 -63 8q-12 3 -40.5 10t-43.5 10q-7 2 -60 16q-13 4 -36 9.5t-25 6.5q-26 7 -50 12q-28 6 -30 6q-14 0 -33 -17l-67 -63l-113 71l61 105q28 48 62 76q32 26 74 26q47 0 129 -24q49 -14 113 -30q83 -21 89 -22q22 -6 33 9l59 63
l121 -74zM1491 764q0 -179 -44 -326q-43 -145 -134 -249q-88 -102 -227 -158q-138 -56 -318 -56q-186 0 -319 57q-138 59 -220 157q-86 103 -126 242t-40 306q0 162 47 305q47 142 138 245q90 102 229 163q134 59 320 59q184 0 313 -58q131 -59 216 -160t125 -237
q40 -135 40 -290zM391 743q0 -132 28 -235q26 -96 79 -161q50 -62 123 -91t159 -29q84 0 157 28q71 27 122 90q53 65 79 161q27 99 27 239q0 267 -99 387q-98 119 -273 119q-91 0 -162 -29q-75 -31 -127 -93q-54 -64 -83 -157q-30 -94 -30 -229z" />
    <glyph glyph-name="Odieresis" unicode="&#xd6;" horiz-adv-x="1556" 
d="M870 1606v360h275v-360h-275zM449 1606v360h274v-360h-274zM1491 764q0 -179 -44 -326q-43 -145 -134 -249q-88 -102 -227 -158q-138 -56 -318 -56q-186 0 -319 57q-138 59 -220 157q-86 103 -126 242t-40 306q0 162 47 305q47 142 138 245q90 102 229 163q134 59 320 59
q184 0 313 -58q131 -59 216 -160t125 -237q40 -135 40 -290zM391 743q0 -132 28 -235q26 -96 79 -161q50 -62 123 -91t159 -29q84 0 157 28q71 27 122 90q53 65 79 161q27 99 27 239q0 267 -99 387q-98 119 -273 119q-91 0 -162 -29q-75 -31 -127 -93q-54 -64 -83 -157
q-30 -94 -30 -229z" />
    <glyph glyph-name="multiply" unicode="&#xd7;" 
d="M584 485l-203 -202l-172 172l203 202l-203 205l172 172l203 -203l202 203l172 -172l-202 -205l202 -202l-172 -172z" />
    <glyph glyph-name="Oslash" unicode="&#xd8;" horiz-adv-x="1554" 
d="M287 -160l94 226q-165 91 -242 267q-76 174 -76 404q0 162 47 305q47 142 138 245q90 102 229 163q134 59 320 59q97 0 180 -18l53 125h244l-86 -207q159 -100 230 -267q73 -172 73 -378q0 -179 -44 -326q-43 -145 -134 -249q-88 -102 -227 -158q-138 -56 -318 -56
q-42 0 -90 5q-55 6 -84 10l-62 -150h-245zM793 1251q-91 0 -162 -29q-75 -31 -127 -93q-54 -64 -83 -157q-30 -94 -30 -229q0 -137 28 -238q26 -96 79 -159l376 897q-37 8 -81 8zM696 233q40 -6 84 -6q84 0 157 28q71 27 122 90q53 65 79 161q27 99 27 239q0 131 -24 226
q-23 90 -72 155z" />
    <glyph glyph-name="Ugrave" unicode="&#xd9;" horiz-adv-x="1607" 
d="M551 1753l104 203l422 -250l-71 -137zM1112 1266q0 22 -5 30q-6 10 -28 11l-129 14v162h606v-162l-137 -16q-22 -4 -27 -11q-6 -8 -6 -28v-736q0 -146 -40 -250q-41 -107 -116 -174q-75 -68 -183 -99q-110 -32 -244 -32q-305 0 -444 139q-138 138 -138 425v727
q0 22 -5 30q-6 10 -28 11l-127 14v162h648v-162l-138 -16q-22 -4 -27 -11t-5 -28v-670q0 -88 12 -156q11 -64 43 -113q29 -45 84 -70q52 -24 137 -24q165 0 231 81t66 274v678z" />
    <glyph glyph-name="Uacute" unicode="&#xda;" horiz-adv-x="1607" 
d="M680 1571l-72 135l422 250l105 -203zM1112 1266q0 22 -5 30q-6 10 -28 11l-129 14v162h606v-162l-137 -16q-22 -4 -27 -11q-6 -8 -6 -28v-736q0 -146 -40 -250q-41 -107 -116 -174q-75 -68 -183 -99q-110 -32 -244 -32q-305 0 -444 139q-138 138 -138 425v727q0 22 -5 30
q-6 10 -28 11l-127 14v162h648v-162l-138 -16q-22 -4 -27 -11t-5 -28v-670q0 -88 12 -156q11 -64 43 -113q29 -45 84 -70q52 -24 137 -24q165 0 231 81t66 274v678z" />
    <glyph glyph-name="Ucircumflex" unicode="&#xdb;" horiz-adv-x="1607" 
d="M834 1737l-242 -166l-113 115l248 229h213l248 -229l-113 -115zM1112 1266q0 22 -5 30q-6 10 -28 11l-129 14v162h606v-162l-137 -16q-22 -4 -27 -11q-6 -8 -6 -28v-736q0 -146 -40 -250q-41 -107 -116 -174q-75 -68 -183 -99q-110 -32 -244 -32q-305 0 -444 139
q-138 138 -138 425v727q0 22 -5 30q-6 10 -28 11l-127 14v162h648v-162l-138 -16q-22 -4 -27 -11t-5 -28v-670q0 -88 12 -156q11 -64 43 -113q29 -45 84 -70q52 -24 137 -24q165 0 231 81t66 274v678z" />
    <glyph glyph-name="Udieresis" unicode="&#xdc;" horiz-adv-x="1609" 
d="M909 1597v361h275v-361h-275zM487 1597v361h275v-361h-275zM1112 1266q0 22 -5 30q-6 10 -28 11l-129 14v162h606v-162l-137 -16q-22 -4 -27 -11q-6 -8 -6 -28v-736q0 -146 -40 -250q-41 -107 -116 -174q-75 -68 -183 -99q-110 -32 -244 -32q-305 0 -444 139
q-138 138 -138 425v727q0 22 -5 30q-6 10 -28 11l-127 14v162h648v-162l-138 -16q-22 -4 -27 -11t-5 -28v-670q0 -88 12 -156q11 -64 43 -113q29 -45 84 -70q52 -24 137 -24q165 0 231 81t66 274v678z" />
    <glyph glyph-name="Yacute" unicode="&#xdd;" horiz-adv-x="1384" 
d="M569 1571l-71 135l422 250l104 -203zM317 0v162l205 14q23 2 28 10t5 31v336l-408 713q-11 17 -20 22q-10 6 -29 12l-92 23l21 160h614v-160l-160 -18l248 -484h16l248 484l-157 18l20 160h522v-160l-86 -23q-16 -4 -29 -13q-15 -10 -22 -25l-371 -705v-340q0 -20 6 -30
q4 -7 27 -9l217 -16v-162h-803z" />
    <glyph glyph-name="Thorn" unicode="&#xde;" horiz-adv-x="1329" 
d="M78 0v162l129 14q23 5 27 11q6 10 6 30v1047q0 20 -6 30t-27 11l-129 14v164h651v-164l-141 -14q-33 -1 -33 -39v-58h217q144 0 237 -31q96 -32 152 -88q57 -57 81 -132t24 -160q0 -123 -39 -210t-112 -143q-71 -55 -177 -82q-101 -26 -233 -26h-150v-117q0 -24 5 -32
q4 -7 28 -9l293 -16v-162h-803zM657 559q56 0 102 7q52 8 91 31q40 24 66 68t26 117q0 68 -21 108q-20 38 -58 62q-36 22 -84 30q-45 7 -103 7h-121v-430h102z" />
    <glyph glyph-name="germandbls" unicode="&#xdf;" horiz-adv-x="1325" 
d="M41 0v162l100 14q24 5 28 11q5 8 5 30v897q0 249 134 353t388 104q252 0 367 -103t115 -288q0 -78 -22 -139q-21 -59 -55 -100q-36 -44 -73 -68q-34 -22 -76 -39v-9q68 -12 122 -35q56 -24 97 -69q42 -47 66 -118q25 -75 25 -183q0 -86 -23 -169q-22 -79 -71 -142
t-122 -98q-75 -36 -180 -36q-106 0 -192 25q-82 24 -117 45l68 186q34 -15 76 -29t94 -14q43 0 71 21q29 21 45 55q17 36 23 81q6 46 6 95q0 147 -59 200q-61 55 -158 56q-38 0 -57 -1q-41 -2 -62 -5v213l78 10q94 12 135 72q41 61 41 166t-42 157t-138 52q-47 0 -83 -9
q-35 -9 -60 -34q-24 -24 -38 -69t-14 -115v-1133h-442z" />
    <glyph glyph-name="agrave" unicode="&#xe0;" horiz-adv-x="1159" 
d="M676 1149l-365 299l168 160l314 -357zM709 119q-56 -59 -137 -102q-80 -42 -201 -42q-96 0 -156 30q-58 29 -92 75q-31 43 -44 98q-11 48 -11 101q0 154 98 225q97 71 285 92q64 7 116 8l119 4v111q0 36 -3 66q-3 33 -17 52q-14 20 -42 32q-27 12 -75 12q-74 0 -112 -23
t-38 -113l-288 23q0 104 42 167t107 97t143 46t148 12q117 0 200 -18q85 -19 135 -60q53 -44 77 -115q24 -72 24 -180v-451q0 -90 72 -90q11 0 33 2q11 1 38 10l23 -174q-23 -10 -83 -25q-50 -12 -120 -12q-109 0 -163 45q-50 42 -66 97h-12zM686 432q-67 0 -139 -6
q-90 -7 -127 -36q-35 -27 -35 -83q0 -54 34 -78q35 -24 87 -24q55 0 99 20q47 21 81 54v153z" />
    <glyph glyph-name="aacute" unicode="&#xe1;" horiz-adv-x="1159" 
d="M438 1149l-114 102l313 357l168 -160zM709 119q-56 -59 -137 -102q-80 -42 -201 -42q-96 0 -156 30q-58 29 -92 75q-31 43 -44 98q-11 48 -11 101q0 154 98 225q97 71 285 92q64 7 116 8l119 4v111q0 36 -3 66q-3 33 -17 52q-14 20 -42 32q-27 12 -75 12q-74 0 -112 -23
t-38 -113l-288 23q0 104 42 167t107 97t143 46t148 12q117 0 200 -18q85 -19 135 -60q53 -44 77 -115q24 -72 24 -180v-451q0 -90 72 -90q11 0 33 2q11 1 38 10l23 -174q-23 -10 -83 -25q-50 -12 -120 -12q-109 0 -163 45q-50 42 -66 97h-12zM686 432q-67 0 -139 -6
q-90 -7 -127 -36q-35 -27 -35 -83q0 -54 34 -78q35 -24 87 -24q55 0 99 20q47 21 81 54v153z" />
    <glyph glyph-name="acircumflex" unicode="&#xe2;" horiz-adv-x="1159" 
d="M786 1151l-235 190l-236 -190l-122 106l251 265h213l252 -265zM709 119q-56 -59 -137 -102q-80 -42 -201 -42q-96 0 -156 30q-58 29 -92 75q-31 43 -44 98q-11 48 -11 101q0 154 98 225q97 71 285 92q64 7 116 8l119 4v111q0 36 -3 66q-3 33 -17 52q-14 20 -42 32
q-27 12 -75 12q-74 0 -112 -23t-38 -113l-288 23q0 104 42 167t107 97t143 46t148 12q117 0 200 -18q85 -19 135 -60q53 -44 77 -115q24 -72 24 -180v-451q0 -90 72 -90q11 0 33 2q11 1 38 10l23 -174q-23 -10 -83 -25q-50 -12 -120 -12q-109 0 -163 45q-50 42 -66 97h-12z
M686 432q-67 0 -139 -6q-90 -7 -127 -36q-35 -27 -35 -83q0 -54 34 -78q35 -24 87 -24q55 0 99 20q47 21 81 54v153z" />
    <glyph glyph-name="atilde" unicode="&#xe3;" horiz-adv-x="1159" 
d="M879 1311q-32 -58 -62 -88q-29 -29 -74 -29q-28 0 -63 8q-11 2 -38.5 9.5t-45.5 11.5q-22 5 -59 15q-13 3 -34 8.5t-28 7.5q-47 12 -50 13q-23 5 -30 5q-14 0 -33 -17l-67 -63l-113 72l62 104q28 49 61 76q32 26 74 26q47 0 129 -24q42 -12 114 -30q57 -14 89 -21
q22 -6 32 8l60 63l121 -73zM709 119q-56 -59 -137 -102q-80 -42 -201 -42q-96 0 -156 30q-58 29 -92 75q-31 43 -44 98q-11 48 -11 101q0 154 98 225q97 71 285 92q64 7 116 8l119 4v111q0 36 -3 66q-3 33 -17 52q-14 20 -42 32q-27 12 -75 12q-74 0 -112 -23t-38 -113
l-288 23q0 104 42 167t107 97t143 46t148 12q117 0 200 -18q85 -19 135 -60q53 -44 77 -115q24 -72 24 -180v-451q0 -90 72 -90q11 0 33 2q12 1 39 10l22 -174q-23 -10 -83 -25q-50 -12 -120 -12q-109 0 -163 45q-50 42 -66 97h-12zM686 432q-67 0 -139 -6q-90 -7 -127 -36
q-35 -27 -35 -83q0 -54 34 -78q35 -24 87 -24q55 0 99 20q47 21 81 54v153z" />
    <glyph glyph-name="adieresis" unicode="&#xe4;" horiz-adv-x="1159" 
d="M205 1231v418h272v-418h-272zM629 1231v418h272v-418h-272zM709 119q-56 -59 -137 -102q-80 -42 -201 -42q-96 0 -156 30q-58 29 -92 75q-31 43 -44 98q-11 48 -11 101q0 154 98 225q97 71 285 92q64 7 116 8l119 4v111q0 36 -3 66q-3 33 -17 52q-14 20 -42 32
q-27 12 -75 12q-74 0 -112 -23t-38 -113l-288 23q0 104 42 167t107 97t143 46t148 12q117 0 200 -18q85 -19 135 -60q53 -44 77 -115q24 -72 24 -180v-451q0 -90 72 -90q11 0 33 2q11 1 38 10l23 -174q-23 -10 -83 -25q-50 -12 -120 -12q-109 0 -163 45q-50 42 -66 97h-12z
M686 432q-67 0 -139 -6q-90 -7 -127 -36q-35 -27 -35 -83q0 -54 34 -78q35 -24 87 -24q55 0 99 20q47 21 81 54v153z" />
    <glyph glyph-name="aring" unicode="&#xe5;" horiz-adv-x="1159" 
d="M561 1577q89 0 152 -54t63 -147t-61 -150t-154 -57q-95 0 -159 56q-62 55 -62 143q0 98 66 154q65 55 155 55zM477 1372q0 -82 84 -82q34 0 56 20t22 66q0 40 -22 62q-20 20 -56 20q-40 0 -61 -20q-23 -21 -23 -66zM709 119q-56 -59 -137 -102q-80 -42 -201 -42
q-96 0 -156 30q-58 29 -92 75q-31 43 -44 98q-11 48 -11 101q0 154 98 225q97 71 285 92q64 7 116 8l119 4v111q0 36 -3 66q-3 33 -17 52q-14 20 -42 32q-27 12 -75 12q-74 0 -112 -23t-38 -113l-288 23q0 104 42 167t107 97t143 46t148 12q117 0 200 -18q85 -19 135 -60
q53 -44 77 -115q24 -72 24 -180v-451q0 -90 72 -90q11 0 33 2q11 1 38 10l23 -174q-23 -10 -83 -25q-50 -12 -120 -12q-109 0 -163 45q-50 42 -66 97h-12zM686 432q-67 0 -139 -6q-90 -7 -127 -36q-35 -27 -35 -83q0 -54 34 -78q35 -24 87 -24q55 0 99 20q47 21 81 54v153z
" />
    <glyph glyph-name="ae" unicode="&#xe6;" horiz-adv-x="1708" 
d="M1659 145q-86 -92 -210 -131q-125 -39 -251 -39q-136 0 -227 39q-93 40 -150 107q-72 -59 -177 -103q-102 -43 -230 -43q-115 0 -184 30q-67 29 -104 75q-34 43 -47 98q-11 48 -11 101q0 153 95 225q94 72 288 90q62 6 117 9q78 4 118 7v113q0 37 -3 67q-3 32 -17 51
q-14 20 -42 32q-27 12 -75 12q-74 0 -112 -23t-38 -112l-288 22q0 104 42 167q40 61 105 96q60 33 136 44q75 11 136 11q124 0 207 -37q84 -38 127 -119q72 72 168 114t213 42q180 0 290 -90q107 -88 107 -246q0 -101 -40 -165q-41 -66 -120 -100q-81 -35 -196 -47
q-117 -12 -268 -12q5 -42 16 -78t37 -67q24 -28 66 -47q43 -19 102 -19q78 0 147 32q66 31 134 85zM1227 868q-40 0 -74 -11q-37 -12 -67 -39q-27 -24 -50 -72q-20 -41 -26 -111q102 0 171 3q68 3 109 15q42 12 58 36q16 23 16 63q0 57 -38 87q-36 29 -99 29zM385 307
q0 -60 33 -81t86 -21q61 0 120 25q60 25 101 65q-10 27 -24 69q-8 25 -13 72q-23 0 -71 -2q-35 -1 -70 -6q-92 -12 -127 -41t-35 -80z" />
    <glyph glyph-name="ccedilla" unicode="&#xe7;" horiz-adv-x="1044" 
d="M389 -379q4 -1 12.5 -2t12.5 -1q8 -1 26 -1q78 0 110 30t32 72q0 48 -36 66q-37 19 -100 20l23 181q-106 16 -184 63q-76 45 -129 117q-52 71 -76 160q-25 94 -25 192q0 143 42 251q41 106 116 178t177 106t226 34q121 0 220 -27q93 -25 145 -59v-321l-219 10l-25 135
q-2 11 -6 20t-18 13q-14 5 -46 10q-24 4 -59 4q-46 0 -87 -16q-43 -17 -72 -55q-33 -43 -50 -101q-18 -62 -18 -151q0 -103 20 -166q21 -64 57 -104q37 -40 84 -56t103 -16q79 0 143 19q71 21 113 40l80 -190q-71 -43 -163 -69q-96 -28 -202 -32l-8 -67q24 -5 59 -19
q30 -12 52 -34q21 -21 37 -56q14 -31 14 -75q0 -52 -17 -95q-18 -45 -55 -79q-35 -33 -95 -54q-56 -20 -142 -20q-18 0 -52 2q-21 1 -32 4z" />
    <glyph glyph-name="egrave" unicode="&#xe8;" horiz-adv-x="1075" 
d="M678 1149l-365 299l168 160l314 -357zM1026 145q-86 -92 -210 -131t-251 -39q-141 0 -240 44q-95 43 -157 118q-59 73 -85 171q-26 99 -26 204q0 146 41 257q40 107 114 180q74 72 174 106q103 35 224 35q183 0 291 -90q107 -89 107 -246q0 -105 -43 -169
q-44 -66 -123 -100t-196 -45q-110 -10 -261 -10q5 -42 16 -78t37 -67q24 -28 66 -47q43 -19 102 -19q80 0 147 32q63 30 132 85zM594 868q-42 0 -75 -11q-34 -11 -65 -39q-30 -27 -50 -72q-19 -42 -25 -111q102 0 171 3q67 3 108 15q40 12 57 36q16 23 16 63q0 57 -38 87
q-36 29 -99 29z" />
    <glyph glyph-name="eacute" unicode="&#xe9;" horiz-adv-x="1075" 
d="M440 1149l-114 102l313 357l168 -160zM1026 145q-86 -92 -210 -131t-251 -39q-141 0 -240 44q-95 43 -157 118q-59 73 -85 171q-26 99 -26 204q0 146 41 257q40 107 114 180q74 72 174 106q103 35 224 35q183 0 291 -90q107 -89 107 -246q0 -105 -43 -169
q-44 -66 -123 -100t-196 -45q-110 -10 -261 -10q5 -42 16 -78t37 -67q24 -28 66 -47q43 -19 102 -19q80 0 147 32q63 30 132 85zM594 868q-42 0 -75 -11q-34 -11 -65 -39q-30 -27 -50 -72q-19 -42 -25 -111q102 0 171 3q67 3 108 15q40 12 57 36q16 23 16 63q0 57 -38 87
q-36 29 -99 29z" />
    <glyph glyph-name="ecircumflex" unicode="&#xea;" horiz-adv-x="1075" 
d="M788 1151l-235 190l-236 -190l-122 106l251 265h213l252 -265zM1026 145q-86 -92 -210 -131t-251 -39q-141 0 -240 44q-95 43 -157 118q-59 73 -85 171q-26 99 -26 204q0 146 41 257q40 107 114 180q74 72 174 106q103 35 224 35q183 0 291 -90q107 -89 107 -246
q0 -105 -43 -169q-44 -66 -123 -100t-196 -45q-110 -10 -261 -10q5 -42 16 -78t37 -67q24 -28 66 -47q43 -19 102 -19q80 0 147 32q63 30 132 85zM594 868q-42 0 -75 -11q-34 -11 -65 -39q-30 -27 -50 -72q-19 -42 -25 -111q102 0 171 3q67 3 108 15q40 12 57 36
q16 23 16 63q0 57 -38 87q-36 29 -99 29z" />
    <glyph glyph-name="edieresis" unicode="&#xeb;" horiz-adv-x="1075" 
d="M207 1231v418h272v-418h-272zM631 1231v418h272v-418h-272zM1026 145q-86 -92 -210 -131t-251 -39q-141 0 -240 44q-95 43 -157 118q-59 73 -85 171q-26 99 -26 204q0 146 41 257q40 107 114 180q74 72 174 106q103 35 224 35q183 0 291 -90q107 -89 107 -246
q0 -105 -43 -169q-44 -66 -123 -100t-196 -45q-110 -10 -261 -10q5 -42 16 -78t37 -67q24 -28 66 -47q43 -19 102 -19q80 0 147 32q63 30 132 85zM594 868q-42 0 -75 -11q-34 -11 -65 -39q-30 -27 -50 -72q-19 -42 -25 -111q102 0 171 3q67 3 108 15q40 12 57 36
q16 23 16 63q0 57 -38 87q-36 29 -99 29z" />
    <glyph glyph-name="igrave" unicode="&#xec;" horiz-adv-x="647" 
d="M412 1145l-365 299l168 160l313 -357zM41 0v162l104 14q24 5 28 11q5 8 5 30v602q0 36 -26 43l-111 39l22 166h424v-850q0 -23 6 -31q4 -5 27 -10l105 -14v-162h-584z" />
    <glyph glyph-name="iacute" unicode="&#xed;" horiz-adv-x="647" 
d="M174 1145l-115 102l314 357l168 -160zM41 0v162l104 14q24 5 28 11q5 8 5 30v602q0 36 -26 43l-111 39l22 166h424v-850q0 -23 6 -31q4 -5 27 -10l105 -14v-162h-584z" />
    <glyph glyph-name="icircumflex" unicode="&#xee;" horiz-adv-x="647" 
d="M498 1159l-211 191l-211 -191l-123 107l227 264h213l228 -264zM41 0v162l104 14q24 5 28 11q5 8 5 30v602q0 36 -26 43l-111 39l22 166h424v-850q0 -23 6 -31q4 -5 27 -10l105 -14v-162h-584z" />
    <glyph glyph-name="idieresis" unicode="&#xef;" horiz-adv-x="647" 
d="M-63 1231v418h272v-418h-272zM360 1231v418h273v-418h-273zM41 0v162l104 14q24 5 28 11q5 8 5 30v602q0 36 -26 43l-111 39l22 166h424v-850q0 -23 6 -31q4 -5 27 -10l105 -14v-162h-584z" />
    <glyph glyph-name="eth" unicode="&#xf0;" horiz-adv-x="1198" 
d="M580 -25q-134 0 -233 38q-96 37 -161 108q-64 70 -94 167q-31 101 -31 216q0 111 30 207q31 99 91 169q61 72 155 114q93 42 218 42q55 0 127 -19q74 -19 129 -63q-35 99 -94 169q-62 73 -131 119q-73 49 -149 77q-79 30 -148 41l102 237q198 -38 338 -124l223 141
l150 -223l-166 -101q107 -134 151 -300q43 -163 43 -335q0 -154 -29 -274q-30 -125 -96 -215q-67 -91 -171 -140q-108 -51 -254 -51zM604 825q-101 0 -160 -65t-59 -242q0 -170 52 -246q51 -75 157 -75q117 0 175 107t58 312q0 33 -3 66q-4 47 -7 68q-38 29 -96 52
q-57 23 -117 23z" />
    <glyph glyph-name="ntilde" unicode="&#xf1;" horiz-adv-x="1277" 
d="M944 1311q-33 -60 -61 -88q-29 -29 -74 -29q-29 0 -64 8q-10 2 -37.5 9.5t-45.5 11.5q-27 6 -60 15q-13 4 -36 9.5t-25 6.5q-42 11 -51 13q-23 5 -29 5q-14 0 -33 -17l-68 -63l-112 72l61 104q28 48 62 76q32 26 73 26q46 0 129 -24q42 -12 114 -30q57 -14 89 -21
q23 -6 33 8l59 63l121 -73zM809 0v662q0 25 -2 69q-2 34 -13 57q-12 24 -33 39t-61 15q-55 0 -118 -26q-61 -25 -95 -50v-549q0 -23 6 -31q4 -5 27 -10l99 -14v-162h-566v164l92 12q24 5 28 11q5 8 5 30v602q0 36 -26 43l-111 39l25 166h358l16 -106l9 -5q80 59 166 95
q85 36 194 36q168 0 239 -89q70 -88 70 -259v-522q0 -24 5 -31q4 -5 28 -10l102 -14v-162h-444z" />
    <glyph glyph-name="ograve" unicode="&#xf2;" horiz-adv-x="1189" 
d="M733 1149l-364 299l168 160l313 -357zM1135 549q0 -134 -34 -237q-35 -105 -102 -180q-68 -76 -172 -116q-106 -41 -245 -41q-141 0 -241 41q-99 40 -163 114q-63 72 -93 174t-30 222q0 129 34 231q35 106 102 177q69 73 173 114q100 39 244 39q145 0 242 -39
q102 -41 164 -112q64 -73 92 -171q29 -101 29 -216zM379 537q0 -189 56 -267q57 -80 161 -80q101 0 158 78t57 271q0 182 -53 255q-52 72 -154 72q-100 0 -163 -72q-62 -71 -62 -257z" />
    <glyph glyph-name="oacute" unicode="&#xf3;" horiz-adv-x="1189" 
d="M496 1149l-115 102l313 357l168 -160zM1135 549q0 -134 -34 -237q-35 -105 -102 -180q-68 -76 -172 -116q-106 -41 -245 -41q-141 0 -241 41q-99 40 -163 114q-63 72 -93 174t-30 222q0 129 34 231q35 106 102 177q69 73 173 114q100 39 244 39q145 0 242 -39
q102 -41 164 -112q64 -73 92 -171q29 -101 29 -216zM379 537q0 -189 56 -267q57 -80 161 -80q101 0 158 78t57 271q0 182 -53 255q-52 72 -154 72q-100 0 -163 -72q-62 -71 -62 -257z" />
    <glyph glyph-name="ocircumflex" unicode="&#xf4;" horiz-adv-x="1189" 
d="M844 1151l-236 190l-235 -190l-123 106l252 265h213l252 -265zM1135 549q0 -134 -34 -237q-35 -105 -102 -180q-68 -76 -172 -116q-106 -41 -245 -41q-141 0 -241 41q-99 40 -163 114q-63 72 -93 174t-30 222q0 129 34 231q35 106 102 177q69 73 173 114q100 39 244 39
q145 0 242 -39q102 -41 164 -112q64 -73 92 -171q29 -101 29 -216zM379 537q0 -189 56 -267q57 -80 161 -80q101 0 158 78t57 271q0 182 -53 255q-52 72 -154 72q-100 0 -163 -72q-62 -71 -62 -257z" />
    <glyph glyph-name="otilde" unicode="&#xf5;" horiz-adv-x="1189" 
d="M936 1311q-33 -60 -61 -88q-29 -29 -74 -29q-29 0 -64 8q-11 2 -38.5 9.5t-45.5 11.5q-22 5 -59 15q-13 3 -34 8.5t-28 7.5q-47 12 -50 13q-23 5 -29 5q-14 0 -33 -17l-68 -63l-112 72l61 104q28 49 61 76q32 26 74 26q46 0 129 -24q42 -12 114 -30q57 -14 89 -21
q23 -6 33 8l59 63l121 -73zM1135 549q0 -134 -34 -237q-35 -105 -102 -180q-68 -76 -172 -116q-106 -41 -245 -41q-141 0 -241 41q-99 40 -163 114q-63 72 -93 174t-30 222q0 129 34 231q35 106 102 177q69 73 173 114q100 39 244 39q145 0 242 -39q102 -41 164 -112
q64 -73 92 -171q29 -101 29 -216zM379 537q0 -189 56 -267q57 -80 161 -80q101 0 158 78t57 271q0 182 -53 255q-52 72 -154 72q-100 0 -163 -72q-62 -71 -62 -257z" />
    <glyph glyph-name="odieresis" unicode="&#xf6;" horiz-adv-x="1189" 
d="M262 1231v418h273v-418h-273zM686 1231v418h272v-418h-272zM1135 549q0 -134 -34 -237q-35 -105 -102 -180q-68 -76 -172 -116q-106 -41 -245 -41q-141 0 -241 41q-99 40 -163 114q-63 72 -93 174t-30 222q0 129 34 231q35 106 102 177q69 73 173 114q100 39 244 39
q145 0 242 -39q102 -41 164 -112q64 -73 92 -171q29 -101 29 -216zM379 537q0 -189 56 -267q57 -80 161 -80q101 0 158 78t57 271q0 182 -53 255q-52 72 -154 72q-100 0 -163 -72q-62 -71 -62 -257z" />
    <glyph glyph-name="divide" unicode="&#xf7;" 
d="M578 1145q81 0 120 -42t39 -108q0 -69 -39 -108t-120 -39t-122 38q-40 37 -40 109q0 67 40 108q41 42 122 42zM186 539v237h793v-237h-793zM578 469q81 0 120 -42t39 -108q0 -71 -39 -110t-120 -39q-162 0 -162 149q0 67 40 108q41 42 122 42z" />
    <glyph glyph-name="oslash" unicode="&#xf8;" horiz-adv-x="1189" 
d="M168 -166l98 221q-111 69 -161 192t-50 279q0 129 34 231q35 106 102 177q69 73 173 114q100 39 244 39q20 0 58 -2q28 -1 55 -6l61 140h217l-88 -201q118 -67 171 -190t53 -279q0 -134 -34 -237q-35 -105 -102 -180q-68 -76 -172 -116q-106 -41 -245 -41q-36 0 -67 3
q-24 2 -62 8l-66 -152h-219zM604 866q-100 0 -163 -72q-62 -71 -62 -257q0 -119 20 -183l226 510q-8 2 -21 2zM547 195q3 0 10.5 -1.5t11.5 -2.5q8 -1 27 -1q101 0 158 78t57 271q0 64 -7 110q-7 45 -20 86z" />
    <glyph glyph-name="ugrave" unicode="&#xf9;" horiz-adv-x="1275" 
d="M698 1149l-364 299l168 160l313 -357zM860 0l-16 111l-10 2q-28 -22 -68 -48q-38 -24 -81 -45q-39 -19 -97 -32q-57 -13 -119 -13q-161 0 -229 91t-68 270v500q0 23 -5 31q-4 7 -28 12l-98 20l20 168h420v-678q0 -92 22 -133q21 -39 87 -39t122 31q55 31 89 63v527
q0 23 -5 30q-5 6 -28 11l-88 20l22 168h408v-850q0 -22 4 -29q5 -9 25 -10l102 -14v-164h-381z" />
    <glyph glyph-name="uacute" unicode="&#xfa;" horiz-adv-x="1275" 
d="M532 1149l-114 102l313 357l168 -160zM860 0l-16 111l-10 2q-28 -22 -68 -48q-38 -24 -81 -45q-39 -19 -97 -32q-57 -13 -119 -13q-161 0 -229 91t-68 270v500q0 23 -5 31q-4 7 -28 12l-98 20l20 168h420v-678q0 -92 22 -133q21 -39 87 -39t122 31q55 31 89 63v527
q0 23 -5 30q-5 6 -28 11l-88 20l22 168h408v-850q0 -22 4 -29q5 -9 25 -10l102 -14v-164h-381z" />
    <glyph glyph-name="ucircumflex" unicode="&#xfb;" horiz-adv-x="1275" 
d="M848 1151l-236 190l-235 -190l-123 106l252 265h213l252 -265zM860 0l-16 111l-10 2q-28 -22 -68 -48q-38 -24 -81 -45q-39 -19 -97 -32q-57 -13 -119 -13q-161 0 -229 91t-68 270v500q0 23 -5 31q-4 7 -28 12l-98 20l20 168h420v-678q0 -92 22 -133q21 -39 87 -39
t122 31q55 31 89 63v527q0 23 -5 30q-5 6 -28 11l-88 20l22 168h408v-850q0 -22 4 -29q5 -9 25 -10l102 -14v-164h-381z" />
    <glyph glyph-name="udieresis" unicode="&#xfc;" horiz-adv-x="1275" 
d="M266 1231v418h273v-418h-273zM690 1231v418h273v-418h-273zM860 0l-16 111l-10 2q-28 -22 -68 -48q-38 -24 -81 -45q-39 -19 -97 -32q-57 -13 -119 -13q-161 0 -229 91t-68 270v500q0 23 -5 31q-4 7 -28 12l-98 20l20 168h420v-678q0 -92 22 -133q21 -39 87 -39t122 31
q55 31 89 63v527q0 23 -5 30q-5 6 -28 11l-88 20l22 168h408v-850q0 -22 4 -29q5 -9 25 -10l102 -14v-164h-381z" />
    <glyph glyph-name="yacute" unicode="&#xfd;" horiz-adv-x="1267" 
d="M541 1149l-115 102l313 357l168 -160zM225 -434v166l160 18q20 1 31 12q9 9 20 33l88 195l-391 856q-6 18 -15 24q-10 6 -28 11l-84 20l33 166h543v-166l-129 -16l227 -541h14l217 541l-133 16l27 166h457v-166l-66 -12q-22 -5 -31 -10q-12 -6 -20 -25l-451 -1102
l213 -22v-164h-682z" />
    <glyph glyph-name="thorn" unicode="&#xfe;" horiz-adv-x="1239" 
d="M37 -434v164l82 12q21 4 29 12t8 31v1513q0 36 -27 43l-111 39l23 166h420v-581l8 -4q73 56 155 93q73 33 162 33q87 0 158 -28q73 -29 123 -91q52 -64 80 -162q29 -101 29 -243q0 -103 -23 -210q-23 -105 -72 -189q-50 -84 -128 -136q-80 -53 -193 -53q-78 0 -158 26
q-74 24 -143 79v-293q0 -25 6 -32t29 -9l213 -18v-162h-670zM465 291q37 -28 86 -52t108 -24q101 0 147 90q46 89 46 242q0 160 -51 229q-52 70 -137 70q-56 0 -111 -27q-56 -27 -88 -49v-479z" />
    <glyph glyph-name="ydieresis" unicode="&#xff;" horiz-adv-x="1269" 
d="M307 1231v418h273v-418h-273zM731 1231v418h273v-418h-273zM225 -434v166l160 18q20 1 31 12q9 9 20 33l88 195l-391 856q-6 18 -15 24q-10 6 -28 11l-84 20l33 166h543v-166l-129 -16l227 -541h14l217 541l-133 16l27 166h457v-166l-66 -12q-22 -5 -31 -10
q-12 -6 -20 -25l-451 -1102l213 -22v-164h-682z" />
    <glyph glyph-name="Amacron" unicode="&#x100;" horiz-adv-x="1581" 
d="M342 1608v204h649v-204h-649zM989 391h-502l-71 -213l162 -18v-160h-572v160l90 22q44 11 56 49l356 998l-252 10l16 244h686l385 -1123q28 -85 57 -124q26 -35 73 -35q37 0 88 18l38 -194q-33 -20 -98 -34t-135 -14q-136 0 -205 64q-68 63 -114 190zM760 1178h-19
l-190 -566h381z" />
    <glyph glyph-name="amacron" unicode="&#x101;" horiz-adv-x="1159" 
d="M227 1227v205h650v-205h-650zM709 119q-56 -59 -137 -102q-80 -42 -201 -42q-96 0 -156 30q-58 29 -92 75q-31 43 -44 98q-11 48 -11 101q0 154 98 225q97 71 285 92q64 7 116 8l119 4v111q0 36 -3 66q-3 33 -17 52q-14 20 -42 32q-27 12 -75 12q-74 0 -112 -23t-38 -113
l-288 23q0 104 42 167t107 97t143 46t148 12q117 0 200 -18q85 -19 135 -60q53 -44 77 -115q24 -72 24 -180v-451q0 -90 72 -90q11 0 33 2q11 1 38 10l23 -174q-23 -10 -83 -25q-50 -12 -120 -12q-109 0 -163 45q-50 42 -66 97h-12zM686 432q-67 0 -139 -6q-90 -7 -127 -36
q-35 -27 -35 -83q0 -54 34 -78q35 -24 87 -24q55 0 99 20q47 21 81 54v153z" />
    <glyph glyph-name="Abreve" unicode="&#x102;" horiz-adv-x="1581" 
d="M1059 1870q-35 -136 -117 -202t-225 -66q-145 0 -227 66t-117 202l157 57q28 -77 77 -109t110 -32t108 30q48 31 80 111zM989 391h-502l-71 -213l162 -18v-160h-572v160l90 22q44 11 56 49l356 998l-252 10l16 244h686l385 -1123q28 -85 57 -124q26 -35 73 -35
q37 0 88 18l38 -194q-33 -20 -98 -34t-135 -14q-136 0 -205 64q-68 63 -114 190zM760 1178h-19l-190 -566h381z" />
    <glyph glyph-name="abreve" unicode="&#x103;" horiz-adv-x="1159" 
d="M903 1450q-35 -134 -117 -206q-84 -73 -235 -73q-152 0 -236 73q-81 71 -116 206l155 59q28 -78 77 -116q47 -37 120 -37q71 0 118 36t79 117zM709 119q-56 -59 -137 -102q-80 -42 -201 -42q-96 0 -156 30q-58 29 -92 75q-31 43 -44 98q-11 48 -11 101q0 154 98 225
q97 71 285 92q64 7 116 8l119 4v111q0 36 -3 66q-3 33 -17 52q-14 20 -42 32q-27 12 -75 12q-74 0 -112 -23t-38 -113l-288 23q0 104 42 167t107 97t143 46t148 12q117 0 200 -18q85 -19 135 -60q53 -44 77 -115q24 -72 24 -180v-451q0 -90 72 -90q11 0 33 2q11 1 38 10
l23 -174q-23 -10 -83 -25q-50 -12 -120 -12q-109 0 -163 45q-50 42 -66 97h-12zM686 432q-67 0 -139 -6q-90 -7 -127 -36q-35 -27 -35 -83q0 -54 34 -78q35 -24 87 -24q55 0 99 20q47 21 81 54v153z" />
    <glyph glyph-name="Aogonek" unicode="&#x104;" horiz-adv-x="1581" 
d="M6 0v160l90 22q44 11 56 49l356 998l-252 10l16 244h686l385 -1123q28 -85 57 -124q26 -35 73 -35q37 0 88 18l38 -194q-17 -10 -47 -21q-38 -14 -57 -24q-172 -84 -172 -213q0 -60 59 -60q16 0 49 5q25 4 58 16l57 -152q-62 -28 -127 -42q-61 -13 -114 -13
q-113 0 -166 50q-54 51 -54 132q0 45 18 87q20 46 44 77q29 37 60 64q44 38 67 55q-91 21 -140 81q-50 61 -87 164l-58 160h-502l-71 -213l162 -18v-160h-572zM551 612h381l-172 566h-19z" />
    <glyph glyph-name="aogonek" unicode="&#x105;" horiz-adv-x="1159" 
d="M709 119q-56 -59 -137 -102q-80 -42 -201 -42q-96 0 -156 30q-58 29 -92 75q-31 43 -44 98q-11 48 -11 101q0 154 98 225q97 71 285 92q64 7 116 8l119 4v111q0 36 -3 66q-3 33 -17 52q-14 20 -42 32q-27 12 -75 12q-74 0 -112 -23t-38 -113l-288 23q0 104 42 167t107 97
t143 46t148 12q117 0 200 -18q85 -19 135 -60q53 -44 77 -115q24 -72 24 -180v-451q0 -90 72 -90q11 0 33 2q11 1 38 10l23 -174q-2 -1 -11.5 -4.5t-15.5 -5.5q-14 -6 -30 -10q-79 -38 -128 -100q-50 -64 -50 -127q0 -60 57 -60q17 0 49 5q24 4 59 16l56 -152
q-62 -28 -127 -42q-61 -13 -115 -13q-113 0 -166 50t-53 132q0 47 16 86q17 42 42 77t59 66q51 47 63 56q-62 17 -94 53q-32 37 -43 78h-12zM686 432q-67 0 -139 -6q-90 -7 -127 -36q-35 -27 -35 -83q0 -54 34 -78q35 -24 87 -24q55 0 99 20q47 21 81 54v153z" />
    <glyph glyph-name="Cacute" unicode="&#x106;" horiz-adv-x="1386" 
d="M637 1571l-72 135l422 250l105 -203zM1294 88q-97 -54 -233 -83q-139 -30 -279 -30q-187 0 -326 55q-137 54 -224 153q-88 100 -128 243q-41 146 -41 322q0 159 48 303q46 137 142 241q96 103 239 160q144 57 333 57q129 0 254 -30t211 -86v-402l-225 19l-33 200
q-6 30 -33 37q-34 10 -83 18q-45 7 -99 7q-197 0 -311 -131q-115 -132 -115 -393q0 -274 110 -407q109 -132 302 -132q54 0 107 7q55 7 98 20q17 4 25 12q6 6 11 31l31 190h219v-381z" />
    <glyph glyph-name="cacute" unicode="&#x107;" horiz-adv-x="1044" 
d="M483 1149l-114 102l313 357l168 -160zM981 76q-72 -44 -174 -72q-104 -29 -215 -29q-138 0 -241 41q-98 39 -167 114q-65 71 -97 172t-32 216q0 143 42 251q41 106 116 178t177 106t226 34q121 0 220 -27q93 -25 145 -59v-321l-219 10l-25 135q-2 11 -6 20t-18 13
q-14 5 -46 10q-24 4 -59 4q-46 0 -87 -16q-43 -17 -72 -55q-33 -43 -50 -101q-18 -62 -18 -151q0 -103 20 -166q21 -64 57 -104q37 -40 84 -56t103 -16q79 0 143 19q71 21 113 40z" />
    <glyph glyph-name="Ccircumflex" unicode="&#x108;" horiz-adv-x="1386" 
d="M791 1737l-242 -166l-113 115l248 229h213l248 -229l-113 -115zM1294 88q-97 -54 -233 -83q-139 -30 -279 -30q-187 0 -326 55q-137 54 -224 153q-88 100 -128 243q-41 146 -41 322q0 159 48 303q46 137 142 241q96 103 239 160q144 57 333 57q129 0 254 -30t211 -86
v-402l-225 19l-33 200q-6 30 -33 37q-34 10 -83 18q-45 7 -99 7q-197 0 -311 -131q-115 -132 -115 -393q0 -274 110 -407q109 -132 302 -132q54 0 107 7q55 7 98 20q17 4 25 12q6 6 11 31l31 190h219v-381z" />
    <glyph glyph-name="ccircumflex" unicode="&#x109;" horiz-adv-x="1044" 
d="M831 1151l-235 190l-236 -190l-122 106l251 265h213l252 -265zM981 76q-72 -44 -174 -72q-104 -29 -215 -29q-138 0 -241 41q-98 39 -167 114q-65 71 -97 172t-32 216q0 143 42 251q41 106 116 178t177 106t226 34q121 0 220 -27q93 -25 145 -59v-321l-219 10l-25 135
q-2 11 -6 20t-18 13q-14 5 -46 10q-24 4 -59 4q-46 0 -87 -16q-43 -17 -72 -55q-33 -43 -50 -101q-18 -62 -18 -151q0 -103 20 -166q21 -64 57 -104q37 -40 84 -56t103 -16q79 0 143 19q71 21 113 40z" />
    <glyph glyph-name="Cdotaccent" unicode="&#x10a;" horiz-adv-x="1386" 
d="M653 1604v417h273v-417h-273zM1294 88q-97 -54 -233 -83q-139 -30 -279 -30q-187 0 -326 55q-137 54 -224 153q-88 100 -128 243q-41 146 -41 322q0 159 48 303q46 137 142 241q96 103 239 160q144 57 333 57q129 0 254 -30t211 -86v-402l-225 19l-33 200q-6 30 -33 37
q-34 10 -83 18q-45 7 -99 7q-197 0 -311 -131q-115 -132 -115 -393q0 -274 110 -407q109 -132 302 -132q54 0 107 7q55 7 98 20q17 4 25 12q6 6 11 31l31 190h219v-381z" />
    <glyph glyph-name="cdotaccent" unicode="&#x10b;" horiz-adv-x="1044" 
d="M459 1237v418h272v-418h-272zM981 76q-72 -44 -174 -72q-104 -29 -215 -29q-138 0 -241 41q-98 39 -167 114q-65 71 -97 172t-32 216q0 143 42 251q41 106 116 178t177 106t226 34q121 0 220 -27q93 -25 145 -59v-321l-219 10l-25 135q-2 11 -6 20t-18 13q-14 5 -46 10
q-24 4 -59 4q-46 0 -87 -16q-43 -17 -72 -55q-33 -43 -50 -101q-18 -62 -18 -151q0 -103 20 -166q21 -64 57 -104q37 -40 84 -56t103 -16q79 0 143 19q71 21 113 40z" />
    <glyph glyph-name="Ccaron" unicode="&#x10c;" horiz-adv-x="1386" 
d="M897 1595h-213l-248 228l111 116l244 -165l241 165l113 -116zM1294 88q-97 -54 -233 -83q-139 -30 -279 -30q-187 0 -326 55q-137 54 -224 153q-88 100 -128 243q-41 146 -41 322q0 159 48 303q46 137 142 241q96 103 239 160q144 57 333 57q129 0 254 -30t211 -86v-402
l-225 19l-33 200q-6 30 -33 37q-34 10 -83 18q-45 7 -99 7q-197 0 -311 -131q-115 -132 -115 -393q0 -274 110 -407q109 -132 302 -132q54 0 107 7q55 7 98 20q17 4 25 12q6 6 11 31l31 190h219v-381z" />
    <glyph glyph-name="ccaron" unicode="&#x10d;" horiz-adv-x="1044" 
d="M489 1192l-249 262l122 109l234 -191l238 191l120 -107l-252 -264h-213zM981 76q-72 -44 -174 -72q-104 -29 -215 -29q-138 0 -241 41q-98 39 -167 114q-65 71 -97 172t-32 216q0 143 42 251q41 106 116 178t177 106t226 34q121 0 220 -27q93 -25 145 -59v-321l-219 10
l-25 135q-2 11 -6 20t-18 13q-14 5 -46 10q-24 4 -59 4q-46 0 -87 -16q-43 -17 -72 -55q-33 -43 -50 -101q-18 -62 -18 -151q0 -103 20 -166q21 -64 57 -104q37 -40 84 -56t103 -16q79 0 143 19q71 21 113 40z" />
    <glyph glyph-name="Dcaron" unicode="&#x10e;" horiz-adv-x="1540" 
d="M801 1595h-213l-248 228l111 116l243 -165l242 165l113 -116zM78 0v164l129 14q22 1 27 10q6 10 6 31v1047q0 19 -6 29q-4 7 -27 12l-129 14v162h663q191 0 332 -50q139 -49 229 -144q89 -93 132 -226q43 -132 43 -299q0 -172 -46 -311q-47 -142 -141 -242
q-95 -101 -239 -156t-344 -55h-629zM674 221q134 0 227 38q90 37 149 108q56 67 80 165q25 100 25 213q0 137 -28 240q-26 97 -85 160q-58 62 -145 89q-92 28 -211 28h-129v-1041h117z" />
    <glyph glyph-name="dcaron" unicode="&#x10f;" horiz-adv-x="1472" 
d="M1180 1141q9 30 27 116q14 65 14 125q0 41 -9 79q-8 31 -18 48l215 82q21 -29 30 -64q9 -36 9 -71q0 -42 -12 -92q-2 -8 -5.5 -17.5t-8 -22t-7.5 -20.5q-16 -46 -26 -71q-18 -44 -31 -72q-21 -45 -31 -63zM840 0l-21 115l-14 2q-69 -66 -145 -103q-80 -39 -191 -39
q-91 0 -164 30q-75 30 -126 95q-53 67 -80 169q-27 103 -27 251q0 154 36 262q36 109 96 176q62 70 138 99q78 30 164 30q91 0 160 -27q68 -26 129 -71v311q0 34 -27 41l-113 39l23 166h412v-1331q0 -22 5 -29q4 -5 27 -10l99 -14v-162h-381zM782 788q-40 27 -85 45
q-44 17 -91 17q-55 0 -97 -25q-40 -24 -66 -68q-23 -39 -36 -104q-12 -60 -12 -127q0 -149 44 -229t143 -80q54 0 106 27q57 29 94 61v483z" />
    <glyph glyph-name="Dcroat" unicode="&#x110;" horiz-adv-x="1540" 
d="M78 0v164l129 14q22 1 27 10q6 10 6 31v416h-131v219h131v412q0 19 -6 29q-4 7 -27 12l-129 14v162h663q191 0 332 -50q139 -49 229 -144q89 -93 132 -226q43 -132 43 -299q0 -172 -46 -311q-47 -142 -141 -242q-95 -101 -239 -156t-344 -55h-629zM674 221q134 0 227 38
q90 37 149 108q56 67 80 165q25 100 25 213q0 137 -28 240q-26 97 -85 160q-58 62 -145 89q-92 28 -211 28h-129v-408h291v-219h-291v-414h117z" />
    <glyph glyph-name="dcroat" unicode="&#x111;" horiz-adv-x="1249" 
d="M1087 1098v-883q0 -21 6 -29q4 -5 27 -10l99 -14v-162h-381l-21 115l-14 2q-69 -66 -145 -103q-80 -39 -191 -39q-90 0 -164 30q-73 30 -126 93t-80 163q-27 99 -27 239q0 150 35 249q35 98 97 162q59 61 138 88q78 27 164 27q88 0 160 -28q70 -28 129 -70v170h-338v176
h338v26q0 34 -27 41l-113 39l23 166h411v-272h107v-176h-107zM780 727q-36 25 -85 44q-44 17 -91 17q-115 0 -163 -76t-48 -206q0 -144 44 -217q43 -72 143 -72q54 0 106 27q57 29 94 61v422z" />
    <glyph glyph-name="Emacron" unicode="&#x112;" horiz-adv-x="1284" 
d="M324 1608v204h649v-204h-649zM78 0v160l129 14q23 5 27 11q6 10 6 30v1051q0 20 -6 30t-27 11l-129 14v162h1089v-414l-225 10l-29 156q-6 27 -34 27h-322v-404h479v-227h-479v-412h367q16 0 22 3q5 3 10 20l33 180h223v-422h-1134z" />
    <glyph glyph-name="emacron" unicode="&#x113;" horiz-adv-x="1075" 
d="M229 1227v205h650v-205h-650zM1026 145q-86 -92 -210 -131t-251 -39q-141 0 -240 44q-95 43 -157 118q-59 73 -85 171q-26 99 -26 204q0 146 41 257q40 107 114 180q74 72 174 106q103 35 224 35q183 0 291 -90q107 -89 107 -246q0 -105 -43 -169q-44 -66 -123 -100
t-196 -45q-110 -10 -261 -10q5 -42 16 -78t37 -67q24 -28 66 -47q43 -19 102 -19q80 0 147 32q63 30 132 85zM594 868q-42 0 -75 -11q-34 -11 -65 -39q-30 -27 -50 -72q-19 -42 -25 -111q102 0 171 3q67 3 108 15q40 12 57 36q16 23 16 63q0 57 -38 87q-36 29 -99 29z" />
    <glyph glyph-name="Ebreve" unicode="&#x114;" horiz-adv-x="1284" 
d="M989 1870q-35 -136 -117 -202t-225 -66t-226 66q-83 67 -118 202l158 57q28 -77 77 -109t109 -32q63 0 109 30q48 31 80 111zM78 0v160l129 14q23 5 27 11q6 10 6 30v1051q0 20 -6 30t-27 11l-129 14v162h1089v-414l-225 10l-29 156q-6 27 -34 27h-322v-404h479v-227
h-479v-412h367q16 0 22 3q5 3 10 20l33 180h223v-422h-1134z" />
    <glyph glyph-name="ebreve" unicode="&#x115;" horiz-adv-x="1075" 
d="M905 1450q-35 -134 -117 -206q-84 -73 -235 -73q-152 0 -236 73q-81 71 -116 206l155 59q28 -78 77 -116q47 -37 120 -37q71 0 118 36t79 117zM1026 145q-86 -92 -210 -131t-251 -39q-141 0 -240 44q-95 43 -157 118q-59 73 -85 171q-26 99 -26 204q0 146 41 257
q40 107 114 180q74 72 174 106q103 35 224 35q183 0 291 -90q107 -89 107 -246q0 -105 -43 -169q-44 -66 -123 -100t-196 -45q-110 -10 -261 -10q5 -42 16 -78t37 -67q24 -28 66 -47q43 -19 102 -19q80 0 147 32q63 30 132 85zM594 868q-42 0 -75 -11q-34 -11 -65 -39
q-30 -27 -50 -72q-19 -42 -25 -111q102 0 171 3q67 3 108 15q40 12 57 36q16 23 16 63q0 57 -38 87q-36 29 -99 29z" />
    <glyph glyph-name="Edotaccent" unicode="&#x116;" horiz-adv-x="1284" 
d="M510 1604v417h272v-417h-272zM78 0v160l129 14q23 5 27 11q6 10 6 30v1051q0 20 -6 30t-27 11l-129 14v162h1089v-414l-225 10l-29 156q-6 27 -34 27h-322v-404h479v-227h-479v-412h367q16 0 22 3q5 3 10 20l33 180h223v-422h-1134z" />
    <glyph glyph-name="edotaccent" unicode="&#x117;" horiz-adv-x="1075" 
d="M416 1237v418h272v-418h-272zM1026 145q-86 -92 -210 -131t-251 -39q-141 0 -240 44q-95 43 -157 118q-59 73 -85 171q-26 99 -26 204q0 146 41 257q40 107 114 180q74 72 174 106q103 35 224 35q183 0 291 -90q107 -89 107 -246q0 -105 -43 -169q-44 -66 -123 -100
t-196 -45q-110 -10 -261 -10q5 -42 16 -78t37 -67q24 -28 66 -47q43 -19 102 -19q80 0 147 32q63 30 132 85zM594 868q-42 0 -75 -11q-34 -11 -65 -39q-30 -27 -50 -72q-19 -42 -25 -111q102 0 171 3q67 3 108 15q40 12 57 36q16 23 16 63q0 57 -38 87q-36 29 -99 29z" />
    <glyph glyph-name="Eogonek" unicode="&#x118;" horiz-adv-x="1284" 
d="M1212 0q-43 -16 -80 -43q-42 -30 -67 -58q-29 -31 -45 -66q-16 -33 -16 -66q0 -60 59 -60q15 0 48 5q25 4 58 16l58 -152q-62 -28 -127 -42q-61 -13 -115 -13q-113 0 -166 50t-53 132q0 47 18 91q18 43 49 82q33 42 67 70q36 30 79 54h-901v160l129 14q23 5 27 11
q6 10 6 30v1051q0 20 -6 30t-27 11l-129 14v162h1089v-414l-225 10l-29 156q-6 27 -34 27h-322v-404h479v-227h-479v-412h367q16 0 22 3q5 3 10 20l33 180h223v-422z" />
    <glyph glyph-name="eogonek" unicode="&#x119;" horiz-adv-x="1075" 
d="M930 -424q-62 -28 -127 -42q-61 -13 -115 -13q-113 0 -166 50t-53 132q0 84 53 155q49 66 115 119q-24 -2 -36 -2h-36q-141 0 -240 44q-95 43 -157 118q-59 73 -85 171q-26 99 -26 204q0 146 41 257q40 107 114 180q74 72 174 106q103 35 224 35q183 0 291 -90
q107 -89 107 -246q0 -105 -43 -169q-44 -66 -123 -100t-196 -45q-110 -10 -261 -10q5 -42 16 -78t37 -67q24 -28 66 -47q43 -19 102 -19q80 0 147 32q63 30 132 85l141 -191q-48 -49 -113 -88q-118 -85 -162 -155t-44 -125q0 -70 59 -70q17 0 49 5q24 4 59 16zM594 868
q-42 0 -75 -11q-34 -11 -65 -39q-30 -27 -50 -72q-19 -42 -25 -111q102 0 171 3q67 3 108 15q40 12 57 36q16 23 16 63q0 57 -38 87q-36 29 -99 29z" />
    <glyph glyph-name="Ecaron" unicode="&#x11a;" horiz-adv-x="1284" 
d="M754 1595h-213l-248 228l110 116l244 -165l242 165l112 -116zM78 0v160l129 14q23 5 27 11q6 10 6 30v1051q0 20 -6 30t-27 11l-129 14v162h1089v-414l-225 10l-29 156q-6 27 -34 27h-322v-404h479v-227h-479v-412h367q16 0 22 3q5 3 10 20l33 180h223v-422h-1134z" />
    <glyph glyph-name="ecaron" unicode="&#x11b;" horiz-adv-x="1075" 
d="M446 1192l-249 262l122 109l234 -191l238 191l120 -107l-252 -264h-213zM1026 145q-86 -92 -210 -131t-251 -39q-141 0 -240 44q-95 43 -157 118q-59 73 -85 171q-26 99 -26 204q0 146 41 257q40 107 114 180q74 72 174 106q103 35 224 35q183 0 291 -90
q107 -89 107 -246q0 -105 -43 -169q-44 -66 -123 -100t-196 -45q-110 -10 -261 -10q5 -42 16 -78t37 -67q24 -28 66 -47q43 -19 102 -19q80 0 147 32q63 30 132 85zM594 868q-42 0 -75 -11q-34 -11 -65 -39q-30 -27 -50 -72q-19 -42 -25 -111q102 0 171 3q67 3 108 15
q40 12 57 36q16 23 16 63q0 57 -38 87q-36 29 -99 29z" />
    <glyph glyph-name="Gcircumflex" unicode="&#x11c;" horiz-adv-x="1478" 
d="M782 1737l-241 -166l-113 115l248 229h213l248 -229l-113 -115zM1376 543q-33 -1 -33 -29v-440q-119 -56 -259 -77q-149 -22 -271 -22q-208 0 -353 59t-233 162t-127 243q-39 141 -39 306q0 159 48 305q46 139 143 242t241 160t336 57q60 0 117 -7q74 -9 123 -21
q66 -16 119 -37q56 -22 104 -53v-387l-227 16l-31 184q-5 24 -11 30t-22 11q-47 13 -90 19q-54 8 -98 8q-99 0 -177 -37q-79 -37 -133 -105q-55 -69 -83 -163q-29 -98 -29 -217q0 -257 108 -398t328 -141q47 0 88 4q55 5 82 10q17 5 25 11t8 26v268h-227l28 185h629v-164z
" />
    <glyph glyph-name="gcircumflex" unicode="&#x11d;" horiz-adv-x="1165" 
d="M805 1151l-236 190l-235 -190l-123 106l252 265h213l252 -265zM950 879q26 -32 52 -85q24 -50 24 -122q0 -86 -32 -153q-31 -65 -89 -112t-138 -71q-84 -25 -177 -25q-44 0 -91 5q-30 3 -71 14l-68 -109l201 -12q110 -6 238 -19q110 -11 177 -39q72 -30 110 -88t38 -159
q0 -180 -147 -274q-148 -95 -416 -95q-277 0 -395 68q-117 67 -117 188q0 71 30 114q30 44 83 95q-52 23 -71 58t-19 77q0 36 15 66t44 59q9 9 29 28.5t30 29.5q30 31 68 65q-77 38 -126 115q-50 79 -50 192q0 176 117 287q116 110 352 110q61 0 109 -5q45 -5 79 -15h400
v-174zM563 526q86 0 139 47q54 48 54 127q0 93 -49 139t-138 46q-85 0 -141 -44q-55 -43 -55 -145q0 -76 44 -123t146 -47zM344 -55q-19 -22 -37 -51q-16 -26 -16 -58q0 -62 69 -84q67 -22 179 -22q45 0 94 3t91 15t69 36q26 23 26 64q0 49 -51 61q-42 10 -125 15z" />
    <glyph glyph-name="Gbreve" unicode="&#x11e;" horiz-adv-x="1478" 
d="M1124 1870q-35 -137 -116 -202q-82 -66 -226 -66t-226 66q-83 67 -118 202l158 57q28 -77 77 -109t109 -32q63 0 109 30q48 31 80 111zM1376 543q-32 -1 -32 -29v-440q-118 -56 -260 -77q-149 -22 -271 -22q-208 0 -353 59t-233 162t-127 243q-39 141 -39 306
q0 159 48 305q46 139 143 242t241 160t336 57q60 0 117 -7q74 -9 123 -21q66 -16 119 -37q56 -22 104 -53v-387l-227 16l-31 184q-5 24 -11 30t-22 11q-47 13 -90 19q-54 8 -98 8q-99 0 -177 -37q-79 -37 -133 -105q-55 -69 -83 -163q-29 -98 -29 -217q0 -257 108 -398
t328 -141q47 0 88 4q55 5 82 10q17 5 25 11t8 26v268h-227l28 185h629v-164z" />
    <glyph glyph-name="gbreve" unicode="&#x11f;" horiz-adv-x="1165" 
d="M922 1450q-35 -134 -117 -206q-84 -73 -236 -73q-151 0 -235 73q-82 72 -117 206l156 59q28 -78 77 -116q47 -37 119 -37q71 0 118 36t79 117zM950 879q26 -32 52 -85q24 -50 24 -122q0 -86 -32 -153q-31 -65 -89 -112t-138 -71q-84 -25 -177 -25q-44 0 -91 5
q-30 3 -71 14l-68 -109l201 -12q110 -6 238 -19q110 -11 177 -39q72 -30 110 -88t38 -159q0 -180 -147 -274q-148 -95 -416 -95q-277 0 -395 68q-117 67 -117 188q0 71 30 114q30 44 83 95q-52 23 -71 58t-19 77q0 36 15 66t44 59q9 9 29 28.5t30 29.5q30 31 68 65
q-77 38 -126 115q-50 79 -50 192q0 176 117 287q116 110 352 110q61 0 109 -5q45 -5 79 -15h400v-174zM563 526q86 0 139 47q54 48 54 127q0 93 -49 139t-138 46q-85 0 -141 -44q-55 -43 -55 -145q0 -76 44 -123t146 -47zM344 -55q-19 -22 -37 -51q-16 -26 -16 -58
q0 -62 69 -84q67 -22 179 -22q45 0 94 3t91 15t69 36q26 23 26 64q0 49 -51 61q-42 10 -125 15z" />
    <glyph glyph-name="Gdotaccent" unicode="&#x120;" horiz-adv-x="1478" 
d="M645 1604v417h273v-417h-273zM1376 543q-33 -1 -33 -29v-440q-119 -56 -259 -77q-149 -22 -271 -22q-208 0 -353 59t-233 162t-127 243q-39 141 -39 306q0 159 48 305q46 139 143 242t241 160t336 57q60 0 117 -7q74 -9 123 -21q66 -16 119 -37q56 -22 104 -53v-387
l-227 16l-31 184q-5 24 -11 30t-22 11q-47 13 -90 19q-54 8 -98 8q-99 0 -177 -37q-79 -37 -133 -105q-55 -69 -83 -163q-29 -98 -29 -217q0 -257 108 -398t328 -141q47 0 88 4q55 5 82 10q17 5 25 11t8 26v268h-227l28 185h629v-164z" />
    <glyph glyph-name="gdotaccent" unicode="&#x121;" horiz-adv-x="1165" 
d="M432 1237v418h273v-418h-273zM950 879q26 -32 52 -85q24 -50 24 -122q0 -86 -32 -153q-31 -65 -89 -112t-138 -71q-84 -25 -177 -25q-44 0 -91 5q-30 3 -71 14l-68 -109l201 -12q110 -6 238 -19q110 -11 177 -39q72 -30 110 -88t38 -159q0 -180 -147 -274
q-148 -95 -416 -95q-277 0 -395 68q-117 67 -117 188q0 71 30 114q30 44 83 95q-52 23 -71 58t-19 77q0 36 15 66t44 59q9 9 29 28.5t30 29.5q30 31 68 65q-77 38 -126 115q-50 79 -50 192q0 176 117 287q116 110 352 110q61 0 109 -5q45 -5 79 -15h400v-174zM563 526
q86 0 139 47q54 48 54 127q0 93 -49 139t-138 46q-85 0 -141 -44q-55 -43 -55 -145q0 -76 44 -123t146 -47zM344 -55q-19 -22 -37 -51q-16 -26 -16 -58q0 -62 69 -84q67 -22 179 -22q45 0 94 3t91 15t69 36q26 23 26 64q0 49 -51 61q-42 10 -125 15z" />
    <glyph glyph-name="uni0122" unicode="&#x122;" horiz-adv-x="1478" 
d="M1376 543q-33 -1 -33 -29v-440q-119 -56 -259 -77q-149 -22 -271 -22q-208 0 -353 59t-233 162t-127 243q-39 141 -39 306q0 159 48 305q46 139 143 242t241 160t336 57q60 0 117 -7q74 -9 123 -21q66 -16 119 -37q56 -22 104 -53v-387l-227 16l-31 184q-5 24 -11 30
t-22 11q-47 13 -90 19q-54 8 -98 8q-99 0 -177 -37q-79 -37 -133 -105q-55 -69 -83 -163q-29 -98 -29 -217q0 -257 108 -398t328 -141q47 0 88 4q55 5 82 10q17 5 25 11t8 26v268h-227l28 185h629v-164zM649 -348v233h248q28 -40 33 -101q4 -59 -25 -124l-102 -227l-107 35
l39 151q7 33 -24 33h-62z" />
    <glyph glyph-name="uni0123" unicode="&#x123;" horiz-adv-x="1165" 
d="M459 1198q-29 40 -33 102q-4 60 25 125l102 226l106 -33l-38 -154q-4 -12 2 -21t22 -9h62v-236h-248zM950 879q26 -32 52 -85q24 -50 24 -122q0 -86 -32 -153q-31 -65 -89 -112t-138 -71q-84 -25 -177 -25q-44 0 -91 5q-30 3 -71 14l-68 -109l201 -12q110 -6 238 -19
q110 -11 177 -39q72 -30 110 -88t38 -159q0 -180 -147 -274q-148 -95 -416 -95q-277 0 -395 68q-117 67 -117 188q0 71 30 114q30 44 83 95q-52 23 -71 58t-19 77q0 36 15 66t44 59q9 9 29 28.5t30 29.5q30 31 68 65q-77 38 -126 115q-50 79 -50 192q0 176 117 287
q116 110 352 110q61 0 109 -5q45 -5 79 -15h400v-174zM563 526q86 0 139 47q54 48 54 127q0 93 -49 139t-138 46q-85 0 -141 -44q-55 -43 -55 -145q0 -76 44 -123t146 -47zM344 -55q-19 -22 -37 -51q-16 -26 -16 -58q0 -62 69 -84q67 -22 179 -22q45 0 94 3t91 15t69 36
q26 23 26 64q0 49 -51 61q-42 10 -125 15z" />
    <glyph glyph-name="Hcircumflex" unicode="&#x124;" horiz-adv-x="1675" 
d="M846 1737l-242 -166l-112 115l247 229h213l248 -229l-113 -115zM956 0v160l129 14q24 5 28 11q5 8 5 30v432h-561v-430q0 -24 5 -31q4 -5 28 -10l137 -16v-160h-649v160l129 14q23 5 27 11q6 10 6 30v1049q0 20 -6 30t-27 11l-129 14v164h649v-164l-137 -16
q-23 -5 -28 -11q-5 -7 -5 -28v-387h561v387q0 22 -5 30q-6 10 -28 11l-129 14v164h648v-164l-138 -16q-22 -4 -27 -11t-5 -28v-1047q0 -24 5 -31q4 -5 27 -10l138 -16v-160h-648z" />
    <glyph glyph-name="hcircumflex" unicode="&#x125;" horiz-adv-x="1277" 
d="M285 1782l-215 -166l-113 115l221 229h213l221 -229l-112 -115zM809 0v668q0 13 -2 53q-2 31 -13 57q-12 27 -33 45q-22 19 -61 19q-56 0 -115 -24q-61 -25 -98 -52v-549q0 -23 6 -31q4 -5 27 -10l98 -14v-162h-565v162l92 14q24 5 28 11q5 8 5 30v1081q0 36 -26 43
l-113 39l22 166h422v-579l11 -2q68 57 149 90q77 32 178 32q165 0 231 -86t66 -245v-539q0 -24 5 -31q4 -5 28 -10l102 -14v-162h-444z" />
    <glyph glyph-name="Hbar" unicode="&#x126;" horiz-adv-x="1705" 
d="M973 0v160l129 14q23 5 27 11q6 10 6 30v432h-562v-430q0 -23 6 -31q4 -5 27 -10l137 -16v-160h-649v160l129 14q24 5 28 11q5 8 5 30v786h-135v179h135v84q0 22 -5 30q-6 10 -28 11l-129 14v164h649v-164l-137 -16q-22 -4 -27 -11q-6 -8 -6 -28v-84h562v84q0 20 -6 30
t-27 11l-129 14v164h647v-164l-137 -16q-23 -5 -28 -11q-5 -7 -5 -28v-84h137v-179h-137v-784q0 -24 5 -31q4 -5 28 -10l137 -16v-160h-647zM1135 877v124h-562v-124h562z" />
    <glyph glyph-name="hbar" unicode="&#x127;" horiz-adv-x="1277" 
d="M809 0v606q0 13 -2 53q-2 32 -13 58q-12 27 -33 45t-61 18q-59 0 -115 -23q-61 -25 -98 -52v-488q0 -23 6 -31q4 -5 27 -10l98 -14v-162h-565v162l92 14q24 5 28 11q5 8 5 30v881h-117v176h117v24q0 36 -26 43l-113 39l22 166h422v-272h318v-176h-318v-193l11 -2
q68 57 149 90q80 33 178 33q165 0 231 -86t66 -246v-477q0 -24 5 -31q4 -5 28 -10l102 -14v-162h-444z" />
    <glyph glyph-name="Itilde" unicode="&#x128;" horiz-adv-x="827" 
d="M745 1716q-33 -60 -61 -88q-29 -29 -74 -29q-23 0 -63 9q-12 3 -40.5 10t-43.5 10q-7 2 -60 16q-13 4 -36 9.5t-25 6.5q-26 7 -50 12q-23 5 -30 5q-16 0 -33 -16l-67 -64l-113 72l62 105q27 47 61 75q33 27 74 27q43 0 129 -25q21 -6 113 -29q77 -19 90 -22q22 -6 32 8
l60 64l121 -74zM74 0v160l149 14q23 2 28 10t5 31v1049q0 22 -5 30q-6 10 -28 11l-149 14v164h688v-164l-158 -16q-22 -4 -27 -11q-6 -8 -6 -28v-1047q0 -23 6 -31q4 -5 27 -10l158 -16v-160h-688z" />
    <glyph glyph-name="itilde" unicode="&#x129;" horiz-adv-x="647" 
d="M602 1296q-32 -59 -60 -88q-27 -28 -71 -28q-26 0 -60 8q-11 3 -37.5 9.5t-43.5 10.5q-14 3 -57 16q-7 2 -57 16q-24 7 -49 12q-23 5 -30 5q-15 0 -31 -16l-65 -63l-109 71l60 105q28 49 58 76q29 26 71 26q45 0 125 -24q54 -16 109 -30q15 -4 34 -9t31 -8l20 -5
q19 -4 31 9l57 63l117 -74zM41 0v162l104 14q24 5 28 11q5 8 5 30v602q0 36 -26 43l-111 39l22 166h424v-850q0 -23 6 -31q4 -5 27 -10l105 -14v-162h-584z" />
    <glyph glyph-name="Imacron" unicode="&#x12a;" horiz-adv-x="827" 
d="M94 1608v204h649v-204h-649zM74 0v160l149 14q23 2 28 10t5 31v1049q0 22 -5 30q-6 10 -28 11l-149 14v164h688v-164l-158 -16q-22 -4 -27 -11q-6 -8 -6 -28v-1047q0 -23 6 -31q4 -5 27 -10l158 -16v-160h-688z" />
    <glyph glyph-name="imacron" unicode="&#x12b;" horiz-adv-x="647" 
d="M16 1221v204h535v-204h-535zM41 0v162l104 14q24 5 28 11q5 8 5 30v602q0 36 -26 43l-111 39l22 166h424v-850q0 -23 6 -31q4 -5 27 -10l105 -14v-162h-584z" />
    <glyph glyph-name="Ibreve" unicode="&#x12c;" horiz-adv-x="827" 
d="M760 1870q-35 -136 -117 -202t-225 -66q-144 0 -227 66q-82 66 -117 202l157 57q28 -77 77 -109t110 -32q62 0 108 30q48 31 80 111zM74 0v160l149 14q23 2 28 10t5 31v1049q0 22 -5 30q-6 10 -28 11l-149 14v164h688v-164l-158 -16q-22 -4 -27 -11q-6 -8 -6 -28v-1047
q0 -23 6 -31q4 -5 27 -10l158 -16v-160h-688z" />
    <glyph glyph-name="ibreve" unicode="&#x12d;" horiz-adv-x="647" 
d="M614 1444q-35 -135 -109 -206q-76 -73 -218 -73q-141 0 -219 73q-76 71 -109 206l156 59q24 -79 66 -117q40 -36 106 -36q64 0 103 35q41 36 69 118zM41 0v162l104 14q24 5 28 11q5 8 5 30v602q0 36 -26 43l-111 39l22 166h424v-850q0 -23 6 -31q4 -5 27 -10l105 -14
v-162h-584z" />
    <glyph glyph-name="Iogonek" unicode="&#x12e;" horiz-adv-x="827" 
d="M608 -424q-62 -28 -127 -42q-61 -13 -114 -13q-113 0 -166 50q-54 51 -54 132q0 47 18 90t45 81q30 42 61 70q39 36 67 56h-264v160l149 14q23 2 28 10t5 31v1049q0 22 -5 30q-6 10 -28 11l-149 14v164h688v-164l-158 -16q-22 -4 -27 -11q-6 -8 -6 -28v-1047q0 -23 6 -31
q4 -5 27 -10l158 -16v-160h-221q-3 -3 -21.5 -19.5t-29.5 -27.5q-27 -27 -51 -57q-24 -29 -39 -65q-15 -35 -15 -64q0 -60 59 -60q16 0 49 5q25 4 58 16z" />
    <glyph glyph-name="iogonek" unicode="&#x12f;" horiz-adv-x="647" 
d="M305 1595q91 0 138 -46q49 -47 49 -134t-49 -136q-48 -48 -138 -48q-88 0 -136 48t-48 136q0 87 48 134q47 46 136 46zM504 -424q-62 -28 -127 -42q-61 -13 -115 -13q-113 0 -166 50t-53 132q0 49 17 90q18 43 45 81q28 39 62 70q43 39 66 56h-192v162l104 14q24 5 28 11
q5 8 5 30v602q0 36 -26 43l-111 39l22 166h424v-850q0 -23 6 -31q4 -5 27 -10l105 -14v-162h-189q-45 -42 -50 -47q-27 -27 -51 -57q-24 -29 -39 -65q-15 -35 -15 -64q0 -60 59 -60q15 0 48 5q25 4 58 16z" />
    <glyph glyph-name="Idotaccent" unicode="&#x130;" horiz-adv-x="827" 
d="M281 1604v417h272v-417h-272zM74 0v160l149 14q23 2 28 10t5 31v1049q0 22 -5 30q-6 10 -28 11l-149 14v164h688v-164l-158 -16q-22 -4 -27 -11q-6 -8 -6 -28v-1047q0 -23 6 -31q4 -5 27 -10l158 -16v-160h-688z" />
    <glyph glyph-name="dotlessi" unicode="&#x131;" horiz-adv-x="647" 
d="M41 0v162l104 14q24 5 28 11q5 8 5 30v602q0 36 -26 43l-111 39l22 166h424v-850q0 -23 6 -31q4 -5 27 -10l105 -14v-162h-584z" />
    <glyph glyph-name="IJ" unicode="&#x132;" horiz-adv-x="1855" 
d="M74 0v160l149 14q23 2 28 10t5 31v1049q0 22 -5 30q-6 10 -28 11l-149 14v164h688v-164l-158 -16q-22 -4 -27 -11q-6 -8 -6 -28v-1047q0 -23 6 -31q4 -5 27 -10l158 -16v-160h-688zM1339 1266q0 22 -6 29q-7 9 -26 10l-185 14v164h705v-164l-137 -16q-22 -5 -28 -10
q-5 -5 -5 -27v-932q0 -183 -91 -271t-296 -88q-57 0 -121 8q-73 9 -112 18q-58 13 -91 26q-45 17 -61 28v365l229 -17l21 -147q2 -21 22 -27q6 -3 33 -8q20 -4 49 -4q58 0 79 27t21 92v930z" />
    <glyph glyph-name="ij" unicode="&#x133;" horiz-adv-x="1230" 
d="M172 1237v418h274v-418h-274zM797 1237v418h274v-418h-274zM41 0v164l104 12q24 5 28 11q5 8 5 30v602q0 36 -26 43l-111 39l22 166h424v-850q0 -23 6 -31q4 -5 27 -10l105 -14v-162h-584zM752 -457q-64 0 -119 12q-65 14 -99 27q-49 19 -76 34q-34 20 -48 32l88 170
q26 -18 73 -35q52 -19 105 -19q63 0 93 36t30 143v876q0 35 -27 43l-117 39l25 166h428v-1176q0 -186 -91 -267t-265 -81z" />
    <glyph glyph-name="Jcircumflex" unicode="&#x134;" horiz-adv-x="1056" 
d="M682 1737l-242 -166l-112 115l247 229h213l248 -229l-112 -115zM526 1266q0 22 -6 29q-7 9 -26 10l-185 14v164h705v-164l-137 -16q-23 -5 -28 -10t-5 -27v-932q0 -183 -91 -271t-296 -88q-57 0 -121 8q-73 9 -112 18q-58 13 -91 26q-45 17 -61 28v365l229 -17l21 -147
q2 -21 22 -27q6 -3 33 -8q20 -4 49 -4q58 0 79 27t21 92v930z" />
    <glyph glyph-name="jcircumflex" unicode="&#x135;" horiz-adv-x="622" 
d="M506 1159l-236 191l-235 -191l-123 107l252 264h213l252 -264zM174 819q0 35 -27 43l-116 39l24 166h428v-1176q0 -186 -92 -267q-91 -81 -264 -81q-63 0 -119 12q-65 14 -99 27q-49 19 -76 34q-34 20 -48 32l88 170q25 -17 74 -35q52 -19 104 -19q63 0 93 36t30 143v876
z" />
    <glyph glyph-name="uni0136" unicode="&#x136;" horiz-adv-x="1540" 
d="M1069 0l-383 592l-129 -154v-219q0 -24 5 -31q4 -5 28 -10l158 -16v-162h-670v162l129 14q22 1 27 10q6 10 6 31v1049q0 19 -6 29q-4 7 -27 12l-129 14v162h649v-162l-137 -16q-23 -5 -28 -11q-5 -7 -5 -28v-512l483 549l-127 16v164h537v-164l-86 -14q-28 -5 -39 -12
q-12 -8 -25 -23l-376 -426l411 -629q15 -21 25 -25q6 -3 35 -8l127 -20v-162h-453zM637 -348v233h248q28 -40 33 -101q4 -59 -25 -124l-102 -227l-107 35l39 151q7 33 -25 33h-61z" />
    <glyph glyph-name="uni0137" unicode="&#x137;" horiz-adv-x="1290" 
d="M43 0v164l102 12q24 5 28 11q5 8 5 30v1083q0 33 -26 43l-113 39l22 164h426v-581q71 58 164 92q90 33 191 33q153 0 238 -85t85 -217q0 -47 -7 -90q-8 -49 -31 -91q-26 -48 -65 -85q-41 -40 -114 -73l58 -115q33 -66 65 -98q33 -34 80 -35q37 0 88 18l39 -194
q-33 -20 -87 -34t-112 -14q-68 0 -124 16q-50 14 -92 44q-36 26 -69 73q-29 42 -57 101l-75 164l-91 -8q-61 -6 -84 -7v-143q0 -23 6 -31q4 -5 27 -10l94 -14v-162h-571zM723 850q-55 0 -113 -26q-57 -26 -123 -72v-170q120 0 189 15q68 15 106 39q36 23 48 52t12 55
q0 49 -32 78t-87 29zM496 -348v233h247q28 -40 33 -101t-24 -124l-103 -227l-106 35l39 151q8 33 -25 33h-61z" />
    <glyph glyph-name="kgreenlandic" unicode="&#x138;" horiz-adv-x="1269" 
d="M858 0l-260 522l-111 -121v-184q0 -23 6 -31q4 -5 27 -10l123 -14v-162h-600v162l102 14q24 5 28 11q5 8 5 30v602q0 36 -26 43l-113 39l22 166h426v-395l375 395h283v-162l-107 -20q-20 -4 -28 -9q-7 -4 -23 -22l-145 -154l262 -489q11 -24 23 -28q13 -4 38 -9l90 -14
v-160h-397z" />
    <glyph glyph-name="Lacute" unicode="&#x139;" horiz-adv-x="1277" 
d="M244 1571l-72 135l422 250l104 -203zM78 0v162l129 14q23 5 27 11q6 10 6 30v1049q0 20 -6 30t-27 11l-129 14v162h682v-162l-170 -16q-23 -2 -28 -10t-5 -29v-1047h365q16 0 22 3q5 3 10 20l33 204h225v-446h-1134z" />
    <glyph glyph-name="lacute" unicode="&#x13a;" horiz-adv-x="647" 
d="M86 1612l-72 135l422 250l105 -203zM43 0v162l102 14q24 5 28 11q5 8 5 30v1081q0 36 -26 43l-113 39l22 166h426v-1329q0 -23 6 -31q4 -5 27 -10l101 -14v-162h-578z" />
    <glyph glyph-name="uni013B" unicode="&#x13b;" horiz-adv-x="1277" 
d="M78 0v162l129 14q23 5 27 11q6 10 6 30v1049q0 20 -6 30t-27 11l-129 14v162h682v-162l-170 -16q-23 -2 -28 -10t-5 -29v-1047h365q16 0 22 3q5 3 10 20l33 204h225v-446h-1134zM532 -348v233h248q28 -40 33 -101q4 -59 -25 -124l-102 -227l-106 35l38 151q8 33 -24 33
h-62z" />
    <glyph glyph-name="uni013C" unicode="&#x13c;" horiz-adv-x="647" 
d="M43 0v162l102 14q24 5 28 11q5 8 5 30v1081q0 36 -26 43l-113 39l22 166h426v-1329q0 -23 6 -31q4 -5 27 -10l101 -14v-162h-578zM186 -348v233h248q28 -40 33 -101q4 -59 -25 -124l-102 -227l-107 35l39 151q8 33 -24 33h-62z" />
    <glyph glyph-name="Lcaron" unicode="&#x13d;" horiz-adv-x="1277" 
d="M864 1092q13 44 28 116q13 61 13 125q0 45 -8 79q-7 32 -18 48l215 82q20 -27 29 -64q10 -40 10 -71q0 -38 -13 -92q-5 -17 -20 -61q-7 -19 -27 -70q-18 -44 -31 -72q-2 -4 -13 -28t-17 -35zM78 0v162l129 14q23 5 27 11q6 10 6 30v1049q0 20 -6 30t-27 11l-129 14v162
h682v-162l-170 -16q-23 -2 -28 -10t-5 -29v-1047h365q16 0 22 3q5 3 10 20l33 204h225v-446h-1134z" />
    <glyph glyph-name="lcaron" unicode="&#x13e;" horiz-adv-x="856" 
d="M567 1145q12 41 28 117q13 61 13 124q0 45 -8 79q-8 31 -18 48l215 82q20 -27 29 -64q10 -40 10 -71q0 -38 -13 -92q-3 -12 -20 -60q-9 -27 -27 -71t-31 -72q-2 -4 -13 -28t-17 -35zM43 0v162l102 14q24 5 28 11q5 8 5 30v1081q0 36 -26 43l-113 39l22 166h426v-1329
q0 -23 6 -31q4 -5 27 -10l101 -14v-162h-578z" />
    <glyph glyph-name="Ldot" unicode="&#x13f;" horiz-adv-x="1277" 
d="M78 0v162l129 14q23 5 27 11q6 10 6 30v1049q0 20 -6 30t-27 11l-129 14v162h682v-162l-170 -16q-23 -2 -28 -10t-5 -29v-1047h365q16 0 22 3q5 3 10 20l33 204h225v-446h-1134zM893 655v400h260v-400h-260z" />
    <glyph glyph-name="ldot" unicode="&#x140;" horiz-adv-x="884" 
d="M43 0v162l102 14q24 5 28 11q5 8 5 30v1081q0 36 -26 43l-113 39l22 166h426v-1329q0 -23 6 -31q4 -5 27 -10l101 -14v-162h-578zM637 641v399h260v-399h-260z" />
    <glyph glyph-name="Lslash" unicode="&#x141;" horiz-adv-x="1277" 
d="M78 0v162l129 14q23 5 27 11q6 10 6 30v330l-148 -60v215l148 60v504q0 20 -6 30t-27 11l-129 14v162h682v-162l-170 -16q-23 -2 -28 -10t-5 -29v-375l399 164v-219l-399 -162v-455h365q16 0 22 3q5 3 10 20l33 204h225v-446h-1134z" />
    <glyph glyph-name="lslash" unicode="&#x142;" horiz-adv-x="681" 
d="M43 0v162l102 14q24 5 28 11q5 8 5 30v430l-153 -65v221l153 65v430q0 36 -26 43l-113 39l22 166h426v-542l150 65v-221l-150 -66v-565q0 -23 6 -31q4 -5 27 -10l101 -14v-162h-578z" />
    <glyph glyph-name="Nacute" unicode="&#x143;" horiz-adv-x="1693" 
d="M676 1571l-72 135l422 250l104 -203zM1130 0l-653 1069v-852q0 -24 5 -31q4 -5 28 -10l137 -16v-160h-569v160l129 14q23 5 27 11q6 10 6 30v1053q0 20 -6 30t-27 11l-129 14v160h508l643 -1071v852q0 22 -5 30q-6 10 -28 11l-129 14v164h569v-164l-137 -16
q-23 -5 -28 -11q-5 -7 -5 -28v-1264h-336z" />
    <glyph glyph-name="nacute" unicode="&#x144;" horiz-adv-x="1277" 
d="M504 1149l-115 102l313 357l168 -160zM809 0v662q0 25 -2 69q-2 34 -13 57q-12 24 -33 39t-61 15q-55 0 -118 -26q-61 -25 -95 -50v-549q0 -23 6 -31q4 -5 27 -10l98 -14v-162h-565v164l92 12q24 5 28 11q5 8 5 30v602q0 36 -26 43l-111 39l25 166h358l16 -106l9 -5
q80 59 166 95q85 36 194 36q168 0 239 -89q70 -88 70 -259v-522q0 -24 5 -31q4 -5 28 -10l102 -14v-162h-444z" />
    <glyph glyph-name="uni0145" unicode="&#x145;" horiz-adv-x="1693" 
d="M1130 0l-653 1069v-852q0 -24 5 -31q4 -5 28 -10l137 -16v-160h-569v160l129 14q23 5 27 11q6 10 6 30v1053q0 20 -6 30t-27 11l-129 14v160h508l643 -1071v852q0 22 -5 30q-6 10 -28 11l-129 14v164h569v-164l-137 -16q-23 -5 -28 -11q-5 -7 -5 -28v-1264h-336z
M694 -348v233h248q28 -40 33 -101q4 -59 -25 -124l-102 -227l-107 35l39 151q8 33 -24 33h-62z" />
    <glyph glyph-name="uni0146" unicode="&#x146;" horiz-adv-x="1277" 
d="M809 0v662q0 25 -2 69q-2 34 -13 57q-12 24 -33 39t-61 15q-55 0 -118 -26q-61 -25 -95 -50v-549q0 -23 6 -31q4 -5 27 -10l98 -14v-162h-565v164l92 12q24 5 28 11q5 8 5 30v602q0 36 -26 43l-111 39l25 166h358l16 -106l9 -5q80 59 166 95q85 36 194 36q168 0 239 -89
q70 -88 70 -259v-522q0 -24 5 -31q4 -5 28 -10l102 -14v-162h-444zM500 -348v233h248q27 -39 32 -101q5 -61 -24 -124l-103 -227l-106 35l39 151q8 33 -25 33h-61z" />
    <glyph glyph-name="Ncaron" unicode="&#x147;" horiz-adv-x="1693" 
d="M936 1595h-213l-248 228l111 116l243 -165l242 165l113 -116zM1130 0l-653 1069v-852q0 -24 5 -31q4 -5 28 -10l137 -16v-160h-569v160l129 14q23 5 27 11q6 10 6 30v1053q0 20 -6 30t-27 11l-129 14v160h508l643 -1071v852q0 22 -5 30q-6 10 -28 11l-129 14v164h569
v-164l-137 -16q-23 -5 -28 -11q-5 -7 -5 -28v-1264h-336z" />
    <glyph glyph-name="ncaron" unicode="&#x148;" horiz-adv-x="1277" 
d="M510 1192l-250 262l123 109l233 -191l238 191l121 -107l-252 -264h-213zM809 0v662q0 25 -2 69q-2 34 -13 57q-12 24 -33 39t-61 15q-55 0 -118 -26q-61 -25 -95 -50v-549q0 -23 6 -31q4 -5 27 -10l98 -14v-162h-565v164l92 12q24 5 28 11q5 8 5 30v602q0 36 -26 43
l-111 39l25 166h358l16 -106l9 -5q80 59 166 95q85 36 194 36q168 0 239 -89q70 -88 70 -259v-522q0 -24 5 -31q4 -5 28 -10l102 -14v-162h-444z" />
    <glyph glyph-name="Eng" unicode="&#x14a;" horiz-adv-x="1691" 
d="M1464 -109q0 -186 -99 -267t-284 -81q-65 0 -129 14q-65 14 -111 31q-50 18 -85 38q-36 20 -51 34l88 170q29 -20 93 -43t118 -23q70 0 111 36q40 36 40 143v57l-678 1069v-852q0 -24 5 -31q4 -5 28 -10l137 -16v-160h-569v160l129 14q23 5 27 11q6 10 6 30v1053
q0 20 -6 30t-27 11l-129 14v160h508l643 -1047v828q0 22 -5 30q-6 10 -28 11l-129 14v164h567v-164l-137 -16q-23 -5 -28 -11q-5 -7 -5 -28v-1373z" />
    <glyph glyph-name="eng" unicode="&#x14b;" horiz-adv-x="1277" 
d="M809 662q0 25 -2 69q-2 34 -13 57q-12 24 -33 39t-61 15q-55 0 -118 -26q-61 -25 -95 -50v-549q0 -23 6 -31q4 -5 27 -10l98 -14v-162h-565v164l92 12q24 5 28 11q5 8 5 30v602q0 36 -26 43l-111 39l25 166h358l16 -106l9 -5q80 59 166 95q85 36 194 36q168 0 239 -89
q70 -88 70 -259v-848q0 -186 -92 -267t-264 -81q-64 0 -119 12q-65 14 -99 27q-49 19 -76 34q-34 20 -48 32l88 170q25 -17 74 -35q52 -19 104 -19q63 0 93 36t30 143v719z" />
    <glyph glyph-name="Omacron" unicode="&#x14c;" horiz-adv-x="1554" 
d="M469 1616v205h649v-205h-649zM1491 764q0 -179 -44 -326q-43 -145 -134 -249q-88 -102 -227 -158q-138 -56 -318 -56q-186 0 -319 57q-138 59 -220 157q-86 103 -126 242t-40 306q0 162 47 305q47 142 138 245q90 102 229 163q134 59 320 59q184 0 313 -58
q131 -59 216 -160t125 -237q40 -135 40 -290zM391 743q0 -132 28 -235q26 -96 79 -161q50 -62 123 -91t159 -29q84 0 157 28q71 27 122 90q53 65 79 161q27 99 27 239q0 267 -99 387q-98 119 -273 119q-91 0 -162 -29q-75 -31 -127 -93q-54 -64 -83 -157q-30 -94 -30 -229z
" />
    <glyph glyph-name="omacron" unicode="&#x14d;" horiz-adv-x="1189" 
d="M285 1227v205h649v-205h-649zM1135 549q0 -134 -34 -237q-35 -105 -102 -180q-68 -76 -172 -116q-106 -41 -245 -41q-141 0 -241 41q-99 40 -163 114q-63 72 -93 174t-30 222q0 129 34 231q35 106 102 177q69 73 173 114q100 39 244 39q145 0 242 -39q102 -41 164 -112
q64 -73 92 -171q29 -101 29 -216zM379 537q0 -189 56 -267q57 -80 161 -80q101 0 158 78t57 271q0 182 -53 255q-52 72 -154 72q-100 0 -163 -72q-62 -71 -62 -257z" />
    <glyph glyph-name="Obreve" unicode="&#x14e;" horiz-adv-x="1554" 
d="M1135 1878q-35 -136 -117 -202t-225 -66q-145 0 -227 66t-117 202l157 57q28 -77 77 -109t110 -32t108 30q48 31 80 111zM1491 764q0 -179 -44 -326q-43 -145 -134 -249q-88 -102 -227 -158q-138 -56 -318 -56q-186 0 -319 57q-138 59 -220 157q-86 103 -126 242t-40 306
q0 162 47 305q47 142 138 245q90 102 229 163q134 59 320 59q184 0 313 -58q131 -59 216 -160t125 -237q40 -135 40 -290zM391 743q0 -132 28 -235q26 -96 79 -161q50 -62 123 -91t159 -29q84 0 157 28q71 27 122 90q53 65 79 161q27 99 27 239q0 267 -99 387
q-98 119 -273 119q-91 0 -162 -29q-75 -31 -127 -93q-54 -64 -83 -157q-30 -94 -30 -229z" />
    <glyph glyph-name="obreve" unicode="&#x14f;" horiz-adv-x="1189" 
d="M961 1450q-35 -134 -117 -206q-84 -73 -236 -73q-151 0 -235 73q-82 72 -117 206l156 59q28 -79 76 -116q47 -37 120 -37q71 0 118 36t79 117zM1135 549q0 -134 -34 -237q-35 -105 -102 -180q-68 -76 -172 -116q-106 -41 -245 -41q-141 0 -241 41q-99 40 -163 114
q-63 72 -93 174t-30 222q0 129 34 231q35 106 102 177q69 73 173 114q100 39 244 39q145 0 242 -39q102 -41 164 -112q64 -73 92 -171q29 -101 29 -216zM379 537q0 -189 56 -267q57 -80 161 -80q101 0 158 78t57 271q0 182 -53 255q-52 72 -154 72q-100 0 -163 -72
q-62 -71 -62 -257z" />
    <glyph glyph-name="Ohungarumlaut" unicode="&#x150;" horiz-adv-x="1554" 
d="M559 1577l-106 109l315 348l152 -156zM930 1577l-86 104l340 322l137 -164zM1491 764q0 -179 -44 -326q-43 -145 -134 -249q-88 -102 -227 -158q-138 -56 -318 -56q-186 0 -319 57q-138 59 -220 157q-86 103 -126 242t-40 306q0 162 47 305q47 142 138 245
q90 102 229 163q134 59 320 59q184 0 313 -58q131 -59 216 -160t125 -237q40 -135 40 -290zM391 743q0 -132 28 -235q26 -96 79 -161q50 -62 123 -91t159 -29q84 0 157 28q71 27 122 90q53 65 79 161q27 99 27 239q0 267 -99 387q-98 119 -273 119q-91 0 -162 -29
q-75 -31 -127 -93q-54 -64 -83 -157q-30 -94 -30 -229z" />
    <glyph glyph-name="ohungarumlaut" unicode="&#x151;" horiz-adv-x="1189" 
d="M377 1147l-121 100l289 375l174 -152zM772 1147l-119 100l289 375l172 -152zM1135 549q0 -134 -34 -237q-35 -105 -102 -180q-68 -76 -172 -116q-106 -41 -245 -41q-141 0 -241 41q-99 40 -163 114q-63 72 -93 174t-30 222q0 129 34 231q35 106 102 177q69 73 173 114
q100 39 244 39q145 0 242 -39q102 -41 164 -112q64 -73 92 -171q29 -101 29 -216zM379 537q0 -189 56 -267q57 -80 161 -80q101 0 158 78t57 271q0 182 -53 255q-52 72 -154 72q-100 0 -163 -72q-62 -71 -62 -257z" />
    <glyph glyph-name="OE" unicode="&#x152;" horiz-adv-x="2041" 
d="M918 0q-98 -25 -211 -25q-181 0 -304 57t-198 157q-76 101 -109 242t-33 306q0 164 39 305q39 142 120 245t208 163q125 59 305 59q63 0 111 -7q57 -8 98 -19h981v-414l-225 10l-29 156q-6 27 -35 27h-399q59 -77 91 -182t38 -222h434v-227h-436q-11 -130 -43 -231
q-33 -103 -96 -181h456q17 0 23 3q5 3 10 20l33 180h223v-422h-1052zM401 743q0 -255 78 -375t238 -120q159 0 238 118t79 379q0 243 -75 367q-75 125 -226 125q-161 0 -246 -126q-86 -127 -86 -368z" />
    <glyph glyph-name="oe" unicode="&#x153;" horiz-adv-x="1818" 
d="M1769 145q-41 -42 -96 -77q-53 -33 -111 -54q-53 -19 -119 -29q-67 -10 -116 -10q-129 0 -219 43q-93 44 -152 115q-67 -77 -161 -117q-97 -41 -217 -41q-137 0 -237 41q-99 41 -163 115q-63 73 -93 177t-30 231q0 122 33 224q33 103 100 174q68 72 170 113
q101 40 240 40q124 0 217 -43q96 -44 158 -121q73 84 175 124q101 40 218 40q173 0 281 -90q106 -88 106 -246q0 -101 -40 -165q-42 -66 -119 -100q-81 -35 -195 -47q-117 -12 -271 -12q4 -36 17 -78q11 -36 37 -67q24 -29 65 -47q43 -19 103 -19q78 0 147 32q63 30 133 85z
M373 537q0 -188 56 -265t161 -77q51 0 91 17q43 18 72 58q29 39 46 107q16 64 16 162q0 184 -56 256q-57 73 -157 73q-53 0 -93 -17q-45 -19 -73 -56q-30 -39 -47 -103q-16 -61 -16 -155zM1337 868q-35 0 -73 -12q-35 -11 -67 -40q-28 -25 -49 -72q-20 -45 -26 -109
q100 0 168 3q73 3 109 14q41 12 58 35q18 24 18 65q0 57 -38 87q-36 29 -100 29z" />
    <glyph glyph-name="Racute" unicode="&#x154;" horiz-adv-x="1406" 
d="M518 1571l-72 135l422 250l105 -203zM956 0l-184 514q-18 53 -43 73q-23 19 -78 19h-96v-385q0 -24 5 -31q4 -5 28 -10l143 -16v-164h-653v164l129 14q22 1 27 10q6 10 6 31v1047q0 19 -6 29q-4 7 -27 12l-129 14v162h698q141 0 231 -34q91 -34 146 -91t78 -131
q22 -72 22 -154q0 -159 -74 -249q-75 -92 -196 -144q46 -23 70 -60q26 -40 49 -104l112 -293q11 -22 26 -28q16 -7 36 -11l127 -20v-164h-447zM649 819q53 0 106 8q48 7 89 34q38 25 61 72q23 48 23 122q0 118 -67 162q-65 43 -204 43h-102v-441h94z" />
    <glyph glyph-name="racute" unicode="&#x155;" horiz-adv-x="968" 
d="M360 1149l-114 102l313 357l168 -160zM53 0v166l92 12q24 5 28 11q5 8 5 30v600q0 36 -26 43l-111 39l22 166h361l25 -164h12q51 77 121 131q70 53 168 53q27 0 43 -1q34 -2 50 -4q25 -3 48 -6q25 -3 37 -7v-373l-246 9l-20 108q-5 23 -27 23q-40 0 -83 -26
q-45 -27 -65 -46v-543q0 -22 6 -32q5 -7 27 -9l203 -16v-164h-670z" />
    <glyph glyph-name="uni0156" unicode="&#x156;" horiz-adv-x="1406" 
d="M956 0l-184 514q-18 53 -43 73q-23 19 -78 19h-96v-385q0 -24 5 -31q4 -5 28 -10l143 -16v-164h-653v164l129 14q22 1 27 10q6 10 6 31v1047q0 19 -6 29q-4 7 -27 12l-129 14v162h698q141 0 231 -34q91 -34 146 -91t78 -131q22 -72 22 -154q0 -159 -74 -249
q-75 -92 -196 -144q46 -23 70 -60q26 -40 49 -104l112 -293q11 -22 26 -28q16 -7 36 -11l127 -20v-164h-447zM649 819q53 0 106 8q48 7 89 34q38 25 61 72q23 48 23 122q0 118 -67 162q-65 43 -204 43h-102v-441h94zM590 -348v233h248q27 -39 32 -101q5 -61 -24 -124
l-103 -227l-106 35l39 151q8 33 -25 33h-61z" />
    <glyph glyph-name="uni0157" unicode="&#x157;" horiz-adv-x="968" 
d="M53 0v166l92 12q24 5 28 11q5 8 5 30v600q0 36 -26 43l-111 39l22 166h361l25 -164h12q51 77 121 131q70 53 168 53q27 0 43 -1q34 -2 50 -4q25 -3 48 -6q25 -3 37 -7v-373l-246 9l-20 108q-5 23 -27 23q-40 0 -83 -26q-45 -27 -65 -46v-543q0 -22 6 -32q5 -7 27 -9
l203 -16v-164h-670zM248 -348v233h248q27 -39 32 -101q5 -61 -24 -124l-103 -227l-106 35l39 151q8 33 -25 33h-61z" />
    <glyph glyph-name="Rcaron" unicode="&#x158;" horiz-adv-x="1406" 
d="M778 1595h-213l-248 228l111 116l244 -165l241 165l113 -116zM956 0l-184 514q-18 53 -43 73q-23 19 -78 19h-96v-385q0 -24 5 -31q4 -5 28 -10l143 -16v-164h-653v164l129 14q22 1 27 10q6 10 6 31v1047q0 19 -6 29q-4 7 -27 12l-129 14v162h698q141 0 231 -34
q91 -34 146 -91t78 -131q22 -72 22 -154q0 -159 -74 -249q-75 -92 -196 -144q46 -23 70 -60q26 -40 49 -104l112 -293q11 -22 26 -28q16 -7 36 -11l127 -20v-164h-447zM649 819q53 0 106 8q48 7 89 34q38 25 61 72q23 48 23 122q0 118 -67 162q-65 43 -204 43h-102v-441h94z
" />
    <glyph glyph-name="rcaron" unicode="&#x159;" horiz-adv-x="968" 
d="M367 1192l-250 262l123 109l233 -191l238 191l120 -107l-251 -264h-213zM53 0v166l92 12q24 5 28 11q5 8 5 30v600q0 36 -26 43l-111 39l22 166h361l25 -164h12q51 77 121 131q70 53 168 53q27 0 43 -1q34 -2 50 -4q25 -3 48 -6q25 -3 37 -7v-373l-246 9l-20 108
q-5 23 -27 23q-40 0 -83 -26q-45 -27 -65 -46v-543q0 -22 6 -32q5 -7 27 -9l203 -16v-164h-670z" />
    <glyph glyph-name="Sacute" unicode="&#x15a;" horiz-adv-x="1214" 
d="M485 1571l-71 135l422 250l104 -203zM858 1049l-24 165q-4 18 -10 27q-4 7 -15 12q-34 11 -61 16q-35 7 -89 7q-116 0 -173 -48q-56 -47 -56 -126q0 -49 25 -85q24 -34 64 -58q33 -20 94 -40q36 -12 112 -36q65 -20 146 -52q75 -30 133 -76t96 -123q37 -74 37 -190
q0 -126 -46 -214t-124 -145q-76 -56 -184 -82q-107 -26 -222 -26q-55 0 -140 9q-66 7 -134 20q-66 13 -115 27q-61 18 -80 28v400h230l40 -195q4 -14 10 -25q5 -8 25 -12q4 -1 66 -13q47 -9 106 -9q126 0 192 48t66 142q0 50 -20 83q-21 34 -55 58q-30 21 -81 39
q-36 13 -98 31q-30 9 -85.5 26t-69.5 21q-78 24 -147 72q-65 46 -108 124q-42 77 -42 200q0 118 42 205q42 86 116 144q73 57 174 84t217 27q137 0 241 -26q110 -27 179 -56v-399z" />
    <glyph glyph-name="sacute" unicode="&#x15b;" horiz-adv-x="997" 
d="M403 1149l-114 102l313 357l168 -160zM692 745l-20 107q-2 24 -21 29q-25 7 -55 11q-38 5 -76 5q-77 0 -119 -28q-41 -27 -41 -76q0 -30 20 -52q17 -18 52 -34q31 -14 76 -25q17 -4 48.5 -11t41.5 -9q68 -17 123 -34q60 -19 110 -57q51 -39 80 -95q31 -60 31 -148
q0 -95 -36 -161q-37 -68 -98 -110t-146 -62q-86 -20 -183 -20q-57 0 -136 9q-72 8 -122 19q-58 13 -94 25t-53 21v297l219 -16l20 -117q1 -14 6 -20q5 -7 19 -11q15 -5 58 -13q38 -7 100 -7q82 0 126 24t44 82q0 62 -55 86q-54 24 -132 39q-23 4 -134 28q-71 15 -129 51
t-96 96q-38 61 -38 161q0 96 38 164t100 111q60 41 145 63q79 20 170 20q61 0 119 -6q61 -6 109 -15q57 -10 89 -19q24 -6 59 -19v-297z" />
    <glyph glyph-name="Scircumflex" unicode="&#x15c;" horiz-adv-x="1214" 
d="M639 1737l-242 -166l-112 115l247 229h213l248 -229l-112 -115zM858 1049l-24 165q-4 18 -10 27q-4 7 -15 12q-34 11 -61 16q-35 7 -89 7q-116 0 -173 -48q-56 -47 -56 -126q0 -49 25 -85q24 -34 64 -58q33 -20 94 -40q36 -12 112 -36q65 -20 146 -52q75 -30 133 -76
t96 -123q37 -74 37 -190q0 -126 -46 -214t-124 -145q-76 -56 -184 -82q-107 -26 -222 -26q-55 0 -140 9q-66 7 -134 20q-66 13 -115 27q-61 18 -80 28v400h230l40 -195q4 -14 10 -25q5 -8 25 -12q4 -1 66 -13q47 -9 106 -9q126 0 192 48t66 142q0 50 -20 83q-21 34 -55 58
q-30 21 -81 39q-36 13 -98 31q-30 9 -85.5 26t-69.5 21q-78 24 -147 72q-65 46 -108 124q-42 77 -42 200q0 118 42 205q42 86 116 144q73 57 174 84t217 27q137 0 241 -26q110 -27 179 -56v-399z" />
    <glyph glyph-name="scircumflex" unicode="&#x15d;" horiz-adv-x="997" 
d="M752 1151l-236 190l-235 -190l-123 106l252 265h213l251 -265zM692 745l-20 107q-2 24 -21 29q-25 7 -55 11q-38 5 -76 5q-77 0 -119 -28q-41 -27 -41 -76q0 -30 20 -52q17 -18 52 -34q31 -14 76 -25q17 -4 48.5 -11t41.5 -9q68 -17 123 -34q60 -19 110 -57
q51 -39 80 -95q31 -60 31 -148q0 -95 -36 -161q-37 -68 -98 -110t-146 -62q-86 -20 -183 -20q-57 0 -136 9q-72 8 -122 19q-58 13 -94 25t-53 21v297l219 -16l20 -117q1 -14 6 -20q5 -7 19 -11q15 -5 58 -13q38 -7 100 -7q82 0 126 24t44 82q0 62 -55 86q-54 24 -132 39
q-23 4 -134 28q-71 15 -129 51t-96 96q-38 61 -38 161q0 96 38 164t100 111q60 41 145 63q79 20 170 20q61 0 119 -6q61 -6 109 -15q57 -10 89 -19q24 -6 59 -19v-297z" />
    <glyph glyph-name="Scedilla" unicode="&#x15e;" horiz-adv-x="1214" 
d="M410 -379l24 -3q8 -1 27 -1q77 0 109 30t32 72q0 48 -36 66q-37 19 -99 20l22 172q-41 3 -121 13q-66 8 -113 19q-55 13 -95 25q-47 15 -68 25v400h230l40 -195q4 -14 10 -25q5 -8 25 -12q4 -1 66 -13q47 -9 106 -9q126 0 192 48t66 142q0 50 -20 83q-21 34 -55 58
q-30 21 -81 39q-36 13 -98 31q-30 9 -85.5 26t-69.5 21q-78 24 -147 72q-65 46 -108 124q-42 77 -42 200q0 118 42 205q42 86 116 144q73 57 174 84t217 27q137 0 241 -26q110 -27 179 -56v-399l-232 21l-24 165q-4 18 -10 27q-4 7 -15 12q-34 11 -61 16q-35 7 -89 7
q-116 0 -173 -48q-56 -47 -56 -126q0 -49 25 -85q24 -34 64 -58q33 -20 94 -40q36 -12 112 -36q65 -20 146 -52q75 -30 133 -76t96 -123q37 -74 37 -190t-39 -200t-107 -140q-67 -55 -158 -85q-90 -29 -196 -37l-8 -72q22 -5 58 -19q30 -12 52 -34q21 -21 37 -56
q15 -33 15 -75q0 -50 -18 -95q-19 -46 -54 -79t-95 -54q-56 -20 -143 -20q-18 0 -52 2q-21 1 -32 4z" />
    <glyph glyph-name="scedilla" unicode="&#x15f;" horiz-adv-x="997" 
d="M299 -379q4 -1 12.5 -2t12.5 -1q8 -1 26 -1q78 0 110 30t32 72q0 48 -36 66q-37 19 -100 20l23 175q-114 8 -197 31q-88 25 -108 38v297l219 -16l20 -117q1 -14 6 -20q5 -7 19 -11q15 -5 58 -13q38 -7 100 -7q82 0 126 24t44 82q0 62 -55 86q-54 24 -132 39
q-23 4 -134 28q-71 15 -129 51t-96 96q-38 61 -38 161q0 96 38 164t100 111q60 41 145 63q79 20 170 20q61 0 119 -6q61 -6 109 -15q57 -10 89 -19q24 -6 59 -19v-297l-219 14l-20 107q-2 24 -21 29q-25 7 -55 11q-38 5 -76 5q-77 0 -119 -28q-41 -27 -41 -76q0 -30 20 -52
q17 -18 52 -34q31 -14 76 -25q17 -4 48.5 -11t41.5 -9q68 -17 123 -34q60 -19 110 -57q51 -39 80 -95q31 -60 31 -148q0 -87 -32 -153q-31 -64 -87 -106q-57 -43 -131 -65q-77 -23 -166 -27l-8 -69q24 -5 59 -19q30 -12 52 -34q21 -21 37 -56q14 -31 14 -75q0 -52 -17 -95
q-18 -45 -55 -79q-35 -33 -95 -54q-56 -20 -142 -20q-19 0 -53 2q-20 1 -31 4z" />
    <glyph glyph-name="Scaron" unicode="&#x160;" horiz-adv-x="1214" 
d="M745 1595h-213l-247 228l110 116l244 -165l242 165l112 -116zM858 1049l-24 165q-4 18 -10 27q-4 7 -15 12q-34 11 -61 16q-35 7 -89 7q-116 0 -173 -48q-56 -47 -56 -126q0 -49 25 -85q24 -34 64 -58q33 -20 94 -40q36 -12 112 -36q65 -20 146 -52q75 -30 133 -76
t96 -123q37 -74 37 -190q0 -126 -46 -214t-124 -145q-76 -56 -184 -82q-107 -26 -222 -26q-55 0 -140 9q-66 7 -134 20q-66 13 -115 27q-61 18 -80 28v400h230l40 -195q4 -14 10 -25q5 -8 25 -12q4 -1 66 -13q47 -9 106 -9q126 0 192 48t66 142q0 50 -20 83q-21 34 -55 58
q-30 21 -81 39q-36 13 -98 31q-30 9 -85.5 26t-69.5 21q-78 24 -147 72q-65 46 -108 124q-42 77 -42 200q0 118 42 205q42 86 116 144q73 57 174 84t217 27q137 0 241 -26q110 -27 179 -56v-399z" />
    <glyph glyph-name="scaron" unicode="&#x161;" horiz-adv-x="997" 
d="M410 1192l-250 262l123 109l233 -191l238 191l120 -107l-251 -264h-213zM692 745l-20 107q-2 24 -21 29q-25 7 -55 11q-38 5 -76 5q-77 0 -119 -28q-41 -27 -41 -76q0 -30 20 -52q17 -18 52 -34q31 -14 76 -25q17 -4 48.5 -11t41.5 -9q68 -17 123 -34q60 -19 110 -57
q51 -39 80 -95q31 -60 31 -148q0 -95 -36 -161q-37 -68 -98 -110t-146 -62q-86 -20 -183 -20q-57 0 -136 9q-72 8 -122 19q-58 13 -94 25t-53 21v297l219 -16l20 -117q1 -14 6 -20q5 -7 19 -11q15 -5 58 -13q38 -7 100 -7q82 0 126 24t44 82q0 62 -55 86q-54 24 -132 39
q-23 4 -134 28q-71 15 -129 51t-96 96q-38 61 -38 161q0 96 38 164t100 111q60 41 145 63q79 20 170 20q61 0 119 -6q61 -6 109 -15q57 -10 89 -19q24 -6 59 -19v-297z" />
    <glyph glyph-name="uni0162" unicode="&#x162;" horiz-adv-x="1421" 
d="M537 -379l24 -3q8 -1 27 -1q78 0 109 30q32 30 32 72q0 48 -36 66q-37 19 -99 20l24 195h-309v162l211 14q23 2 28 10t5 31v1043h-211q-15 0 -23 -4q-6 -3 -10 -19l-33 -178h-225v424h1319v-424h-223l-33 178q-4 16 -10 19q-8 4 -23 4h-211v-1043q0 -20 6 -30q4 -7 27 -9
l225 -16v-162h-360l-12 -92q22 -5 58 -19q30 -12 52 -34q21 -21 37 -56q15 -33 15 -75q0 -50 -18 -95q-19 -46 -54 -79t-95 -54q-56 -20 -143 -20q-18 0 -52 2q-21 1 -32 4z" />
    <glyph glyph-name="uni0163" unicode="&#x163;" horiz-adv-x="892" 
d="M324 -379l24 -3q8 -1 27 -1q77 0 109 30t32 72q0 48 -36 66q-37 19 -99 20l22 179q-123 21 -175 97t-52 224v537q0 9 -2 15q-2 5 -14 5h-144v182q135 17 197 92t78 242h194v-291q0 -9 2 -15q2 -5 15 -5h289v-205h-306v-489q0 -91 28 -130q27 -38 112 -38q43 0 86 9
q41 9 80 24l55 -181q-59 -28 -137 -52q-76 -23 -158 -28l-8 -69q22 -5 58 -19q30 -12 52 -34q21 -21 37 -56q15 -33 15 -75q0 -50 -18 -95q-19 -46 -54 -79t-95 -54q-56 -20 -143 -20q-18 0 -52 2q-21 1 -32 4z" />
    <glyph glyph-name="Tcaron" unicode="&#x164;" horiz-adv-x="1421" 
d="M819 1595h-213l-248 228l111 116l244 -165l241 165l113 -116zM309 0v162l211 14q23 2 28 10t5 31v1043h-211q-15 0 -23 -4q-6 -3 -10 -19l-33 -178h-225v424h1319v-424h-223l-33 178q-4 16 -10 19q-8 4 -23 4h-211v-1043q0 -20 6 -30q4 -7 27 -9l225 -16v-162h-819z" />
    <glyph glyph-name="tcaron" unicode="&#x165;" horiz-adv-x="892" 
d="M573 1178q13 44 28 116q13 61 13 125q0 45 -8 79q-8 32 -18 48l215 82q21 -29 30 -64q9 -36 9 -71q0 -38 -13 -92q-5 -17 -20 -61q-7 -19 -27 -70q-23 -57 -30 -72q-21 -45 -31 -63zM846 57q-66 -33 -156 -57q-94 -25 -178 -25q-184 0 -260 78q-76 77 -76 252v537
q0 9 -2 15q-2 5 -14 5h-144v182q135 17 197 92t78 242h194v-291q0 -9 2 -15q2 -5 15 -5h289v-205h-306v-489q0 -91 28 -130q27 -38 112 -38q43 0 86 9q41 9 80 24z" />
    <glyph glyph-name="Tbar" unicode="&#x166;" horiz-adv-x="1421" 
d="M309 0v162l211 14q23 2 28 10t5 31v387h-219v205h219v451h-211q-15 0 -23 -4q-6 -3 -10 -19l-33 -178h-225v424h1319v-424h-223l-33 178q-4 16 -10 19q-8 4 -23 4h-211v-451h215v-205h-215v-387q0 -20 6 -30q4 -7 27 -9l225 -16v-162h-819z" />
    <glyph glyph-name="tbar" unicode="&#x167;" horiz-adv-x="892" 
d="M846 57q-66 -33 -156 -57q-94 -25 -178 -25q-184 0 -260 78q-76 77 -76 252v150h-153v204h153v183q0 9 -2 15q-2 5 -14 5h-144v182q135 17 197 92t78 242h194v-291q0 -9 2 -15q2 -5 15 -5h289v-205h-306v-203h312v-204h-312v-82q0 -91 28 -130q27 -38 112 -38q43 0 86 9
q41 9 80 24z" />
    <glyph glyph-name="Utilde" unicode="&#x168;" horiz-adv-x="1607" 
d="M1161 1716q-33 -60 -61 -88q-29 -29 -74 -29q-23 0 -63 9q-12 3 -40.5 10t-43.5 10q-7 2 -60 16q-13 4 -36 9.5t-25 6.5q-26 7 -50 12q-23 5 -30 5q-16 0 -33 -16l-67 -64l-113 72l61 105q26 46 62 75q33 27 74 27q43 0 129 -25q21 -6 113 -29q83 -21 89 -22q23 -6 33 8
l59 64l121 -74zM1112 1266q0 22 -5 30q-6 10 -28 11l-129 14v162h606v-162l-137 -16q-22 -4 -27 -11q-6 -8 -6 -28v-736q0 -146 -40 -250q-41 -107 -116 -174q-75 -68 -183 -99q-110 -32 -244 -32q-305 0 -444 139q-138 138 -138 425v727q0 22 -5 30q-6 10 -28 11l-127 14
v162h648v-162l-138 -16q-22 -4 -27 -11t-5 -28v-670q0 -88 12 -156q11 -64 43 -113q29 -45 84 -70q52 -24 137 -24q165 0 231 81t66 274v678z" />
    <glyph glyph-name="utilde" unicode="&#x169;" horiz-adv-x="1275" 
d="M940 1311q-33 -60 -61 -88q-29 -29 -74 -29q-29 0 -64 8q-11 2 -38.5 9.5t-45.5 11.5q-22 5 -59 15q-13 4 -36 9.5t-25 6.5q-42 11 -51 13q-23 5 -29 5q-14 0 -33 -17l-68 -63l-112 72l61 104q28 48 62 76q32 26 73 26q46 0 129 -24q42 -12 114 -30q57 -14 89 -21
q23 -6 33 8l59 63l121 -73zM860 0l-16 111l-10 2q-28 -22 -68 -48q-38 -24 -81 -45q-39 -19 -97 -32q-57 -13 -119 -13q-161 0 -229 91t-68 270v500q0 23 -5 31q-4 7 -28 12l-98 20l20 168h420v-678q0 -92 22 -133q21 -39 87 -39t122 31q55 31 89 63v527q0 23 -5 30
q-5 6 -28 11l-88 20l22 168h408v-850q0 -22 4 -29q5 -9 25 -10l102 -14v-164h-381z" />
    <glyph glyph-name="Umacron" unicode="&#x16a;" horiz-adv-x="1607" 
d="M510 1608v204h649v-204h-649zM1112 1266q0 22 -5 30q-6 10 -28 11l-129 14v162h606v-162l-137 -16q-22 -4 -27 -11q-6 -8 -6 -28v-736q0 -146 -40 -250q-41 -107 -116 -174q-75 -68 -183 -99q-110 -32 -244 -32q-305 0 -444 139q-138 138 -138 425v727q0 22 -5 30
q-6 10 -28 11l-127 14v162h648v-162l-138 -16q-22 -4 -27 -11t-5 -28v-670q0 -88 12 -156q11 -64 43 -113q29 -45 84 -70q52 -24 137 -24q165 0 231 81t66 274v678z" />
    <glyph glyph-name="umacron" unicode="&#x16b;" horiz-adv-x="1275" 
d="M289 1227v205h649v-205h-649zM860 0l-16 111l-10 2q-28 -22 -68 -48q-38 -24 -81 -45q-39 -19 -97 -32q-57 -13 -119 -13q-161 0 -229 91t-68 270v500q0 23 -5 31q-4 7 -28 12l-98 20l20 168h420v-678q0 -92 22 -133q21 -39 87 -39t122 31q55 31 89 63v527q0 23 -5 30
q-5 6 -28 11l-88 20l22 168h408v-850q0 -22 4 -29q5 -9 25 -10l102 -14v-164h-381z" />
    <glyph glyph-name="Ubreve" unicode="&#x16c;" horiz-adv-x="1607" 
d="M1176 1870q-35 -136 -117 -202q-83 -66 -225 -66q-144 0 -227 66q-83 67 -118 202l158 57q28 -77 77 -109t110 -32q62 0 108 30q48 31 80 111zM1112 1266q0 22 -5 30q-6 10 -28 11l-129 14v162h606v-162l-137 -16q-22 -4 -27 -11q-6 -8 -6 -28v-736q0 -146 -40 -250
q-41 -107 -116 -174q-75 -68 -183 -99q-110 -32 -244 -32q-305 0 -444 139q-138 138 -138 425v727q0 22 -5 30q-6 10 -28 11l-127 14v162h648v-162l-138 -16q-22 -4 -27 -11t-5 -28v-670q0 -88 12 -156q11 -64 43 -113q29 -45 84 -70q52 -24 137 -24q165 0 231 81t66 274
v678z" />
    <glyph glyph-name="ubreve" unicode="&#x16d;" horiz-adv-x="1275" 
d="M965 1450q-35 -134 -117 -206q-84 -73 -236 -73q-151 0 -235 73q-82 72 -117 206l156 59q28 -78 77 -116q47 -37 119 -37t118 36q47 36 79 117zM860 0l-16 111l-10 2q-28 -22 -68 -48q-38 -24 -81 -45q-39 -19 -97 -32q-57 -13 -119 -13q-161 0 -229 91t-68 270v500
q0 23 -5 31q-4 7 -28 12l-98 20l20 168h420v-678q0 -92 22 -133q21 -39 87 -39t122 31q55 31 89 63v527q0 23 -5 30q-5 6 -28 11l-88 20l22 168h408v-850q0 -22 4 -29q5 -9 25 -10l102 -14v-164h-381z" />
    <glyph glyph-name="Uring" unicode="&#x16e;" horiz-adv-x="1607" 
d="M844 1956q88 0 151 -54q64 -55 64 -147q0 -93 -62 -150q-61 -57 -153 -57q-95 0 -159 56q-62 55 -62 143q0 99 65 154t156 55zM760 1751q0 -82 84 -82q34 0 56 20t22 66q0 40 -22 62q-20 20 -56 20q-41 0 -62 -20q-22 -21 -22 -66zM1112 1266q0 22 -5 30q-6 10 -28 11
l-129 14v162h606v-162l-137 -16q-22 -4 -27 -11q-6 -8 -6 -28v-736q0 -146 -40 -250q-41 -107 -116 -174q-75 -68 -183 -99q-110 -32 -244 -32q-305 0 -444 139q-138 138 -138 425v727q0 22 -5 30q-6 10 -28 11l-127 14v162h648v-162l-138 -16q-22 -4 -27 -11t-5 -28v-670
q0 -88 12 -156q11 -64 43 -113q29 -45 84 -70q52 -24 137 -24q165 0 231 81t66 274v678z" />
    <glyph glyph-name="uring" unicode="&#x16f;" horiz-adv-x="1275" 
d="M623 1577q88 0 151 -54q64 -55 64 -147q0 -93 -62 -150t-153 -57q-95 0 -159 56q-63 55 -63 143q0 98 66 154q65 55 156 55zM539 1372q0 -82 84 -82q34 0 56 20q21 20 21 66q0 41 -21 62q-20 20 -56 20q-41 0 -62 -20q-22 -21 -22 -66zM860 0l-16 111l-10 2
q-28 -22 -68 -48q-38 -24 -81 -45q-39 -19 -97 -32q-57 -13 -119 -13q-161 0 -229 91t-68 270v500q0 23 -5 31q-4 7 -28 12l-98 20l20 168h420v-678q0 -92 22 -133q21 -39 87 -39t122 31q55 31 89 63v527q0 23 -5 30q-5 6 -28 11l-88 20l22 168h408v-850q0 -22 4 -29
q5 -9 25 -10l102 -14v-164h-381z" />
    <glyph glyph-name="Uhungarumlaut" unicode="&#x170;" horiz-adv-x="1607" 
d="M600 1569l-106 108l315 348l152 -155zM971 1569l-86 104l340 322l137 -164zM1112 1266q0 22 -5 30q-6 10 -28 11l-129 14v162h606v-162l-137 -16q-22 -4 -27 -11q-6 -8 -6 -28v-736q0 -146 -40 -250q-41 -107 -116 -174q-75 -68 -183 -99q-110 -32 -244 -32
q-305 0 -444 139q-138 138 -138 425v727q0 22 -5 30q-6 10 -28 11l-127 14v162h648v-162l-138 -16q-22 -4 -27 -11t-5 -28v-670q0 -88 12 -156q11 -64 43 -113q29 -45 84 -70q52 -24 137 -24q165 0 231 81t66 274v678z" />
    <glyph glyph-name="uhungarumlaut" unicode="&#x171;" horiz-adv-x="1275" 
d="M381 1147l-121 100l289 375l174 -152zM776 1147l-119 100l289 375l172 -152zM860 0l-16 111l-10 2q-28 -22 -68 -48q-38 -24 -81 -45q-39 -19 -97 -32q-57 -13 -119 -13q-161 0 -229 91t-68 270v500q0 23 -5 31q-4 7 -28 12l-98 20l20 168h420v-678q0 -92 22 -133
q21 -39 87 -39t122 31q55 31 89 63v527q0 23 -5 30q-5 6 -28 11l-88 20l22 168h408v-850q0 -22 4 -29q5 -9 25 -10l102 -14v-164h-381z" />
    <glyph glyph-name="Uogonek" unicode="&#x172;" horiz-adv-x="1607" 
d="M1157 -424q-62 -28 -127 -42q-61 -13 -115 -13q-112 0 -165 50q-54 51 -54 132q0 85 52 155q51 69 110 119q-20 -2 -28 -2h-27q-305 0 -444 139q-138 138 -138 425v727q0 22 -5 30q-6 10 -28 11l-127 14v162h648v-162l-138 -16q-22 -4 -27 -11t-5 -28v-670q0 -88 12 -156
q11 -64 43 -113q29 -45 84 -70q52 -24 137 -24q165 0 231 81t66 274v678q0 22 -5 30q-6 10 -28 11l-129 14v162h606v-162l-137 -16q-22 -4 -27 -11q-6 -8 -6 -28v-736q0 -200 -65 -317q-66 -119 -195 -195q-38 -23 -69 -50q-43 -37 -63 -63q-29 -37 -44 -70q-16 -35 -16 -68
q0 -60 59 -60q15 0 48 5q26 4 59 16z" />
    <glyph glyph-name="uogonek" unicode="&#x173;" horiz-adv-x="1275" 
d="M1241 0q-45 -17 -81 -43q-39 -28 -66 -58q-28 -31 -45 -66q-17 -36 -17 -66q0 -60 60 -60q15 0 48 5q25 4 58 16l57 -152q-62 -28 -127 -42q-61 -13 -114 -13q-113 0 -166 50t-53 132q0 47 18 91q19 46 48 82q31 39 68 70q36 30 79 54h-148l-16 111l-10 2
q-28 -22 -68 -48q-38 -24 -81 -45q-39 -19 -97 -32q-57 -13 -119 -13q-161 0 -229 91t-68 270v500q0 23 -5 31q-4 7 -28 12l-98 20l20 168h420v-678q0 -92 22 -133q21 -39 87 -39t122 31q55 31 89 63v527q0 23 -5 30q-5 6 -28 11l-88 20l22 168h408v-850q0 -22 4 -29
q5 -9 25 -10l102 -14v-164z" />
    <glyph glyph-name="Wcircumflex" unicode="&#x174;" horiz-adv-x="2136" 
d="M1112 1737l-242 -166l-112 115l248 229h213l247 -229l-112 -115zM1274 0l-201 750h-12l-189 -750h-401l-309 1264q-4 20 -16 26q-11 6 -29 10l-105 23l21 160h626v-160l-172 -20l209 -1002h17l235 907h312l233 -913h16l211 1008l-172 20l21 160h553v-160l-97 -23
q-20 -4 -30 -10q-11 -7 -17 -26l-290 -1264h-414z" />
    <glyph glyph-name="wcircumflex" unicode="&#x175;" horiz-adv-x="1800" 
d="M1184 1151l-236 190l-235 -190l-123 106l252 265h213l252 -265zM1096 0l-160 686h-12l-162 -686h-369l-258 848q-6 18 -15 24q-10 6 -28 11l-86 18l33 166h518v-170l-115 -12l164 -576h15l182 731h309l176 -731h12l154 576l-117 12l27 170h430v-166l-74 -14
q-38 -6 -49 -41l-252 -846h-323z" />
    <glyph glyph-name="Ycircumflex" unicode="&#x176;" horiz-adv-x="1384" 
d="M723 1737l-242 -166l-112 115l247 229h213l248 -229l-112 -115zM317 0v162l205 14q23 2 28 10t5 31v336l-408 713q-11 17 -20 22q-10 6 -29 12l-92 23l21 160h614v-160l-160 -18l248 -484h16l248 484l-157 18l20 160h522v-160l-86 -23q-16 -4 -29 -13q-15 -10 -22 -25
l-371 -705v-340q0 -20 6 -30q4 -7 27 -9l217 -16v-162h-803z" />
    <glyph glyph-name="ycircumflex" unicode="&#x177;" horiz-adv-x="1267" 
d="M889 1151l-236 190l-235 -190l-123 106l252 265h213l252 -265zM225 -434v166l160 18q20 1 31 12q9 9 20 33l88 195l-391 856q-6 18 -15 24q-10 6 -28 11l-84 20l33 166h543v-166l-129 -16l227 -541h14l217 541l-133 16l27 166h457v-166l-66 -12q-22 -5 -31 -10
q-12 -6 -20 -25l-451 -1102l213 -22v-164h-682z" />
    <glyph glyph-name="Ydieresis" unicode="&#x178;" horiz-adv-x="1386" 
d="M799 1597v361h274v-361h-274zM377 1597v361h274v-361h-274zM317 0v162l205 14q23 2 28 10t5 31v336l-408 713q-11 17 -20 22q-10 6 -29 12l-92 23l21 160h614v-160l-160 -18l248 -484h16l248 484l-157 18l20 160h522v-160l-86 -23q-16 -4 -29 -13q-15 -10 -22 -25
l-371 -705v-340q0 -20 6 -30q4 -7 27 -9l217 -16v-162h-803z" />
    <glyph glyph-name="Zacute" unicode="&#x179;" horiz-adv-x="1376" 
d="M524 1571l-71 135l421 250l105 -203zM104 0v199l766 1063h-454q-15 0 -23 -4q-6 -3 -10 -19l-39 -192l-221 -7v443h1124v-207l-755 -1057h499q17 0 23 3q5 3 10 20l39 219h221v-461h-1180z" />
    <glyph glyph-name="zacute" unicode="&#x17a;" horiz-adv-x="1058" 
d="M403 1149l-114 102l313 357l168 -160zM72 0v172l549 702h-287q-15 0 -18 -8q-4 -9 -5 -18l-24 -115l-217 -12v346h899v-176l-539 -701h301q14 0 18 9t5 18l24 141l223 11v-369h-929z" />
    <glyph glyph-name="Zdotaccent" unicode="&#x17b;" horiz-adv-x="1376" 
d="M541 1604v417h272v-417h-272zM104 0v199l766 1063h-454q-15 0 -23 -4q-6 -3 -10 -19l-39 -192l-221 -7v443h1124v-207l-755 -1057h499q17 0 23 3q5 3 10 20l39 219h221v-461h-1180z" />
    <glyph glyph-name="zdotaccent" unicode="&#x17c;" horiz-adv-x="1058" 
d="M379 1237v418h272v-418h-272zM72 0v172l549 702h-287q-15 0 -18 -8q-4 -9 -5 -18l-24 -115l-217 -12v346h899v-176l-539 -701h301q14 0 18 9t5 18l24 141l223 11v-369h-929z" />
    <glyph glyph-name="Zcaron" unicode="&#x17d;" horiz-adv-x="1376" 
d="M784 1595h-213l-247 228l110 116l244 -165l242 165l112 -116zM104 0v199l766 1063h-454q-15 0 -23 -4q-6 -3 -10 -19l-39 -192l-221 -7v443h1124v-207l-755 -1057h499q17 0 23 3q5 3 10 20l39 219h221v-461h-1180z" />
    <glyph glyph-name="zcaron" unicode="&#x17e;" horiz-adv-x="1058" 
d="M410 1192l-250 262l123 109l233 -191l238 191l120 -107l-251 -264h-213zM72 0v172l549 702h-287q-15 0 -18 -8q-4 -9 -5 -18l-24 -115l-217 -12v346h899v-176l-539 -701h301q14 0 18 9t5 18l24 141l223 11v-369h-929z" />
    <glyph glyph-name="longs" unicode="&#x17f;" horiz-adv-x="894" 
d="M55 0v164l115 12q24 5 28 12q5 8 5 31v961q0 209 112 300t326 91q78 0 138 -11q69 -13 117 -43q51 -32 81 -91q31 -60 31 -150l-287 -35q2 78 -21 104q-22 25 -73 25q-79 0 -97 -40t-18 -113v-992q0 -24 7 -31q9 -9 30 -10l250 -22v-162h-744z" />
    <glyph glyph-name="florin" unicode="&#x192;" horiz-adv-x="1114" 
d="M602 588l-65 -391q-21 -125 -58 -204q-38 -82 -91 -129q-54 -48 -127 -69q-69 -20 -169 -20q-95 0 -183 29q-92 30 -145 71l84 188q47 -30 109 -53q60 -22 117 -22q34 0 63 6q30 6 50 25q22 20 37 55q16 36 26 92l72 401q2 21 -15 21h-184l31 194h204l31 174
q18 101 49 176q29 70 79 118q47 46 118 69q67 22 166 22q106 0 191 -23q88 -24 161 -65l-49 -299l-193 19l-2 121q0 25 -20 32q-11 4 -30 9q-17 4 -48 4q-66 0 -96 -40q-30 -41 -45 -118l-31 -178q-1 -21 16 -21h256l-32 -194h-277z" />
    <glyph glyph-name="AEacute" unicode="&#x1fc;" horiz-adv-x="2031" 
d="M1120 1565l-114 102l313 356l168 -159zM840 0v160l114 12q24 4 36 12q11 7 11 37v397h-389l-204 -440l159 -18v-160h-561v160l86 22q25 6 40 23t30 45l495 1050l-151 21v162h1409v-414l-225 10l-29 150q-4 21 -15 26q-14 7 -34 7h-307v-416h479v-228h-479v-399h366
q17 0 23 3q5 3 10 20l33 180h223v-422h-1120zM1001 1262h-100l-196 -414h296v414z" />
    <glyph glyph-name="aeacute" unicode="&#x1fd;" horiz-adv-x="1685" 
d="M846 1149l-115 102l313 357l168 -160zM1659 145q-86 -92 -210 -131q-125 -39 -251 -39q-136 0 -227 39q-93 40 -150 107q-72 -59 -177 -103q-102 -43 -230 -43q-115 0 -184 30q-67 29 -104 75q-34 43 -47 98q-11 48 -11 101q0 153 95 225q94 72 288 90q62 6 117 9
q78 4 118 7v113q0 37 -3 67q-3 32 -17 51q-14 20 -42 32q-27 12 -75 12q-74 0 -112 -23t-38 -112l-288 22q0 104 42 167q40 61 105 96q60 33 136 44q75 11 136 11q124 0 207 -37q84 -38 127 -119q72 72 168 114t213 42q180 0 290 -90q107 -88 107 -246q0 -101 -40 -165
q-41 -66 -120 -100q-81 -35 -196 -47q-117 -12 -268 -12q5 -42 16 -78t37 -67q24 -28 66 -47q43 -19 102 -19q78 0 147 32q66 31 134 85zM1227 868q-40 0 -74 -11q-37 -12 -67 -39q-27 -24 -50 -72q-20 -41 -26 -111q102 0 171 3q68 3 109 15q42 12 58 36q16 23 16 63
q0 57 -38 87q-36 29 -99 29zM385 307q0 -60 33 -81t86 -21q61 0 120 25q60 25 101 65q-10 27 -24 69q-8 25 -13 72q-23 0 -71 -2q-35 -1 -70 -6q-92 -12 -127 -41t-35 -80z" />
    <glyph glyph-name="uni0218" unicode="&#x218;" horiz-adv-x="1214" 
d="M858 1049l-24 165q-4 18 -10 27q-4 7 -15 12q-34 11 -61 16q-35 7 -89 7q-116 0 -173 -48q-56 -47 -56 -126q0 -49 25 -85q24 -34 64 -58q33 -20 94 -40q36 -12 112 -36q65 -20 146 -52q75 -30 133 -76t96 -123q37 -74 37 -190q0 -126 -46 -214t-124 -145
q-76 -56 -184 -82q-107 -26 -222 -26q-55 0 -140 9q-66 7 -134 20q-66 13 -115 27q-61 18 -80 28v400h230l40 -195q4 -14 10 -25q5 -8 25 -12q4 -1 66 -13q47 -9 106 -9q126 0 192 48t66 142q0 50 -20 83q-21 34 -55 58q-30 21 -81 39q-36 13 -98 31q-30 9 -85.5 26
t-69.5 21q-78 24 -147 72q-65 46 -108 124q-42 77 -42 200q0 118 42 205q42 86 116 144q73 57 174 84t217 27q137 0 241 -26q110 -27 179 -56v-399zM444 -348v233h248q28 -40 33 -101q4 -59 -25 -124l-102 -227l-106 35l38 151q8 33 -24 33h-62z" />
    <glyph glyph-name="uni0219" unicode="&#x219;" horiz-adv-x="999" 
d="M692 745l-20 107q-2 24 -21 29q-25 7 -55 11q-38 5 -76 5q-77 0 -119 -28q-41 -27 -41 -76q0 -30 20 -52q17 -18 52 -34q31 -14 76 -25q17 -4 48.5 -11t41.5 -9q68 -17 123 -34q60 -19 110 -57q51 -39 80 -95q31 -60 31 -148q0 -95 -36 -161q-37 -68 -98 -110t-146 -62
q-86 -20 -183 -20q-57 0 -136 9q-72 8 -122 19q-58 13 -94 25t-53 21v297l219 -16l20 -117q1 -14 6 -20q5 -7 19 -11q15 -5 58 -13q38 -7 100 -7q82 0 126 24t44 82q0 62 -55 86q-54 24 -132 39q-23 4 -134 28q-71 15 -129 51t-96 96q-38 61 -38 161q0 96 38 164t100 111
q60 41 145 63q79 20 170 20q61 0 119 -6q61 -6 109 -15q57 -10 89 -19q24 -6 59 -19v-297zM356 -348v233h248q28 -40 33 -101q4 -59 -25 -124l-102 -227l-107 35l39 151q8 33 -24 33h-62z" />
    <glyph glyph-name="uni021A" unicode="&#x21a;" horiz-adv-x="1421" 
d="M309 0v162l211 14q23 2 28 10t5 31v1043h-211q-15 0 -23 -4q-6 -3 -10 -19l-33 -178h-225v424h1319v-424h-223l-33 178q-4 16 -10 19q-8 4 -23 4h-211v-1043q0 -20 6 -30q4 -7 27 -9l225 -16v-162h-819zM582 -348v233h247q28 -40 33 -101t-24 -124l-103 -227l-106 35
l39 151q8 33 -25 33h-61z" />
    <glyph glyph-name="uni021B" unicode="&#x21b;" horiz-adv-x="894" 
d="M846 57q-66 -33 -156 -57q-94 -25 -178 -25q-184 0 -260 78q-76 77 -76 252v537q0 9 -2 15q-2 5 -14 5h-144v182q135 17 197 92t78 242h194v-291q0 -9 2 -15q2 -5 15 -5h289v-205h-306v-489q0 -91 28 -130q27 -38 112 -38q43 0 86 9q41 9 80 24zM340 -348v233h248
q28 -40 33 -101q4 -59 -25 -124l-102 -227l-107 35l39 151q8 33 -25 33h-61z" />
    <glyph glyph-name="uni0237" unicode="&#x237;" horiz-adv-x="622" 
d="M174 819q0 35 -27 43l-116 39l24 166h428v-1176q0 -186 -92 -267q-91 -81 -264 -81q-63 0 -119 12q-65 14 -99 27q-49 19 -76 34q-34 20 -48 32l88 170q25 -17 74 -35q52 -19 104 -19q63 0 93 36t30 143v876z" />
    <glyph glyph-name="uni02BB" unicode="&#x2bb;" horiz-adv-x="1024" 
d="M399 1198q-27 39 -32 102q-5 62 24 125l103 226l106 -33l-39 -154q-4 -12 2 -21t23 -9h61v-236h-248z" />
    <glyph glyph-name="uni02BC" unicode="&#x2bc;" horiz-adv-x="1024" 
d="M373 1202v234h248q27 -39 32 -102q5 -61 -24 -124l-103 -227l-106 35l39 151q8 33 -25 33h-61z" />
    <glyph glyph-name="circumflex" unicode="&#x2c6;" horiz-adv-x="1024" 
d="M748 1151l-236 190l-236 -190l-122 106l252 265h212l252 -265z" />
    <glyph glyph-name="caron" unicode="&#x2c7;" horiz-adv-x="1024" 
d="M403 1192l-249 262l122 109l234 -191l238 191l120 -107l-252 -264h-213z" />
    <glyph glyph-name="uni02C9" unicode="&#x2c9;" horiz-adv-x="1024" 
d="M186 1227v205h650v-205h-650z" />
    <glyph glyph-name="breve" unicode="&#x2d8;" horiz-adv-x="1024" 
d="M864 1450q-35 -135 -116 -206q-84 -73 -236 -73t-236 73q-81 71 -116 206l155 59q28 -78 77 -116q47 -37 120 -37q72 0 118 36q47 36 79 117z" />
    <glyph glyph-name="dotaccent" unicode="&#x2d9;" horiz-adv-x="1024" 
d="M375 1237v418h272v-418h-272z" />
    <glyph glyph-name="ring" unicode="&#x2da;" horiz-adv-x="1024" 
d="M522 1577q89 0 152 -54t63 -147t-61 -150q-62 -57 -154 -57q-94 0 -158 56q-63 55 -63 143q0 98 66 154q65 55 155 55zM438 1372q0 -82 84 -82q35 0 57 20q21 20 21 66q0 41 -21 62q-20 20 -57 20q-40 0 -61 -20q-23 -21 -23 -66z" />
    <glyph glyph-name="ogonek" unicode="&#x2db;" horiz-adv-x="1024" 
d="M741 -424q-62 -28 -127 -42q-61 -13 -114 -13q-113 0 -166 50t-53 132q0 61 27 113q26 50 67 96q36 40 84 77q33 25 78 56l145 -39q-22 -21 -51 -48t-53 -59q-24 -31 -42 -66t-18 -66q0 -60 60 -60q15 0 48 5q25 4 58 16z" />
    <glyph glyph-name="tilde" unicode="&#x2dc;" horiz-adv-x="1024" 
d="M838 1311q-32 -58 -62 -88q-29 -29 -74 -29q-28 0 -63 8q-11 2 -38.5 9.5t-45.5 11.5q-22 5 -59 15q-13 3 -34 8.5t-28 7.5q-47 12 -50 13q-23 5 -30 5q-13 0 -32 -17l-68 -63l-113 72l62 104q28 49 61 76q32 26 74 26q46 0 129 -24q42 -12 114 -30q57 -14 89 -21
q22 -6 32 8l60 63l121 -73z" />
    <glyph glyph-name="hungarumlaut" unicode="&#x2dd;" horiz-adv-x="1024" 
d="M233 1147l-120 100l288 375l174 -152zM629 1147l-119 100l289 375l172 -152z" />
    <glyph glyph-name="gravecomb" unicode="&#x300;" horiz-adv-x="1024" 
d="M645 1149l-364 299l168 160l313 -357z" />
    <glyph glyph-name="acutecomb" unicode="&#x301;" horiz-adv-x="1024" 
d="M395 1149l-114 102l313 357l168 -160z" />
    <glyph glyph-name="uni0302" unicode="&#x302;" horiz-adv-x="1024" 
d="M748 1151l-236 190l-236 -190l-122 106l252 265h212l252 -265z" />
    <glyph glyph-name="tildecomb" unicode="&#x303;" horiz-adv-x="1024" 
d="M838 1311q-32 -58 -62 -88q-29 -29 -74 -29q-28 0 -63 8q-11 2 -38.5 9.5t-45.5 11.5q-22 5 -59 15q-13 3 -34 8.5t-28 7.5q-47 12 -50 13q-23 5 -30 5q-13 0 -32 -17l-68 -63l-113 72l62 104q28 49 61 76q32 26 74 26q46 0 129 -24q42 -12 114 -30q57 -14 89 -21
q22 -6 32 8l60 63l121 -73z" />
    <glyph glyph-name="uni0304" unicode="&#x304;" horiz-adv-x="1024" 
d="M186 1227v205h650v-205h-650z" />
    <glyph glyph-name="uni0306" unicode="&#x306;" horiz-adv-x="1024" 
d="M864 1450q-35 -135 -116 -206q-84 -73 -236 -73t-236 73q-81 71 -116 206l155 59q28 -78 77 -116q47 -37 120 -37q72 0 118 36q47 36 79 117z" />
    <glyph glyph-name="uni0307" unicode="&#x307;" horiz-adv-x="1024" 
d="M375 1237v418h272v-418h-272z" />
    <glyph glyph-name="uni0308" unicode="&#x308;" horiz-adv-x="1024" 
d="M164 1231v418h272v-418h-272zM588 1231v418h272v-418h-272z" />
    <glyph glyph-name="uni030A" unicode="&#x30a;" horiz-adv-x="1024" 
d="M522 1577q89 0 152 -54t63 -147t-61 -150q-62 -57 -154 -57q-94 0 -158 56q-63 55 -63 143q0 98 66 154q65 55 155 55zM438 1372q0 -82 84 -82q35 0 57 20q21 20 21 66q0 41 -21 62q-20 20 -57 20q-40 0 -61 -20q-23 -21 -23 -66z" />
    <glyph glyph-name="uni030B" unicode="&#x30b;" horiz-adv-x="1024" 
d="M233 1147l-120 100l288 375l174 -152zM629 1147l-119 100l289 375l172 -152z" />
    <glyph glyph-name="uni030C" unicode="&#x30c;" horiz-adv-x="1024" 
d="M403 1192l-249 262l122 109l234 -191l238 191l120 -107l-252 -264h-213z" />
    <glyph glyph-name="uni0312" unicode="&#x312;" horiz-adv-x="1024" 
d="M399 1198q-27 39 -32 102q-5 62 24 125l103 226l106 -33l-39 -154q-4 -12 2 -21t23 -9h61v-236h-248z" />
    <glyph glyph-name="uni0326" unicode="&#x326;" horiz-adv-x="1024" 
d="M371 -348v233h247q28 -40 33 -101t-24 -124l-103 -227l-106 35l39 151q7 33 -25 33h-61z" />
    <glyph glyph-name="uni0327" unicode="&#x327;" horiz-adv-x="1024" 
d="M293 -379l24 -3q8 -1 27 -1q78 0 110 30q31 30 31 72q0 49 -35 66q-37 19 -100 20l33 256l147 -16l-18 -137q22 -5 58 -19q32 -13 53 -34q19 -19 36 -56q15 -33 15 -75q0 -50 -18 -95q-19 -46 -54 -79t-95 -54q-56 -20 -142 -20q-19 0 -53 2q-20 1 -31 4z" />
    <glyph glyph-name="uni0328" unicode="&#x328;" horiz-adv-x="1024" 
d="M741 -424q-62 -28 -127 -42q-61 -13 -114 -13q-113 0 -166 50t-53 132q0 61 27 113q26 50 67 96q36 40 84 77q33 25 78 56l145 -39q-22 -21 -51 -48t-53 -59q-24 -31 -42 -66t-18 -66q0 -60 60 -60q15 0 48 5q25 4 58 16z" />
    <glyph glyph-name="uni0394" unicode="&#x394;" horiz-adv-x="1464" 
d="M18 0l519 1483h374l535 -1483h-1428zM696 1200h-12l-311 -969h653z" />
    <glyph glyph-name="uni03A9" unicode="&#x3a9;" horiz-adv-x="1660" 
d="M928 0v389q49 18 101 55q51 37 95 94q44 58 72 134q29 79 29 178q0 110 -27 188q-27 79 -76 126q-51 49 -117 71q-67 22 -153 22t-152 -26q-69 -27 -119 -80q-52 -55 -78 -134q-28 -84 -28 -190q0 -161 75 -272q76 -112 191 -164v-391h-659v356h213l27 -116q5 -17 10 -20
q6 -3 22 -3h174v78q-186 69 -281 212t-95 341q0 146 48 267q49 123 139 209q91 86 222 136q129 49 295 49q179 0 307 -43q130 -44 213 -124q85 -82 125 -195q41 -115 41 -258q0 -116 -34 -209q-35 -97 -89 -168q-56 -74 -128 -128q-73 -55 -152 -89v-78h168q16 0 22 3
q5 3 10 20l27 116h213v-356h-651z" />
    <glyph glyph-name="uni03BC" unicode="&#x3bc;" horiz-adv-x="1288" 
d="M856 0l-16 111h-13q-49 -58 -109 -95q-65 -41 -155 -41q-26 0 -58 8q-34 8 -52 17l-7 -8l39 -352h-319v1427h309v-678q0 -16 2 -56q2 -31 13 -54q13 -26 35 -41q25 -17 65 -17q109 0 205 90v756h309v-850q0 -21 5 -29t24 -10l102 -14v-164h-379z" />
    <glyph glyph-name="pi" unicode="&#x3c0;" horiz-adv-x="1374" 
d="M842 0v862h-312v-862h-434v162l92 14q24 5 28 9q5 5 5 28v633q0 22 -5 30q-4 6 -28 11l-100 14v166h1198v-166l-102 -16q-23 -5 -28 -11q-5 -7 -5 -28v-629q0 -24 5 -31q4 -5 28 -10l92 -14v-162h-434z" />
    <glyph glyph-name="Wgrave" unicode="&#x1e80;" horiz-adv-x="2136" 
d="M829 1753l105 203l422 -250l-72 -137zM1274 0l-201 750h-12l-189 -750h-401l-309 1264q-4 20 -16 26q-11 6 -29 10l-105 23l21 160h626v-160l-172 -20l209 -1002h17l235 907h312l233 -913h16l211 1008l-172 20l21 160h553v-160l-97 -23q-20 -4 -30 -10q-11 -7 -17 -26
l-290 -1264h-414z" />
    <glyph glyph-name="wgrave" unicode="&#x1e81;" horiz-adv-x="1800" 
d="M1073 1149l-364 299l168 160l313 -357zM1096 0l-160 686h-12l-162 -686h-369l-258 848q-6 18 -15 24q-10 6 -28 11l-86 18l33 166h518v-170l-115 -12l164 -576h15l182 731h309l176 -731h12l154 576l-117 12l27 170h430v-166l-74 -14q-38 -6 -49 -41l-252 -846h-323z" />
    <glyph glyph-name="Wacute" unicode="&#x1e82;" horiz-adv-x="2136" 
d="M958 1571l-71 135l422 250l104 -203zM1274 0l-201 750h-12l-189 -750h-401l-309 1264q-4 20 -16 26q-11 6 -29 10l-105 23l21 160h626v-160l-172 -20l209 -1002h17l235 907h312l233 -913h16l211 1008l-172 20l21 160h553v-160l-97 -23q-20 -4 -30 -10q-11 -7 -17 -26
l-290 -1264h-414z" />
    <glyph glyph-name="wacute" unicode="&#x1e83;" horiz-adv-x="1800" 
d="M836 1149l-115 102l313 357l168 -160zM1096 0l-160 686h-12l-162 -686h-369l-258 848q-6 18 -15 24q-10 6 -28 11l-86 18l33 166h518v-170l-115 -12l164 -576h15l182 731h309l176 -731h12l154 576l-117 12l27 170h430v-166l-74 -14q-38 -6 -49 -41l-252 -846h-323z" />
    <glyph glyph-name="Wdieresis" unicode="&#x1e84;" horiz-adv-x="2136" 
d="M1188 1597v361h274v-361h-274zM766 1597v361h274v-361h-274zM1274 0l-201 750h-12l-189 -750h-401l-309 1264q-4 20 -16 26q-11 6 -29 10l-105 23l21 160h626v-160l-172 -20l209 -1002h17l235 907h312l233 -913h16l211 1008l-172 20l21 160h553v-160l-97 -23
q-20 -4 -30 -10q-11 -7 -17 -26l-290 -1264h-414z" />
    <glyph glyph-name="wdieresis" unicode="&#x1e85;" horiz-adv-x="1800" 
d="M602 1231v418h272v-418h-272zM1026 1231v418h272v-418h-272zM1096 0l-160 686h-12l-162 -686h-369l-258 848q-6 18 -15 24q-10 6 -28 11l-86 18l33 166h518v-170l-115 -12l164 -576h15l182 731h309l176 -731h12l154 576l-117 12l27 170h430v-166l-74 -14q-38 -6 -49 -41
l-252 -846h-323z" />
    <glyph glyph-name="uni1E9E" unicode="&#x1e9e;" horiz-adv-x="1675" 
d="M1597 481q0 -128 -41 -224q-41 -95 -111 -158q-71 -63 -165 -93q-98 -31 -203 -31q-117 0 -221 26q-102 25 -162 54v359h203l25 -142q5 -19 11 -29q8 -12 25 -18q14 -5 47 -12q27 -6 70 -6q44 0 79 14q39 16 68 43q30 28 48 74q18 45 18 106q0 150 -111 205
q-110 55 -348 31l-43 219l349 363h-580v-1262h-477v160l129 14q23 5 27 11q6 10 6 30v1051q0 20 -6 30t-27 11l-129 14v162h1362v-228l-342 -348q100 0 191 -21q88 -20 160 -72q68 -49 109 -131q39 -78 39 -202z" />
    <glyph glyph-name="Ygrave" unicode="&#x1ef2;" horiz-adv-x="1384" 
d="M440 1753l105 203l422 -250l-72 -137zM317 0v162l205 14q23 2 28 10t5 31v336l-408 713q-11 17 -20 22q-10 6 -29 12l-92 23l21 160h614v-160l-160 -18l248 -484h16l248 484l-157 18l20 160h522v-160l-86 -23q-16 -4 -29 -13q-15 -10 -22 -25l-371 -705v-340q0 -20 6 -30
q4 -7 27 -9l217 -16v-162h-803z" />
    <glyph glyph-name="ygrave" unicode="&#x1ef3;" horiz-adv-x="1267" 
d="M778 1149l-364 299l168 160l313 -357zM225 -434v166l160 18q20 1 31 12q9 9 20 33l88 195l-391 856q-6 18 -15 24q-10 6 -28 11l-84 20l33 166h543v-166l-129 -16l227 -541h14l217 541l-133 16l27 166h457v-166l-66 -12q-22 -5 -31 -10q-12 -6 -20 -25l-451 -1102
l213 -22v-164h-682z" />
    <glyph glyph-name="uni2009" unicode="&#x2009;" horiz-adv-x="256" 
 />
    <glyph glyph-name="endash" unicode="&#x2013;" horiz-adv-x="1024" 
d="M0 465v219h1022v-219h-1022z" />
    <glyph glyph-name="emdash" unicode="&#x2014;" horiz-adv-x="2048" 
d="M0 465v219h2048v-219h-2048z" />
    <glyph glyph-name="quoteleft" unicode="&#x2018;" horiz-adv-x="446" 
d="M356 1346v-273h-245q-14 20 -22 51q-6 25 -8 66q-1 32 5 72q6 37 18 67l111 256l104 -33l-45 -174q-4 -13 4 -23q7 -9 17 -9h61z" />
    <glyph glyph-name="quoteright" unicode="&#x2019;" horiz-adv-x="456" 
d="M90 1290v273h246q12 -17 21 -52q7 -30 9 -65q1 -27 -6 -72q-6 -37 -18 -67l-111 -256l-104 32l45 174q4 15 -3 24q-8 9 -17 9h-62z" />
    <glyph glyph-name="quotesinglbase" unicode="&#x201a;" horiz-adv-x="466" 
d="M104 0v272h246q14 -20 22 -51q6 -25 8 -65q1 -32 -5 -72q-5 -34 -19 -68l-110 -256l-105 33l45 174q4 15 -3 24t-17 9h-62z" />
    <glyph glyph-name="quotedblleft" unicode="&#x201c;" horiz-adv-x="811" 
d="M729 1346v-273h-246q-13 18 -21 51q-6 25 -8 66q-1 32 5 72q6 37 18 67l111 256l104 -33l-45 -174q-4 -14 3 -23q8 -9 18 -9h61zM362 1346v-273h-245q-14 20 -22 51q-6 25 -8 66q-1 32 5 72q5 32 19 67l110 256l105 -33l-45 -174q-4 -14 3 -23q8 -9 17 -9h61z" />
    <glyph glyph-name="quotedblright" unicode="&#x201d;" horiz-adv-x="821" 
d="M457 1290v273h245q14 -19 22 -52q6 -25 8 -65q1 -32 -5 -72q-6 -37 -18 -67l-111 -256l-104 32l45 174q5 15 -3 24t-18 9h-61zM90 1290v273h246q12 -17 21 -52q7 -30 9 -65q1 -27 -6 -72q-6 -37 -18 -67l-111 -256l-104 32l45 174q4 15 -3 24q-8 9 -17 9h-62z" />
    <glyph glyph-name="quotedblbase" unicode="&#x201e;" horiz-adv-x="831" 
d="M104 0v272h246q14 -20 22 -51q6 -25 8 -65q1 -32 -5 -72q-5 -34 -19 -68l-110 -256l-105 33l45 174q4 15 -3 24t-17 9h-62zM469 0v272h246q13 -18 21 -51q6 -25 8 -65q1 -32 -5 -72q-6 -38 -18 -68l-111 -256l-104 33l45 174q5 15 -3 24t-18 9h-61z" />
    <glyph glyph-name="dagger" unicode="&#x2020;" horiz-adv-x="823" 
d="M446 952l72 197v172h-215v-172l74 -197h69zM377 885l-170 -74h-152v213h152l170 -72v-67zM618 811l-172 74v67l172 72h150v-213h-150zM309 -170v387l-41 438l109 230h69l107 -230l-39 -438v-387h-205z" />
    <glyph glyph-name="daggerdbl" unicode="&#x2021;" horiz-adv-x="897" 
d="M655 125l-172 74l72 -197v-172h-215v172l74 197l-170 -74h-152v213h152l170 -72l-109 238v153l109 228l-170 -74h-152v213h152l170 -72l-74 197v172h215v-172l-72 -197l172 72h150v-213h-150l-172 74l107 -228v-153l-107 -238h-69v-67h69v67l172 72h150v-213h-150z
M483 885v67h-69v-67h69z" />
    <glyph glyph-name="bullet" unicode="&#x2022;" horiz-adv-x="854" 
d="M123 279v587h612v-587h-612z" />
    <glyph glyph-name="ellipsis" unicode="&#x2026;" horiz-adv-x="1470" 
d="M584 0v332h309v-332h-309zM94 0v332h309v-332h-309zM1073 0v332h309v-332h-309z" />
    <glyph glyph-name="perthousand" unicode="&#x2030;" horiz-adv-x="2308" 
d="M272 -35l772 1307h285l-770 -1307h-287zM698 946q0 -161 -83 -252q-83 -90 -240 -90q-87 0 -145 24q-59 24 -95 66t-53 103q-16 58 -16 131q0 166 82 254t241 88q163 0 236 -85t73 -239zM283 940q0 -96 23 -138q24 -44 77 -44t77 43q23 42 23 141q0 89 -22 130
q-23 42 -76 42q-102 0 -102 -174zM1550 317q0 -160 -83 -251t-240 -91q-87 0 -145 24t-95 67q-37 42 -53 102q-16 58 -16 131q0 166 82 254t241 88q163 0 236 -85t73 -239zM2241 317q0 -160 -83 -251t-241 -91q-85 0 -144 24t-96 67q-37 42 -53 102q-16 58 -16 131
q0 165 83 254q82 88 240 88q163 0 236 -85q74 -86 74 -239zM1135 311q0 -96 23 -138q24 -44 77 -44t77 43q23 42 23 141q0 89 -22 130q-23 42 -76 42q-102 0 -102 -174zM1825 311q0 -96 23 -138q24 -44 77 -44t77 43q23 42 23 141q0 89 -22 130q-23 42 -76 42
q-102 0 -102 -174z" />
    <glyph glyph-name="guilsinglleft" unicode="&#x2039;" horiz-adv-x="575" 
d="M248 211l-176 315l182 310h250l-164 -285q-8 -13 -8 -20t6 -19l156 -301h-246z" />
    <glyph glyph-name="guilsinglright" unicode="&#x203a;" horiz-adv-x="575" 
d="M80 211l158 295q6 15 6 20q0 6 -8 19l-164 291h250l182 -312l-176 -313h-248z" />
    <glyph glyph-name="fraction" unicode="&#x2044;" horiz-adv-x="374" 
d="M-332 -35l733 1518h271l-731 -1518h-273z" />
    <glyph glyph-name="uni2070" unicode="&#x2070;" horiz-adv-x="897" 
d="M838 1186q0 -247 -93 -367q-92 -119 -305 -119q-107 0 -179 30q-75 31 -118 89q-44 59 -64 148q-20 91 -20 204q0 243 96 363q95 119 304 119q107 0 179 -30q75 -31 117 -88q44 -59 63 -146q20 -91 20 -203zM336 1180q0 -81 5 -144q4 -56 17 -92q12 -35 35 -50t58 -15
q32 0 52 14q23 16 34 50q13 38 17 93q5 63 5 144q0 90 -4 139q-5 60 -15 89q-12 33 -32 48q-20 14 -53 14q-35 0 -57 -14q-24 -15 -37 -48t-19 -89q-6 -55 -6 -139z" />
    <glyph glyph-name="uni2074" unicode="&#x2074;" horiz-adv-x="878" 
d="M457 717v176h-412v166l397 571h263v-561h110v-174h-110v-178h-248zM457 1376h-6l-199 -307h205v307z" />
    <glyph glyph-name="uni2075" unicode="&#x2075;" horiz-adv-x="817" 
d="M324 1427l-17 -172q28 17 75 33q43 15 101 15q123 0 197 -68t74 -203q0 -69 -23 -130q-23 -60 -69 -105q-47 -45 -118 -71q-72 -26 -169 -26q-115 0 -211 35q-95 35 -152 92l125 150q41 -35 94 -59q55 -25 117 -25q135 0 135 121q0 60 -28 84q-29 24 -74 24
q-63 0 -107 -53l-174 66l33 495h557v-203h-366z" />
    <glyph glyph-name="uni2076" unicode="&#x2076;" horiz-adv-x="864" 
d="M539 1386q0 57 -15 78t-55 21q-65 0 -91 -64q-27 -66 -28 -174q33 16 77 27q41 10 95 10q63 0 112 -14q52 -15 92 -46q39 -30 62 -81t23 -119q0 -88 -30 -150q-29 -60 -80 -100q-47 -37 -116 -56q-66 -18 -141 -18q-106 0 -179 35q-74 36 -117 96q-44 63 -62 147
q-18 86 -18 183q0 84 18 171t65 158t125 117q79 46 203 46q53 0 114 -8q52 -7 101 -33q46 -25 73 -71q28 -48 28 -124zM446 1122q-32 0 -56 -7q-28 -8 -42 -17q0 -108 19 -162q18 -51 77 -51q54 0 72 40q19 43 19 81q0 58 -19 88q-18 28 -70 28z" />
    <glyph glyph-name="uni2077" unicode="&#x2077;" horiz-adv-x="792" 
d="M199 717q12 138 48 253q37 119 82 206q46 88 93 154q43 60 82 97h-244q-10 0 -12 -6q-2 -8 -2 -12l-15 -92l-174 -14v327h723v-182q-62 -64 -115 -150q-55 -88 -91 -179q-37 -94 -60 -197q-22 -102 -27 -205h-288z" />
    <glyph glyph-name="uni2078" unicode="&#x2078;" horiz-adv-x="813" 
d="M729 1423q0 -63 -31 -117q-30 -53 -82 -100q77 -46 114 -97q36 -49 36 -128q0 -69 -29 -122q-27 -50 -79 -88q-48 -35 -118 -53q-69 -18 -149 -18q-169 0 -257 64q-87 63 -87 180q0 44 13 79q13 34 35 66q19 27 48 53q27 24 54 42q-56 38 -87 85q-32 49 -32 120
q0 126 93 195t241 69q152 0 235 -62q82 -61 82 -168zM326 1413q0 -42 34 -72q37 -32 95 -61q36 39 50 71q15 35 15 62q0 35 -25 57q-26 23 -73 23q-48 0 -73 -25q-23 -23 -23 -55zM502 950q0 50 -48 81q-50 33 -116 65q-40 -34 -59 -70t-19 -68q0 -36 28 -67t99 -31
q60 0 88 28q27 27 27 62z" />
    <glyph glyph-name="uni2079" unicode="&#x2079;" horiz-adv-x="866" 
d="M184 956q33 -25 89 -49q53 -22 108 -22q78 0 105 49q28 52 34 143q-28 -15 -74 -28q-47 -13 -88 -13q-132 0 -217 73q-84 72 -84 220q0 159 100 242q98 82 261 82q108 0 179 -34q75 -36 118 -93q43 -58 65 -140q21 -80 21 -174q0 -91 -19 -188q-18 -93 -64 -164
q-47 -73 -124 -116q-79 -44 -197 -44q-91 0 -180 30q-86 29 -137 77zM430 1208q22 0 49 10q26 10 39 19q2 22 2 30v27q-2 85 -22 129q-21 45 -78 45q-48 0 -67 -33q-19 -34 -19 -85q0 -62 18 -102t78 -40z" />
    <glyph glyph-name="uni207A" unicode="&#x207a;" horiz-adv-x="677" 
d="M236 895v186h-175v189h175v180h206v-180h174v-189h-174v-186h-206z" />
    <glyph glyph-name="uni207B" unicode="&#x207b;" horiz-adv-x="677" 
d="M61 1081v189h555v-189h-555z" />
    <glyph glyph-name="uni207C" unicode="&#x207c;" horiz-adv-x="677" 
d="M61 1169v187h555v-187h-555zM61 883v188h555v-188h-555z" />
    <glyph glyph-name="uni207D" unicode="&#x207d;" horiz-adv-x="550" 
d="M332 528q-50 56 -93 126q-43 69 -78 152q-34 79 -55 169q-20 84 -20 178q0 191 74 348t184 291l197 -113q-88 -121 -127 -244q-41 -128 -41 -282q0 -87 11 -149q13 -76 32 -130q20 -60 49 -117q32 -63 65 -114z" />
    <glyph glyph-name="uni207E" unicode="&#x207e;" horiz-adv-x="552" 
d="M12 645q89 120 130 246q40 123 40 278q0 90 -11 153q-13 75 -32 129q-23 67 -50 116q-35 65 -66 112l200 113q49 -56 93 -126t78 -150q32 -75 53 -168q20 -91 20 -179q0 -188 -73 -348q-72 -157 -185 -293z" />
    <glyph glyph-name="uni207F" unicode="&#x207f;" horiz-adv-x="899" 
d="M555 717v436q0 43 -11 71q-12 29 -59 29q-29 0 -58 -10q-32 -11 -52 -26v-347q0 -16 3 -21q4 -6 19 -7l64 -6v-119h-412v117l60 10q16 4 20 8t4 18v373q0 21 -20 27l-72 26l16 121h269l10 -63l6 -2q50 34 112 57q61 23 132 23q107 0 159 -54t52 -172v-336q0 -16 3 -20
q3 -5 19 -6l68 -8v-119h-332z" />
    <glyph glyph-name="uni2080" unicode="&#x2080;" horiz-adv-x="897" 
d="M838 168q0 -247 -93 -367q-91 -118 -305 -118q-109 0 -179 29q-75 31 -118 89q-44 59 -64 148q-20 91 -20 205q0 242 96 362q95 119 304 119q107 0 179 -30q75 -31 117 -88q44 -59 63 -146q20 -91 20 -203zM336 162q0 -81 5 -144q4 -56 17 -92q12 -35 35 -50t58 -15
q32 0 52 14q23 16 34 50q13 38 17 93q5 63 5 144q0 90 -4 139q-5 60 -15 89q-12 33 -32 48q-21 15 -53 15q-33 0 -57 -15t-37 -48t-19 -89t-6 -139z" />
    <glyph glyph-name="uni2081" unicode="&#x2081;" horiz-adv-x="630" 
d="M66 -301v131l102 12q14 1 20 6q7 5 7 21v553q0 23 -19 29l-115 24l21 139h387v-745q0 -17 3 -21t20 -6l108 -12v-131h-534z" />
    <glyph glyph-name="uni2082" unicode="&#x2082;" horiz-adv-x="811" 
d="M53 -301v147l273 314q42 49 70 85q34 43 43 58q17 27 22 44q6 19 6 40q0 31 -18 49q-19 19 -66 19q-44 0 -68 -26q-24 -25 -24 -89l-236 22q0 87 33 141t83 83q49 28 113 39q60 10 122 10q169 0 247 -64q76 -63 76 -168q0 -82 -40 -146q-42 -67 -93 -128l-240 -274h189
q9 0 11 6q2 8 5 12l17 98h182v-272h-707z" />
    <glyph glyph-name="uni2083" unicode="&#x2083;" horiz-adv-x="827" 
d="M584 176q186 -34 186 -215q0 -67 -29 -119t-79 -87q-50 -36 -121 -54q-69 -18 -150 -18q-118 0 -208 33q-95 35 -150 91l125 152q38 -34 94 -61q55 -27 119 -27q53 0 90 24t37 85q0 56 -34 77t-91 21q-12 0 -44 -2q-22 -1 -55 -8v168l62 6q66 7 108 32q41 24 41 97
q0 35 -18 59q-19 25 -66 25q-43 0 -65 -25q-21 -25 -23 -82l-241 23q0 84 30 135t80 80q50 28 111 39q59 10 125 10q168 0 248 -57q79 -57 79 -179q0 -81 -45 -140q-45 -58 -116 -79v-4z" />
    <glyph glyph-name="uni2084" unicode="&#x2084;" horiz-adv-x="878" 
d="M457 -301v176h-412v166l397 571h263v-561h110v-174h-110v-178h-248zM457 358h-6l-199 -307h205v307z" />
    <glyph glyph-name="uni2085" unicode="&#x2085;" horiz-adv-x="817" 
d="M324 410l-17 -172q24 14 75 32q44 15 101 15q123 0 197 -68t74 -203q0 -69 -23 -130q-23 -60 -69 -105q-47 -45 -118 -71q-69 -25 -169 -25q-118 0 -211 34t-152 93l125 149q41 -35 94 -59q55 -25 117 -25q135 0 135 121q0 60 -28 84q-29 24 -74 24q-63 0 -107 -53
l-174 66l33 495h557v-202h-366z" />
    <glyph glyph-name="uni2086" unicode="&#x2086;" horiz-adv-x="864" 
d="M539 369q0 56 -15 77t-55 21q-65 0 -91 -64q-27 -66 -28 -174q33 16 77 27q41 10 95 10q63 0 112 -14q52 -15 92 -46q39 -30 62 -81t23 -119q0 -87 -30 -149t-80 -101q-47 -37 -116 -56q-62 -17 -141 -17q-108 0 -179 34q-73 35 -117 97q-45 63 -62 146q-18 86 -18 183
q0 84 18 171t65 158t125 117q79 46 203 46q53 0 114 -8q52 -7 101 -33q46 -25 73 -71q28 -48 28 -124zM446 104q-32 0 -56 -7q-28 -8 -42 -17q0 -108 19 -162q18 -51 77 -51q54 0 72 40q19 43 19 81q0 58 -19 88q-18 28 -70 28z" />
    <glyph glyph-name="uni2087" unicode="&#x2087;" horiz-adv-x="792" 
d="M199 -301q12 138 48 253q37 119 82 206q46 88 93 154q45 63 82 98h-244q-10 0 -12 -7q-2 -8 -2 -12l-15 -92l-174 -14v327h723v-182q-63 -66 -115 -149q-54 -86 -91 -180t-60 -197q-22 -102 -27 -205h-288z" />
    <glyph glyph-name="uni2088" unicode="&#x2088;" horiz-adv-x="813" 
d="M729 406q0 -64 -31 -118q-30 -53 -82 -100q77 -46 114 -97q36 -49 36 -128q0 -69 -29 -122q-27 -50 -79 -88q-48 -35 -118 -53q-65 -17 -149 -17q-170 0 -257 63t-87 180q0 44 13 79q13 34 35 66q19 27 48 53q27 24 54 42q-56 38 -87 85q-32 49 -32 120q0 126 93 195
t241 69q152 0 235 -62q82 -61 82 -167zM326 395q0 -41 34 -71q39 -34 95 -62q36 39 50 71q15 34 15 62q0 36 -25 58t-73 22q-49 0 -73 -24q-23 -23 -23 -56zM502 -68q0 50 -48 81q-50 33 -116 65q-40 -34 -59 -70t-19 -67q0 -37 28 -68t99 -31q60 0 88 28q27 27 27 62z" />
    <glyph glyph-name="uni2089" unicode="&#x2089;" horiz-adv-x="866" 
d="M184 -61q35 -28 89 -50q53 -22 108 -22q78 0 105 49q28 52 34 143q-28 -15 -74 -28q-47 -13 -88 -13q-132 0 -217 73q-84 72 -84 220q0 159 100 242q98 82 261 82q108 0 179 -34q75 -36 118 -93q44 -58 65 -139q21 -79 21 -174q0 -92 -19 -189q-18 -93 -64 -164
q-46 -72 -124 -115q-79 -44 -197 -44q-94 0 -180 29t-137 77zM430 190q22 0 49 10q26 10 39 19q2 22 2 30v27q-2 86 -22 130q-21 45 -78 45q-48 0 -67 -34t-19 -85q0 -62 18 -102t78 -40z" />
    <glyph glyph-name="uni208A" unicode="&#x208a;" horiz-adv-x="677" 
d="M236 -123v186h-175v189h175v180h206v-180h174v-189h-174v-186h-206z" />
    <glyph glyph-name="uni208B" unicode="&#x208b;" horiz-adv-x="677" 
d="M61 63v189h555v-189h-555z" />
    <glyph glyph-name="uni208C" unicode="&#x208c;" horiz-adv-x="677" 
d="M61 152v186h555v-186h-555zM61 -135v188h555v-188h-555z" />
    <glyph glyph-name="uni208D" unicode="&#x208d;" horiz-adv-x="550" 
d="M332 -489q-52 58 -93 125q-43 69 -78 152q-34 79 -55 169q-20 84 -20 178q0 191 74 348t184 291l197 -112q-87 -121 -127 -245q-41 -128 -41 -282q0 -87 11 -149q13 -74 32 -129q22 -63 49 -118q32 -63 65 -114z" />
    <glyph glyph-name="uni208E" unicode="&#x208e;" horiz-adv-x="552" 
d="M12 -373q89 120 130 246q40 123 40 279q0 89 -11 152q-13 75 -32 129q-23 67 -50 116q-38 71 -66 113l200 112q49 -56 93 -126t78 -150q32 -75 53 -168q20 -91 20 -178q0 -189 -73 -349q-71 -155 -185 -292z" />
    <glyph glyph-name="uni2090" unicode="&#x2090;" horiz-adv-x="813" 
d="M522 -301l-12 72l-8 2q-37 -37 -90 -63q-56 -27 -142 -27q-68 0 -108 18q-42 19 -64 48q-21 28 -29 65t-8 67q0 105 69 152t204 57l145 12v72q0 40 -13 66t-69 26q-42 0 -63 -15t-21 -69l-225 17q0 68 31 111q30 42 77 66q46 24 101 31q52 7 106 7q163 0 238 -52
q74 -51 74 -192v-315q0 -17 3 -21q3 -5 19 -6l66 -10v-119h-281zM479 -16l-69 -7q-56 -5 -78 -21q-25 -19 -25 -56q0 -31 19 -44q18 -12 49 -12t58 11t46 26v103z" />
    <glyph glyph-name="uni2091" unicode="&#x2091;" horiz-adv-x="765" 
d="M721 -246q-65 -31 -142 -52q-70 -19 -153 -19q-104 0 -176 27q-71 26 -115 77q-42 48 -62 116t-20 144q0 92 28 164q27 70 77 115q50 46 114 66q69 22 142 22q142 0 228 -76q87 -76 87 -254q0 -21 -1 -37q-2 -32 -3 -47h-418q5 -73 40 -108t110 -35q35 0 85 9
q43 8 128 34zM496 127q0 76 -25 104q-24 27 -65 27q-40 0 -68 -31q-26 -29 -31 -100h189z" />
    <glyph glyph-name="uni2092" unicode="&#x2092;" horiz-adv-x="843" 
d="M811 59q0 -169 -92 -273q-91 -103 -293 -103q-101 0 -169 26q-71 27 -116 75t-66 113q-22 68 -22 142q0 173 99 274t290 101q101 0 170 -27q71 -28 114 -74q44 -47 65 -111q20 -61 20 -143zM305 51q0 -119 35 -163t94 -44t93 43t34 166q0 115 -33 158t-90 43
q-58 0 -96 -42q-37 -41 -37 -161z" />
    <glyph glyph-name="uni2093" unicode="&#x2093;" horiz-adv-x="884" 
d="M455 -301v117l53 12l-92 113l-111 -115l72 -10v-117h-336v115l53 12q3 1 11 3.5t12 4.5q11 4 20 14l182 183l-192 211q-15 15 -35 22l-53 15l14 120h396v-120l-62 -11l90 -104l107 104l-68 11l14 120h316v-120l-64 -13q-13 -5 -18 -10q-6 -6 -19 -14l-167 -170l196 -219
q13 -13 18 -17q8 -7 19 -8l59 -10v-119h-415z" />
    <glyph glyph-name="uni2096" unicode="&#x2096;" horiz-adv-x="907" 
d="M612 -301l-176 334l-61 -62v-118q0 -17 3 -20q2 -3 19 -7l84 -8v-119h-436v117l64 10q17 4 20 8q4 4 4 19v684q0 20 -20 26l-74 25l18 121h318v-545l243 235h207v-118l-71 -11q-20 -5 -35 -20l-90 -86l170 -316q6 -12 16 -18q7 -4 25 -6l59 -10v-115h-287z" />
    <glyph glyph-name="uni2097" unicode="&#x2097;" horiz-adv-x="475" 
d="M45 -301v117l64 10q17 4 20 8q4 4 4 19v684q0 20 -20 26l-74 25l18 121h318v-856q0 -17 3 -20q2 -3 19 -7l64 -8v-119h-416z" />
    <glyph glyph-name="uni2098" unicode="&#x2098;" horiz-adv-x="1261" 
d="M920 -301v451q0 33 -11 60q-11 26 -49 26q-19 0 -48 -9q-26 -8 -48 -22q4 -15 4 -30v-30v-292q0 -15 2 -21q1 -3 18 -8l56 -6v-119h-318v455q0 34 -9 58t-48 24q-20 0 -51 -13q-29 -12 -43 -22v-344q0 -17 3 -23q3 -7 19 -8l60 -8v-119h-408v117l60 10q15 4 20 9
q4 4 4 20v370q0 21 -20 27l-72 27l16 120h269l10 -63l6 -2q44 34 98 57t119 23q46 0 97 -16q49 -15 79 -62q30 23 88 50q59 28 131 28q111 0 159 -53q48 -52 48 -168v-340q0 -17 3 -21t20 -6l67 -8v-119h-331z" />
    <glyph glyph-name="uni2099" unicode="&#x2099;" horiz-adv-x="899" 
d="M555 -301v436q0 43 -11 71q-12 30 -59 30q-27 0 -58 -11q-32 -11 -52 -26v-346q0 -17 3 -22q4 -6 19 -7l64 -6v-119h-412v117l60 10q17 4 20 8q4 4 4 19v372q0 21 -20 27l-72 27l16 120h269l10 -63l6 -2q50 34 112 57q61 23 132 23q107 0 159 -54t52 -172v-335
q0 -17 3 -21q3 -5 19 -6l68 -8v-119h-332z" />
    <glyph glyph-name="uni209A" unicode="&#x209a;" horiz-adv-x="888" 
d="M45 -586v119l55 8q18 5 22 9q5 5 5 22v653q0 21 -21 27l-71 27l18 120h266l13 -63l6 -2q51 40 117 60q65 20 120 20q58 0 110 -19q50 -18 86 -59q34 -38 56 -108q21 -66 21 -162q0 -69 -14 -133q-14 -65 -50 -123q-35 -57 -92 -91q-56 -34 -141 -34q-56 0 -99 14
q-48 15 -90 49v-176q0 -15 4 -21q3 -4 19 -4l152 -14v-119h-492zM367 -98q19 -14 53 -31q28 -14 63 -14q61 0 87 53q26 54 26 145q0 90 -28 135q-27 43 -83 43q-32 0 -64 -11q-37 -13 -54 -25v-295z" />
    <glyph glyph-name="uni209B" unicode="&#x209b;" horiz-adv-x="718" 
d="M496 188l-11 58q-1 14 -14 20q-15 5 -35 6q-28 2 -47 2q-47 0 -74 -13q-28 -13 -28 -42q0 -35 45 -50q54 -18 104 -28q49 -8 91 -21q46 -14 80 -37q38 -25 58 -63q21 -39 21 -98q0 -61 -25 -108q-24 -45 -69 -75q-44 -29 -105 -43q-58 -13 -131 -13q-44 0 -97 5
q-40 4 -86 13q-26 5 -65 16q-23 6 -38 15v194l168 -10l12 -68q2 -19 18 -20q10 -4 38 -7q26 -3 63 -3q102 0 102 59q0 39 -40 52q-41 14 -97 24q-49 9 -90 19q-51 13 -85 35q-40 26 -63 64q-24 41 -24 103q0 66 26 109t72 74q44 29 102 43q59 14 121 14q84 0 163 -14
q81 -14 108 -25v-197z" />
    <glyph glyph-name="uni209C" unicode="&#x209c;" horiz-adv-x="645" 
d="M618 -260q-44 -22 -110 -40q-62 -17 -129 -17q-136 0 -189 53t-53 176v326q0 7 -1 10q-1 4 -11 4h-98v135q98 10 142 63q43 52 58 154h150v-190q0 -15 10 -15h199v-147h-209v-293q0 -59 18 -83q17 -23 76 -23q25 0 57 5q26 4 52 11z" />
    <glyph glyph-name="Euro" unicode="&#x20ac;" horiz-adv-x="1144" 
d="M473 543q17 -181 76 -261q60 -81 170 -81q31 0 55 4q29 5 43 10q21 8 23 31l32 164l211 10v-357q-18 -11 -66 -30q-45 -18 -96 -29q-58 -13 -115 -20q-72 -9 -120 -9q-250 0 -385 144q-136 145 -158 424h-155l41 239h114q16 145 67 254q49 106 125 174q77 69 169 100
q93 31 198 31q56 0 117 -8q54 -7 109 -20q49 -12 92 -29q42 -17 65 -33v-348l-213 10l-30 158q-2 16 -6 23q-5 8 -19 12q-32 14 -102 14q-48 0 -86 -17q-43 -19 -74 -56q-33 -39 -54 -104q-23 -70 -30 -161h307l-39 -239h-266z" />
    <glyph glyph-name="uni20BA" unicode="&#x20ba;" horiz-adv-x="1286" 
d="M260 0v514l-182 -74v242l182 74v329q0 22 -5 30q-4 6 -28 11l-129 15v164h641v-164l-131 -17q-23 -5 -27 -10q-6 -8 -6 -29v-215l289 123v-241l-289 -123v-414h15q84 0 159 28q70 26 124 80q52 52 82 127q31 76 32 168l234 -53q1 -96 -27 -196t-98 -183
q-67 -80 -184 -134q-113 -52 -281 -52h-371z" />
    <glyph glyph-name="uni2116" unicode="&#x2116;" horiz-adv-x="2293" 
d="M967 0l-490 889v-672q0 -24 5 -31q4 -5 28 -10l137 -16v-160h-569v160l129 14q23 5 27 11q6 10 6 30v872q0 21 -6 31q-5 9 -27 10l-129 15v160h508l479 -891v671q0 23 -5 31t-28 10l-129 15v164h570v-164l-138 -17q-23 -5 -27 -10q-5 -7 -5 -29v-1083h-336zM2169 813
q0 -169 -87 -273t-288 -104q-99 0 -168 27q-70 27 -113 75q-42 47 -62 113q-19 64 -19 142q0 173 93 274q93 100 285 100q103 0 169 -26q68 -27 111 -74q42 -46 60 -112q19 -68 19 -142zM1683 805q0 -119 30 -163t89 -44q60 0 88 43q29 44 29 166q0 113 -28 158
q-27 43 -85 43q-60 0 -91 -42q-32 -43 -32 -161zM1466 377h674v-197h-674v197z" />
    <glyph glyph-name="trademark" unicode="&#x2122;" horiz-adv-x="1734" 
d="M188 713v104l111 10v523h-133l-12 -105h-105v238h680v-238h-104l-11 105h-137v-523l117 -10v-104h-406zM1354 713v102l102 10v377l-141 -323h-162l-143 325v-379l108 -10v-102h-336v102l74 10v549l-74 8v101h267l192 -453l186 453h259v-101l-78 -8v-549l82 -10v-102h-336
z" />
    <glyph glyph-name="uni2126" unicode="&#x2126;" horiz-adv-x="1660" 
d="M928 0v389q49 18 101 55q51 37 95 94q44 58 72 134q29 79 29 178q0 110 -27 188q-27 79 -76 126q-51 49 -117 71q-67 22 -153 22t-152 -26q-69 -27 -119 -80q-52 -55 -78 -134q-28 -84 -28 -190q0 -161 75 -272q76 -112 191 -164v-391h-659v356h213l27 -116q5 -17 10 -20
q6 -3 22 -3h174v78q-186 69 -281 212t-95 341q0 146 48 267q49 123 139 209q91 86 222 136q129 49 295 49q179 0 307 -43q130 -44 213 -124q85 -82 125 -195q41 -115 41 -258q0 -116 -34 -209q-35 -97 -89 -168q-56 -74 -128 -128q-73 -55 -152 -89v-78h168q16 0 22 3
q5 3 10 20l27 116h213v-356h-651z" />
    <glyph glyph-name="uni2150" unicode="&#x2150;" horiz-adv-x="2007" 
d="M98 575v132l103 12q14 1 20 6t6 20v553q0 23 -18 29l-115 25l21 139h387v-746q0 -15 3 -20t19 -6l109 -12v-132h-535zM395 -35l733 1518h271l-731 -1518h-273zM1331 0q12 138 48 253q37 119 82 206q46 88 93 154q45 63 82 98h-243q-11 0 -13 -6q-2 -8 -2 -13l-14 -92
l-174 -14v327h723v-182q-66 -69 -116 -149q-51 -81 -90 -180q-37 -94 -60 -197q-22 -102 -27 -205h-289z" />
    <glyph glyph-name="uni2151" unicode="&#x2151;" horiz-adv-x="2007" 
d="M96 575v132l103 12q14 1 20 6t6 20v553q0 23 -18 29l-115 25l21 139h387v-746q0 -15 3 -20t19 -6l109 -12v-132h-535zM416 -35l733 1518h270l-731 -1518h-272zM1296 240q35 -28 89 -50q53 -22 108 -22q78 0 105 49q28 52 34 143q-29 -16 -73 -28q-47 -13 -89 -13
q-132 0 -217 73q-84 72 -84 220q0 159 100 242q98 82 261 82q108 0 179 -34q75 -36 118 -93q44 -58 65 -139q21 -80 21 -174q0 -92 -19 -189q-18 -93 -64 -164q-46 -72 -124 -115q-79 -44 -197 -44q-94 0 -180 29t-137 77zM1542 492q25 0 49 9q26 10 39 19q2 22 2 30v28
q-2 85 -22 129q-21 45 -78 45q-48 0 -67 -34t-19 -85q0 -61 18 -102q17 -39 78 -39z" />
    <glyph glyph-name="uni2153" unicode="&#x2153;" horiz-adv-x="2007" 
d="M121 575v132l102 12q15 1 21 6t6 20v553q0 23 -19 29l-114 25l20 139h387v-746q0 -15 3 -20q3 -4 20 -6l108 -12v-132h-534zM430 -35l733 1518h271l-732 -1518h-272zM1704 477q186 -34 186 -215q0 -69 -28 -119t-80 -87q-50 -36 -121 -54q-69 -18 -150 -18
q-117 0 -207 33q-95 35 -151 92l125 151q38 -34 94 -61t119 -27q53 0 90 24t37 85q0 56 -34 77t-91 21q-12 0 -44 -2q-20 -1 -54 -8v168l61 6q68 8 109 32t41 97q0 34 -19 59t-65 25q-44 0 -66 -25q-20 -23 -22 -82l-242 23q0 82 31 135q30 51 80 80t110 39q59 10 125 10
q168 0 248 -57t80 -179q0 -82 -45 -140t-117 -79v-4z" />
    <glyph glyph-name="uni2154" unicode="&#x2154;" horiz-adv-x="2007" 
d="M57 575v148l273 313q42 49 70 85q30 39 43 59q17 27 22 44q6 20 6 40q0 31 -18 49t-66 18q-44 0 -68 -25q-24 -26 -24 -89l-236 22q0 86 33 140t83 83q49 28 113 39q60 10 122 10q170 0 247 -63q76 -63 76 -168q0 -82 -40 -146q-42 -67 -93 -128l-240 -275h189q9 0 11 6
q2 9 5 13l17 98h182v-273h-707zM518 -35l733 1518h271l-731 -1518h-273zM1761 477q187 -35 187 -215q0 -67 -29 -119q-28 -50 -80 -87q-50 -36 -121 -54q-69 -18 -149 -18q-118 0 -208 33q-95 35 -151 92l125 151q37 -33 95 -61q56 -27 118 -27q52 0 90 24q37 24 37 85
q0 56 -34 77t-91 21q-12 0 -44 -2q-20 -1 -54 -8v168l61 6q68 8 109 32t41 97q0 35 -18 59q-19 25 -66 25q-44 0 -66 -25q-20 -23 -22 -82l-242 23q0 82 31 135q30 51 80 80t110 39q59 10 125 10q169 0 248 -57q80 -57 80 -179q0 -82 -45 -140t-117 -79v-4z" />
    <glyph glyph-name="uni2155" unicode="&#x2155;" horiz-adv-x="2007" 
d="M92 575v132l103 12q14 1 20 6t6 20v553q0 23 -18 29l-115 25l21 139h387v-746q0 -15 3 -20t19 -6l109 -12v-132h-535zM444 -35l734 1518h270l-731 -1518h-273zM1489 711l-16 -172q25 15 74 32q43 15 102 15q122 0 196 -68t74 -203q0 -69 -23 -130q-22 -60 -69 -105
t-118 -71q-69 -25 -169 -25q-118 0 -211 34q-91 33 -151 93l125 149q41 -35 94 -59q55 -25 116 -25q136 0 136 121q0 60 -29 84q-30 25 -74 25q-61 0 -106 -54l-174 66l32 495h557v-202h-366z" />
    <glyph glyph-name="uni2156" unicode="&#x2156;" horiz-adv-x="2007" 
d="M49 575v148l273 313q42 49 70 85q30 39 43 59q17 27 22 44q6 20 6 40q0 30 -19 49q-18 18 -65 18q-44 0 -68 -25q-24 -26 -24 -89l-236 22q0 86 33 140t83 83q49 28 113 39q60 10 121 10q172 0 248 -63t76 -168q0 -82 -40 -146q-42 -67 -93 -128l-240 -275h189q9 0 11 6
q2 9 5 13l16 98h183v-273h-707zM528 -35l734 1518h270l-731 -1518h-273zM1528 711l-17 -172q24 14 75 32q44 15 102 15q122 0 196 -68t74 -203q0 -69 -23 -130q-23 -60 -69 -105q-47 -45 -118 -71q-69 -25 -169 -25q-118 0 -211 34q-91 33 -151 93l124 149q39 -34 95 -59
q55 -25 116 -25q136 0 136 121q0 60 -29 84q-30 25 -74 25q-61 0 -106 -54l-174 66l32 495h557v-202h-366z" />
    <glyph glyph-name="uni2157" unicode="&#x2157;" horiz-adv-x="2007" 
d="M606 1053q187 -35 187 -215q0 -67 -29 -119q-28 -50 -80 -87q-50 -36 -121 -54q-73 -19 -149 -19q-115 0 -208 34q-97 35 -151 91l125 152q41 -36 94 -62t119 -26q54 0 90 23q37 24 37 85q0 57 -34 78q-33 20 -91 20q-12 0 -44 -2q-20 -1 -54 -8v168l61 6q66 7 109 33
q41 24 41 96q0 35 -19 60q-18 24 -65 24q-45 0 -66 -24q-20 -23 -22 -82l-242 22q0 82 31 135q30 51 80 80t110 39q59 10 125 10q168 0 248 -57t80 -178q0 -82 -45 -140t-117 -79v-4zM496 -35l733 1518h270l-731 -1518h-272zM1522 711l-17 -172q24 14 75 32q44 15 101 15
q123 0 197 -68t74 -203q0 -69 -23 -130q-23 -60 -69 -105q-47 -45 -118 -71q-69 -25 -169 -25q-118 0 -211 34t-152 93l125 149q39 -34 95 -59q55 -25 116 -25q135 0 135 121q0 60 -28 84q-30 25 -74 25q-61 0 -106 -54l-175 66l33 495h557v-202h-366z" />
    <glyph glyph-name="uni2158" unicode="&#x2158;" horiz-adv-x="2007" 
d="M467 575v177h-412v166l398 571h262v-561h110v-174h-110v-179h-248zM516 -35l733 1518h271l-732 -1518h-272zM467 1235h-6l-199 -307h205v307zM1520 711l-17 -172q24 14 75 32q44 15 101 15q123 0 197 -68t74 -203q0 -69 -23 -130q-23 -60 -69 -105q-47 -45 -118 -71
q-69 -25 -169 -25q-118 0 -211 34t-152 93l125 149q41 -35 94 -59q55 -25 117 -25q135 0 135 121q0 60 -28 84q-30 25 -74 25q-62 0 -107 -54l-174 66l33 495h557v-202h-366z" />
    <glyph glyph-name="uni2159" unicode="&#x2159;" horiz-adv-x="2007" 
d="M115 575v132l102 12q15 1 21 6t6 20v553q0 23 -19 29l-114 25l20 139h387v-746q0 -15 3 -20q3 -4 20 -6l108 -12v-132h-534zM442 -35l734 1518h270l-731 -1518h-273zM1624 670q0 58 -14 78t-56 20q-66 0 -91 -63t-27 -175q33 17 76 27q41 10 96 10q62 0 111 -14
q52 -15 92 -46q41 -31 63 -81q22 -48 22 -119q0 -90 -29 -149q-30 -62 -80 -101q-47 -37 -117 -56q-62 -17 -140 -17q-108 0 -179 34q-73 35 -117 97q-46 65 -63 146q-18 86 -18 183q0 84 18 171t65 158q46 71 126 117q79 46 203 46q52 0 113 -8q53 -7 102 -33
q45 -24 72 -71q28 -48 28 -124zM1532 406q-29 0 -56 -8q-28 -8 -42 -17q0 -111 18 -162t78 -51q54 0 72 40t18 81q0 59 -18 88t-70 29z" />
    <glyph glyph-name="uni215A" unicode="&#x215a;" horiz-adv-x="2007" 
d="M367 1286l-17 -172q28 17 75 33q41 14 101 14q124 0 197 -67q74 -68 74 -203q0 -69 -23 -130q-23 -62 -69 -106q-45 -44 -118 -70q-72 -26 -169 -26q-115 0 -211 35q-94 34 -152 92l125 150q43 -37 94 -60q53 -24 117 -24q135 0 135 120q0 60 -28 84q-30 25 -74 25
q-63 0 -107 -53l-174 65l33 496h557v-203h-366zM496 -35l733 1518h270l-731 -1518h-272zM1679 670q0 58 -14 78t-55 20q-66 0 -91 -63q-27 -66 -28 -175q33 16 77 27q41 10 95 10q63 0 112 -14q52 -15 92 -46q39 -30 62 -81t23 -119q0 -87 -30 -149t-80 -101
q-47 -37 -117 -56q-62 -17 -140 -17q-108 0 -179 34q-73 35 -117 97q-45 63 -62 146q-19 90 -19 183q0 79 19 171q18 89 64 158q47 71 126 117t203 46q53 0 114 -8q52 -7 101 -33q46 -25 73 -71t27 -124zM1587 406q-29 0 -56 -8q-28 -8 -42 -17q0 -111 18 -162t78 -51
q54 0 72 40t18 81q0 59 -18 88t-70 29z" />
    <glyph glyph-name="oneeighth" unicode="&#x215b;" horiz-adv-x="2007" 
d="M121 575v132l102 12q15 1 21 6t6 20v553q0 23 -19 29l-114 25l20 139h387v-746q0 -15 3 -20q3 -4 20 -6l108 -12v-132h-534zM434 -35l733 1518h271l-731 -1518h-273zM1851 707q0 -65 -30 -118t-82 -100q75 -45 113 -97q36 -50 36 -128q0 -70 -28 -122q-27 -50 -79 -88
q-47 -34 -119 -53q-65 -17 -149 -17q-170 0 -257 63t-87 180q0 42 14 79q13 34 35 66q19 27 48 53q30 27 53 42q-56 38 -87 85q-32 49 -32 120q0 126 93 195t241 69q152 0 235 -62q82 -61 82 -167zM1448 696q0 -41 35 -71q41 -35 94 -62q36 39 50 71q15 35 15 62
q0 36 -25 58t-73 22q-49 0 -73 -24q-23 -23 -23 -56zM1624 233q0 49 -48 81q-50 33 -116 65q-40 -34 -59 -70t-19 -67q0 -37 28 -68t99 -31q60 0 88 28q27 27 27 62z" />
    <glyph glyph-name="threeeighths" unicode="&#x215c;" horiz-adv-x="2007" 
d="M612 1053q187 -35 187 -215q0 -67 -29 -119q-28 -50 -80 -87q-50 -36 -121 -54q-73 -19 -149 -19q-115 0 -208 34q-97 35 -151 91l125 152q40 -35 95 -62q53 -26 118 -26q54 0 90 23q37 24 37 85q0 58 -33 78t-92 20q-12 0 -44 -2q-20 -1 -54 -8v168l62 6q64 7 108 33
q41 24 41 96q0 36 -18 60t-66 24q-44 0 -65 -24q-21 -25 -23 -82l-242 22q0 82 31 135q30 51 80 80q49 28 111 39q59 10 124 10q168 0 248 -57t80 -178q0 -82 -45 -140t-117 -79v-4zM506 -35l733 1518h270l-731 -1518h-272zM1909 707q0 -64 -31 -118q-30 -53 -82 -100
q77 -46 114 -97q36 -50 36 -128q0 -69 -29 -122q-27 -50 -79 -88q-47 -34 -119 -53q-65 -17 -148 -17q-170 0 -257 63t-87 180q0 44 13 79q13 34 35 66q19 27 48 53q30 27 53 42q-56 38 -87 85q-32 49 -32 120q0 125 94 195q93 69 240 69q153 0 236 -62q82 -61 82 -167z
M1505 696q0 -41 35 -71q41 -35 94 -62q36 39 50 71q16 37 16 62q0 35 -26 58q-25 22 -72 22q-49 0 -73 -24t-24 -56zM1681 233q0 49 -48 81q-52 34 -115 65q-42 -36 -60 -70q-18 -35 -18 -67q0 -38 27 -68q28 -31 100 -31q60 0 88 28q26 26 26 62z" />
    <glyph glyph-name="fiveeighths" unicode="&#x215d;" horiz-adv-x="2007" 
d="M383 1286l-16 -172q29 18 74 33q41 14 102 14q123 0 196 -67q74 -68 74 -203q0 -71 -22 -130q-23 -60 -70 -106q-45 -44 -118 -70q-72 -26 -169 -26q-115 0 -211 35q-93 34 -151 92l125 150q43 -37 94 -60q53 -24 117 -24q135 0 135 120q0 60 -29 84q-30 25 -74 25
q-62 0 -106 -53l-174 65l33 496h557v-203h-367zM508 -35l733 1518h270l-731 -1518h-272zM1896 707q0 -65 -30 -118t-82 -100q75 -45 113 -97q36 -50 36 -128q0 -70 -28 -122q-27 -50 -79 -88q-47 -34 -119 -53q-65 -17 -148 -17q-170 0 -257 63q-88 64 -88 180q0 42 14 79
q13 34 35 66q19 27 48 53q30 27 53 42q-56 38 -87 85q-32 49 -32 120q0 126 93 195t241 69q153 0 236 -62q81 -60 81 -167zM1493 696q0 -41 35 -71q41 -35 94 -62q36 39 50 71q16 37 16 62q0 35 -26 58q-25 22 -73 22t-72 -24t-24 -56zM1669 233q0 49 -48 81q-50 33 -116 65
q-40 -34 -59 -70t-19 -67q0 -37 28 -68t99 -31q60 0 88 28q27 27 27 62z" />
    <glyph glyph-name="seveneighths" unicode="&#x215e;" horiz-adv-x="2007" 
d="M244 575q12 138 48 253q37 119 82 206q47 92 93 155q43 60 82 97h-244q-11 0 -12 -6q-2 -8 -2 -12l-15 -92l-174 -15v328h723v-182q-62 -64 -115 -150q-52 -83 -90 -179q-39 -98 -61 -198q-22 -102 -27 -205h-288zM418 -35l733 1518h270l-731 -1518h-272zM1868 707
q0 -64 -31 -118q-30 -53 -82 -100q77 -46 114 -97q36 -50 36 -128q0 -69 -29 -122q-27 -50 -79 -88q-47 -34 -119 -53q-65 -17 -148 -17q-170 0 -257 63t-87 180q0 44 13 79q13 34 35 66q19 27 48 53q30 27 53 42q-56 38 -87 85t-31 120q0 126 93 195t240 69q153 0 236 -62
q82 -61 82 -167zM1464 696q0 -41 35 -71q41 -35 94 -62q38 41 51 71q15 35 15 62q0 35 -26 58q-25 22 -72 22q-49 0 -73 -24t-24 -56zM1640 233q0 49 -48 81q-52 34 -115 65q-42 -36 -60 -70q-18 -35 -18 -67q0 -38 27 -68q28 -31 100 -31q60 0 88 28q26 26 26 62z" />
    <glyph glyph-name="arrowleft" unicode="&#x2190;" 
d="M406 440l122 -250h-249l-205 369l205 371h253l-124 -248h686v-242h-688z" />
    <glyph glyph-name="arrowup" unicode="&#x2191;" 
d="M461 49v688l-248 -127v254l371 205l368 -205v-250l-250 123v-688h-241z" />
    <glyph glyph-name="arrowright" unicode="&#x2192;" 
d="M74 682h686l-125 248h254l205 -371l-205 -369h-250l123 250h-688v242z" />
    <glyph glyph-name="arrowdown" unicode="&#x2193;" 
d="M702 389l250 123v-250l-368 -205l-371 205v254l248 -127v688h241v-688z" />
    <glyph glyph-name="uni2196" unicode="&#x2196;" 
d="M238 922l405 116l180 -182l-264 -86l488 -485l-173 -170l-487 487l-90 -266l-176 178z" />
    <glyph glyph-name="uni2197" unicode="&#x2197;" 
d="M870 336l-92 266l-487 -487l-170 170l487 485l-264 86l180 182l404 -116l119 -408z" />
    <glyph glyph-name="uni2198" unicode="&#x2198;" 
d="M928 231l-404 -116l-180 182l264 84l-487 487l170 170l487 -487l92 266l177 -176z" />
    <glyph glyph-name="uni2199" unicode="&#x2199;" 
d="M297 817l90 -266l487 487l173 -170l-488 -487l264 -84l-180 -182l-405 116l-117 410z" />
    <glyph glyph-name="partialdiff" unicode="&#x2202;" horiz-adv-x="1187" 
d="M494 846q98 0 169 -27t117 -57q4 64 -2 138q-6 73 -29 127q-23 55 -71 92q-46 36 -125 36q-80 0 -158 -33q-81 -34 -133 -75l-121 186q84 62 207 106q120 43 256 43q145 0 237 -52q93 -52 147 -138q55 -87 76 -198t21 -230q0 -150 -23 -285q-25 -144 -86 -254
q-63 -112 -169 -181t-272 -69q-223 0 -342 108t-119 312q0 110 29 190q30 83 85 141q56 59 134 89q81 31 172 31zM547 201q61 0 102 30q42 31 66 82t36 116q10 52 15 132q-41 30 -91 53q-51 23 -110 23q-103 0 -140 -63q-38 -64 -38 -166q0 -40 7 -75q8 -38 26 -67
q18 -28 49 -47q30 -18 78 -18z" />
    <glyph glyph-name="uni2206" unicode="&#x2206;" horiz-adv-x="1464" 
d="M18 0l519 1483h374l535 -1483h-1428zM696 1200h-12l-311 -969h653z" />
    <glyph glyph-name="product" unicode="&#x220f;" horiz-adv-x="1568" 
d="M901 -360v159l129 15q24 5 28 11q5 8 5 30v1398h-561v-1396q0 -24 5 -31q4 -5 28 -10l137 -17v-159h-649v159l129 15q23 5 27 11q5 8 5 30v1409q0 22 -5 30q-6 10 -27 11l-129 14v164h1525v-164l-137 -16q-23 -5 -28 -11q-5 -7 -5 -28v-1407q0 -24 5 -31q4 -5 28 -10
l137 -17v-159h-647z" />
    <glyph glyph-name="summation" unicode="&#x2211;" horiz-adv-x="1284" 
d="M20 -360v170l472 727l-453 784v162h1126v-414l-227 10l-29 156q-6 27 -35 27h-452l381 -676l-459 -699h578q16 0 22 3q5 3 10 20l33 180h225v-450h-1192z" />
    <glyph glyph-name="minus" unicode="&#x2212;" 
d="M188 543v237h793v-237h-793z" />
    <glyph glyph-name="uni2215" unicode="&#x2215;" horiz-adv-x="929" 
d="M16 -35l639 1327h267l-639 -1327h-267z" />
    <glyph glyph-name="uni2219" unicode="&#x2219;" horiz-adv-x="585" 
d="M293 805q190 0 190 -174q0 -84 -48 -129t-142 -45q-191 0 -191 174t191 174z" />
    <glyph glyph-name="radical" unicode="&#x221a;" horiz-adv-x="1185" 
d="M506 0l-244 426q-12 20 -37 14l-127 -28l-78 176l338 164l248 -461l330 1237l250 -62l-393 -1466h-287z" />
    <glyph glyph-name="infinity" unicode="&#x221e;" horiz-adv-x="1345" 
d="M989 365q-57 0 -104 15q-46 15 -86 38q-42 24 -70 51q-39 37 -55 55q-19 -22 -57 -54q-34 -29 -70 -50t-86 -37q-43 -14 -105 -14q-58 0 -106 17q-51 18 -91 52q-39 34 -64 89q-23 52 -23 130q0 70 24 124q23 52 67 91q42 38 99 57q56 19 121 19q100 0 175 -45
q77 -46 128 -100q57 53 126 99q68 46 169 46q65 0 115 -17q53 -18 93 -52q38 -33 62 -91q23 -57 23 -133q0 -67 -24 -121q-25 -57 -62 -92q-36 -35 -90 -57q-49 -20 -109 -20zM971 776q-52 0 -95 -35q-42 -35 -81 -75q41 -46 78 -80q40 -37 98 -37q55 0 82 36q26 35 26 79
q0 52 -27 82t-81 30zM371 545q60 0 106 40q50 43 86 81q-49 50 -82 77q-39 31 -96 31q-53 0 -85 -33q-32 -34 -32 -82q0 -39 27 -77q27 -37 76 -37z" />
    <glyph glyph-name="integral" unicode="&#x222b;" horiz-adv-x="802" 
d="M106 -139q43 -21 72 -27q37 -8 64 -8q42 0 66 27q23 26 16 114l-107 1227q-7 89 20 147t71 91q43 32 98 45q52 12 96 12q76 0 137 -12q57 -11 127 -35l-53 -201q-43 21 -72 27q-37 8 -63 8q-43 0 -67 -29q-23 -27 -15 -112l106 -1227q8 -95 -18 -150q-27 -58 -72 -89
q-46 -32 -98 -44t-97 -12q-75 0 -137 12q-57 11 -127 35z" />
    <glyph glyph-name="approxequal" unicode="&#x2248;" 
d="M1042 1028q-13 -65 -23 -98q-14 -49 -37 -83q-24 -37 -58 -57q-36 -22 -86 -22q-56 0 -117 12q-41 8 -121 26q-15 3 -115 25q-60 13 -100 13t-62 -19q-24 -20 -51 -65l-147 67q45 112 95 172q53 64 147 64q59 0 116 -12q62 -13 115 -27q47 -12 111 -27q53 -12 102 -12
q33 0 49 22q14 20 31 64zM1042 637q-13 -65 -23 -98q-14 -49 -37 -83q-25 -38 -58 -58q-34 -21 -86 -21q-56 0 -117 12q-41 8 -121 26q-15 3 -115 25q-60 13 -100 13q-39 0 -63 -19q-23 -18 -50 -65l-147 67q44 109 94 171q51 63 148 63q54 0 116 -13q85 -18 115 -25
q76 -18 111 -26q53 -12 102 -12q34 0 49 21q14 19 31 65z" />
    <glyph glyph-name="notequal" unicode="&#x2260;" 
d="M571 266l-67 -180h-217q3 5 7 15q0 1 2.5 7.5t4.5 10.5l55 147h-168v240h258l54 141h-312v240h402l69 184h218l-70 -184h172v-240h-264l-53 -141h317v-240h-408z" />
    <glyph glyph-name="lessequal" unicode="&#x2264;" 
d="M182 539v286l789 291l14 -239l-551 -187l553 -192l-12 -240zM182 0v238h793v-238h-793z" />
    <glyph glyph-name="greaterequal" unicode="&#x2265;" 
d="M193 258l-13 240l553 192l-551 180l15 246l788 -291v-286zM193 0v238h792v-238h-792z" />
    <glyph glyph-name="uni2460" unicode="&#x2460;" horiz-adv-x="1667" 
d="M831 -25q-159 0 -283 52q-122 51 -203 138q-80 86 -121 206q-40 117 -40 254q0 136 46 253t131 205q87 90 205 140q120 51 270 51q166 0 287 -51q122 -51 202 -139q81 -89 119 -204q39 -118 39 -253t-42 -254q-42 -118 -125 -207q-81 -87 -205 -139t-280 -52zM836 1186
q-129 0 -230 -43q-105 -45 -175 -119q-74 -79 -112 -178t-38 -221q0 -123 34 -224q34 -100 104 -178q69 -76 172 -118t240 -42t239 43q104 44 174 118q72 76 107 178q35 101 35 225q0 123 -33 221q-35 102 -102 177q-67 74 -171 118q-102 43 -244 43zM604 362l94 9
q14 1 19 6q4 4 4 20v443q0 24 -21 30l-100 23l18 121h340v-617q0 -15 4 -21t19 -7l96 -7v-118h-473v118z" />
    </font>
</defs>
</svg>
